<?xml version="1.0" standalone="no"?>
<!DOCTYPE svg PUBLIC "-//W3C//DTD SVG 1.1//EN" "http://www.w3.org/Graphics/SVG/1.1/DTD/svg11.dtd" >
<svg xmlns="http://www.w3.org/2000/svg">
<metadata></metadata>
<defs>
<font id="pbs_kids_headlineregular" horiz-adv-x="1214" >
<font-face units-per-em="2048" ascent="1509" descent="-539" />
<missing-glyph horiz-adv-x="573" />
<glyph horiz-adv-x="2048" />
<glyph horiz-adv-x="2048" />
<glyph unicode="&#xd;" horiz-adv-x="573" />
<glyph unicode=" "  horiz-adv-x="573" />
<glyph unicode="&#x09;" horiz-adv-x="573" />
<glyph unicode="&#xa0;" horiz-adv-x="573" />
<glyph unicode="!" horiz-adv-x="647" d="M78 1421l426 21l-55 -1028l-293 24zM113 115q0 37 14 69.5t37.5 57t56.5 40t70 15.5t69.5 -15.5t56 -40t38 -57t14.5 -69.5q0 -72 -52 -120t-126 -48t-126 48t-52 120z" />
<glyph unicode="&#x22;" horiz-adv-x="1013" d="M57 1427l365 17l-43 -690l-254 16zM551 1427l354 17l-45 -690l-252 16z" />
<glyph unicode="#" horiz-adv-x="1363" d="M74 399l12 217h248l20 277h-250l13 215h250l16 285h192l-20 -285h256q4 72 8 144.5t8 140.5h191l-21 -285h236l-12 -215h-234q-4 -72 -9 -138.5t-9 -138.5h233l-12 -217h-236l-14 -305h-190l16 305h-254q-4 -74 -8 -152.5t-8 -152.5h-191l19 305h-250zM524 616h254 q4 72 9.5 138.5t9.5 138.5h-252q-6 -70 -11.5 -139.5t-9.5 -137.5z" />
<glyph unicode="$" horiz-adv-x="1054" d="M55 160l47 286q72 -27 144.5 -51t150.5 -24q20 0 49 2t56.5 9t47 22.5t19.5 39.5q0 33 -36.5 60.5t-91 57.5t-119 65t-118.5 81t-91 106t-37 142q0 86 29.5 150.5t80 110t118 72t142.5 36.5l3 180l215 2l-5 -180q80 -8 159 -26.5t149 -47.5l-54 -266q-45 18 -83.5 31.5 t-76.5 22t-79 12.5t-90 4q-23 0 -51.5 -2t-54 -9.5t-43 -23.5t-17.5 -45q0 -39 40 -71t100 -63.5t131 -67.5t131.5 -83t100.5 -109.5t40 -148.5q0 -70 -26 -125t-70 -96t-101 -68.5t-121 -40.5l-2 -188h-217l4 180q-94 4 -190.5 19.5t-182.5 44.5z" />
<glyph unicode="%" horiz-adv-x="1447" d="M33 1104q0 70 23.5 131t64.5 105t96 70t119 26q63 0 118.5 -26t96.5 -70t64.5 -105t23.5 -131q0 -72 -23.5 -133.5t-64.5 -107.5t-96.5 -71.5t-118.5 -25.5t-118.5 25.5t-96.5 71.5t-64.5 107.5t-23.5 133.5zM78 0l1036 1434l205 2l-1043 -1436h-198zM238 1104 q0 -59 28.5 -95t69.5 -36q39 0 68.5 36t29.5 95q0 57 -29.5 92t-68.5 35q-41 0 -69.5 -35t-28.5 -92zM754 336q0 72 23.5 133t65.5 107.5t97 72t117 25.5q63 0 118.5 -25.5t96.5 -72t65.5 -107.5t24.5 -133t-24.5 -132.5t-65.5 -104.5t-96.5 -69.5t-118.5 -25.5 q-61 0 -116.5 25.5t-97.5 69.5t-65.5 104.5t-23.5 132.5zM958 336q0 -57 30 -92t69 -35q41 0 69.5 35t28.5 92q0 59 -28.5 95t-69.5 36q-39 0 -69 -36t-30 -95z" />
<glyph unicode="&#x26;" horiz-adv-x="1449" d="M74 391q0 76 23.5 139.5t62.5 116.5t91 97t111 79q-10 16 -21 30.5t-22 31.5q-39 59 -63.5 118.5t-24.5 135.5q0 82 40 142t102.5 100t140.5 58.5t154 18.5q68 0 137 -25.5t124.5 -69.5t90.5 -104.5t35 -130.5q0 -86 -47 -165.5t-129 -147.5q-25 -23 -51.5 -39t-55.5 -33 l148 -180l45 -55q37 41 68.5 81t56.5 75l249 -129q-33 -63 -79 -128t-101 -124q59 -70 107.5 -126.5t83.5 -95.5l-271 -110l-129 151q-90 -59 -182 -96t-180 -37q-104 0 -197.5 31t-164 86t-111.5 133t-41 172zM410 438q0 -86 44 -119.5t136 -33.5q43 0 85 13t83 36 q-55 68 -110.5 135t-108.5 137q-47 -25 -88 -69.5t-41 -98.5zM530 1120q0 -16 21.5 -60t62.5 -104l23 11q66 33 102.5 70.5t36.5 80.5q0 47 -28.5 80t-81.5 33q-23 0 -47.5 -5t-44 -17.5t-32 -34t-12.5 -54.5z" />
<glyph unicode="'" horiz-adv-x="491" d="M51 1421l340 9l-45 -682l-240 4z" />
<glyph unicode="(" horiz-adv-x="753" d="M82 711q0 154 37 284.5t98.5 238t139 191.5t157.5 144l123 -113q-84 -98 -136 -176t-82 -160t-41 -178t-11 -233q0 -98 8 -186.5t35.5 -174.5t79 -176t137.5 -197l-111 -125q-98 82 -178 178.5t-136.5 204t-88 227.5t-31.5 251z" />
<glyph unicode=")" horiz-adv-x="679" d="M41 1456l123 113q80 -59 157.5 -143.5t139 -192t98.5 -238t37 -284.5q0 -131 -32 -251t-88 -227.5t-136 -204t-178 -178.5l-109 125q86 106 137.5 196.5t79 176.5t35.5 174t8 187q0 137 -11 233t-41 178t-83 160t-137 176z" />
<glyph unicode="*" horiz-adv-x="882" d="M37 1006l82 280l237 -164q-8 100 -17 202.5t-20 201.5h259l-54 -406l236 148l82 -281l-250 -57q41 -63 87 -132t87 -128l-211 -172l-119 342l-131 -332l-211 172l189 256z" />
<glyph unicode="+" horiz-adv-x="829" d="M53 561v244h254v373h211v-373h256v-244h-256v-371h-211v371h-254z" />
<glyph unicode="," horiz-adv-x="571" d="M47 150q0 39 14.5 75.5t40 63t60.5 43t74 16.5t74.5 -16.5t62 -43t43 -63t16.5 -75.5t-1 -77t-10 -78t-27.5 -87t-55.5 -105q-16 -25 -46 -48t-59 -40q-35 -20 -73 -37l-90 125q27 12 51 29q23 14 43 32.5t35 41.5q16 25 12 59q-70 10 -117 60.5t-47 124.5z" />
<glyph unicode="-" horiz-adv-x="686" d="M35 799l559 2l4 -273l-559 -2z" />
<glyph unicode="." horiz-adv-x="485" d="M45 168q0 39 14.5 76t40 63.5t60.5 43t73 16.5q39 0 74 -16.5t60.5 -43t41 -63.5t15.5 -76q0 -41 -15.5 -75t-41 -58.5t-60.5 -38.5t-74 -14q-78 0 -133 53t-55 133z" />
<glyph unicode="/" horiz-adv-x="1058" d="M61 -137l654 1708l276 -10l-653 -1708z" />
<glyph unicode="0" horiz-adv-x="1245" d="M88 694q0 225 48 368.5t125 226.5t170 115t185 32q90 0 183.5 -30t170.5 -112t125 -226.5t48 -373.5q0 -211 -48 -348t-125 -218t-170 -112.5t-184 -31.5q-92 0 -185 30.5t-170 110.5t-125 218t-48 351zM410 694q0 -72 8 -138.5t30.5 -117.5t62.5 -81.5t105 -30.5 q63 0 102.5 31.5t62 84t30.5 118.5t8 134q0 76 -8 147.5t-30.5 127t-61.5 89.5t-103 34q-63 0 -103 -34t-63.5 -89.5t-31.5 -127t-8 -147.5z" />
<glyph unicode="1" horiz-adv-x="882" d="M37 788q47 59 99 140.5t102.5 170.5t97.5 180t82 173l272 -37l21 -1415h-346l26 881q-18 -41 -34.5 -73t-34 -60.5t-38 -57t-44.5 -65.5q-33 23 -60.5 39t-52.5 36q-25 16 -46.5 38t-43.5 50z" />
<glyph unicode="2" horiz-adv-x="1202" d="M84 190q14 14 42 44t58.5 63t61 64.5t51.5 54.5q39 43 89 100t97 113.5t85 103.5t55 70q31 45 38 98t-5.5 100.5t-44 79t-81.5 31.5q-45 0 -95 -19.5t-96 -46t-83 -56t-57 -48.5l-109 270q25 20 77 59.5t122.5 77t153.5 66.5t169 29q98 0 179 -35t139.5 -94.5 t90.5 -141.5t32 -174q0 -55 -17.5 -112.5t-46 -111.5t-64.5 -102t-73 -87q-70 -74 -131.5 -143.5t-142.5 -155.5l462 35q6 -80 3 -161t-11 -161l-868 -20q-6 18 -16.5 44.5t-20.5 55.5t-21.5 58.5t-21.5 51.5z" />
<glyph unicode="3" horiz-adv-x="1155" d="M57 94l111 264q27 -10 71 -24.5t93 -26.5t95 -19t77 -7q88 4 125 52t26 111q-8 47 -33.5 79t-59.5 51.5t-72.5 26.5t-71.5 5l-127 -6q0 59 -2 127t-2 127h40.5h55.5t56.5 1t45.5 1q47 0 83 19.5t59.5 47t34 59.5t6.5 56q-6 27 -25.5 50.5t-52.5 39t-80 19.5t-107 -6 q-82 -14 -154.5 -47t-109.5 -56l-63 240q20 14 57 41t89 52.5t119 48t146 28.5q98 8 194.5 -9.5t173.5 -63.5t125 -121.5t48 -182.5q0 -92 -38 -155.5t-83 -104.5q-53 -49 -119 -78q70 -25 123 -74q47 -41 86 -113.5t39 -183.5t-51 -187.5t-128 -122.5t-166 -66.5 t-167 -20.5q-66 0 -130 12.5t-125.5 32t-116 42t-95.5 42.5z" />
<glyph unicode="4" horiz-adv-x="1210" d="M68 473q37 68 89 151t109.5 173t116.5 182t112.5 176t96.5 153.5t67 114.5l316 -30v-879l196 2l-4 -256l-192 2v-272h-348v276h-523zM344 502l305 2l4 491q-4 -6 -18 -29.5t-37 -58.5t-50.5 -79t-55.5 -89q-68 -106 -148 -237z" />
<glyph unicode="5" horiz-adv-x="1150" d="M66 137l94 289q53 -37 98 -62.5t86 -41t80 -21.5t80 -6q47 0 80.5 16.5t54 43t30 56t9.5 58.5t-10.5 61.5t-30 60t-48 46t-67.5 18.5q-45 0 -78.5 -3t-63.5 -12t-59.5 -24.5t-66.5 -40.5l-156 72l19 758h841l-18 -305h-567l-11 -248q86 41 152 51t115 10 q80 -2 151.5 -29.5t124.5 -84t84 -144.5t31 -211q0 -141 -52.5 -230t-130 -140t-165.5 -69.5t-160 -18.5q-47 0 -104.5 8t-117 26.5t-117.5 47t-107 69.5z" />
<glyph unicode="6" horiz-adv-x="1220" d="M82 705q0 178 44 314t118.5 228t175 140.5t213.5 48.5q127 0 244.5 -32t191.5 -93l-72 -242q-88 43 -158.5 60.5t-156.5 17.5q-35 0 -85 -17.5t-97 -59.5t-80 -113.5t-29 -182.5q86 82 150.5 111.5t128.5 29.5q96 0 181 -27.5t148.5 -85t100.5 -144t37 -205.5 q0 -133 -45 -223.5t-115 -145.5t-155 -78.5t-165 -23.5q-303 0 -439 176t-136 547zM449 455q0 -41 16 -71t41.5 -48.5t59.5 -27.5t71 -9q31 0 59.5 11.5t52 31.5t39 48t19.5 63q6 76 -48 128t-143 52q-33 0 -62.5 -13.5t-53 -36t-37.5 -56t-14 -72.5z" />
<glyph unicode="7" horiz-adv-x="1153" d="M82 1059v362q94 -6 210 -9t235.5 -5t238.5 0t221 6l80 -221q-72 -133 -145.5 -294t-140 -325.5t-122 -321.5t-90.5 -282l-372 39q33 113 83 249t108 278.5t124 282.5t133 263q-53 -8 -128 -12t-153.5 -6t-153.5 -3t-128 -1z" />
<glyph unicode="8" d="M78 401q0 55 18.5 107.5t50 97.5t74.5 81t94 58q-111 39 -163 118t-52 155q0 199 124 307.5t360 108.5q117 0 210 -32t157.5 -87t99 -128t34.5 -155q0 -78 -46 -148.5t-119 -127.5q47 -27 81.5 -67t57 -86t33 -96t10.5 -99q0 -96 -40 -175t-107.5 -134.5t-157.5 -85 t-191 -29.5q-111 0 -208 28.5t-167.5 83t-111.5 132t-41 173.5zM428 1020q-4 -43 9.5 -79t36 -62.5t53 -42t63.5 -15.5q31 0 61.5 12.5t55 36t40 58.5t15.5 80q0 35 -10.5 69.5t-31 61t-52 43t-76.5 16.5q-80 0 -120 -50t-44 -128zM432 442q-4 -43 9.5 -78.5t36 -62.5 t53 -42t63.5 -15q31 0 61.5 12t55 35.5t40 58.5t15.5 80q0 35 -10.5 70t-30.5 62.5t-52 44t-77 16.5q-80 0 -120 -51.5t-44 -129.5z" />
<glyph unicode="9" horiz-adv-x="1241" d="M90 963q0 133 45 223t114.5 145t154.5 79t165 24q303 0 439.5 -176t136.5 -547q0 -178 -44 -314.5t-120 -228.5t-175 -140t-212 -48q-127 0 -245 31.5t-191 92.5l71 242q88 -43 159 -60.5t157 -17.5q33 0 84 17.5t98 59.5t79 113.5t30 182.5q-86 -82 -150.5 -111.5 t-128.5 -29.5q-96 0 -181 27.5t-148.5 85t-100.5 144.5t-37 206zM420 963q-6 -76 48 -128.5t142 -52.5q33 0 62.5 13.5t53.5 36t38 55.5t14 74t-16.5 70.5t-42 48t-59 27.5t-70.5 9q-31 0 -59.5 -11t-52 -31.5t-40 -49.5t-18.5 -61z" />
<glyph unicode=":" horiz-adv-x="571" d="M84 150q0 39 14.5 75.5t40 63t60 43t73.5 16.5t74 -16.5t60.5 -43t41 -63t15.5 -75.5q0 -41 -15.5 -75t-41 -58.5t-60.5 -39t-74 -14.5q-78 0 -133 53.5t-55 133.5zM84 944q0 39 14.5 76t40 63.5t60 43t73.5 16.5t74 -16.5t60.5 -43t41 -63.5t15.5 -76q0 -41 -15.5 -74.5 t-41 -58.5t-60.5 -38t-74 -13q-78 0 -133 52t-55 132z" />
<glyph unicode=";" horiz-adv-x="589" d="M66 150q0 39 14 75.5t39.5 63t60.5 43t74 16.5t75 -16.5t62.5 -43t43 -63t16.5 -75.5t-1 -77t-10.5 -78t-28 -87t-55.5 -105q-16 -25 -45.5 -48t-58.5 -40q-35 -20 -74 -37l-90 125q27 12 51 29q23 14 43.5 32.5t34.5 41.5q16 25 12 59q-70 10 -116.5 60.5t-46.5 124.5z M84 944q0 39 14.5 76t40 63.5t60 43t73.5 16.5t74 -16.5t60.5 -43t41 -63.5t15.5 -76q0 -41 -15.5 -74.5t-41 -58.5t-60.5 -38t-74 -13q-78 0 -133 52t-55 132z" />
<glyph unicode="&#x3c;" horiz-adv-x="1171" d="M80 610v95l776 528l158 -307l-463 -269l467 -303l-129 -313z" />
<glyph unicode="=" horiz-adv-x="894" d="M82 276v279l692 -8v-262zM82 799v278l692 -8v-262z" />
<glyph unicode="&#x3e;" horiz-adv-x="1171" d="M80 354l467 303l-463 269l158 307l776 -528v-95l-809 -569z" />
<glyph unicode="?" horiz-adv-x="1034" d="M39 1329q88 33 170 60q72 23 149.5 41t133.5 18q55 0 137 -13.5t158.5 -56.5t131 -125t54.5 -219q0 -84 -25.5 -145.5t-64.5 -104.5t-87 -75.5t-93.5 -59t-81 -55.5t-50.5 -64q-10 -23 -11 -42t3 -35q4 -18 10 -33l-305 -35q-20 66 -15 152t38 151q25 45 78 81t107 72 t96 78t42 101q0 61 -37.5 76.5t-95.5 15.5q-33 0 -81 -11t-100 -29.5t-105.5 -43t-94.5 -51.5zM270 119q0 37 14.5 69.5t38 57t56.5 39t70 14.5t69.5 -14.5t56 -39t38 -57t14.5 -69.5q0 -72 -52.5 -120t-125.5 -48q-74 0 -126.5 48t-52.5 120z" />
<glyph unicode="@" horiz-adv-x="1597" d="M104 655q0 176 60.5 298t160 198t225.5 109.5t257 33.5q121 0 231.5 -40t194.5 -116.5t133 -187.5t49 -254q0 -106 -28.5 -196t-77.5 -157t-115 -104.5t-141 -37.5q-31 0 -63 12t-59.5 31.5t-50 46t-36.5 57.5q-39 -41 -91.5 -71.5t-95.5 -30.5q-76 0 -129 36.5t-85.5 94 t-46 128t-7.5 138.5q6 72 35 140.5t77 120.5t115.5 84t153.5 32q47 0 87 -32t67 -68l18 61l164 -61l-92 -379q-10 -37 -10 -58q0 -47 25.5 -71.5t53.5 -24.5q31 0 61 21.5t54.5 61.5t39.5 97.5t15 128.5q0 113 -36.5 195t-98 136t-142.5 81t-169 27q-100 0 -198.5 -28 t-175.5 -86t-125 -147.5t-48 -214.5q0 -119 33 -217t96.5 -168.5t152.5 -110.5t203 -40q45 0 96.5 3t98.5 30l39 -156q-55 -25 -110.5 -31t-123.5 -6q-150 0 -268.5 46t-201 134t-127 217t-44.5 295zM586 580q0 -80 29.5 -105.5t60.5 -25.5q14 0 35.5 6t44 18t43 29.5 t32.5 40.5l39 166q-16 78 -49 109.5t-65 31.5q-23 0 -49.5 -16.5t-50 -46t-42 -69.5t-24.5 -85q-4 -16 -4 -29.5v-23.5z" />
<glyph unicode="A" horiz-adv-x="1351" d="M8 31l228 643q18 51 41.5 117.5t49 138t51 145.5t49.5 138.5t42 116.5t29 81h77h100t104 -1t89 -3q27 -84 63 -192.5t74.5 -229.5t80.5 -249t82 -254t77 -245t68 -219q-96 -16 -191.5 -26t-191.5 -27q-6 78 -19.5 139.5t-31.5 137.5l-445 4q-18 -70 -35 -127 q-14 -49 -25.5 -97.5t-15.5 -66.5zM502 543h336l-146 579z" />
<glyph unicode="B" horiz-adv-x="1212" d="M84 1382q131 33 283.5 46.5t287.5 13.5q82 0 164 -14.5t148.5 -51.5t108.5 -101.5t42 -164.5q0 -74 -19.5 -132t-53 -104.5t-79.5 -83t-102 -67.5q63 -14 118.5 -49t95.5 -85t63.5 -111.5t23.5 -127.5q0 -123 -52 -198.5t-134 -118.5t-182.5 -58.5t-194.5 -15.5 q-117 0 -252 8t-246 37q-4 346 -6 689t-14 689zM414 1147l10 -301q51 2 114.5 4t120 17.5t94.5 53t38 109.5q0 41 -23 66.5t-55.5 39t-70.5 17.5t-69 4q-41 0 -79.5 -3t-79.5 -7zM426 578l16 -328q39 -6 80 -6q49 0 95.5 7t83 26.5t59 56.5t22.5 96t-37.5 91t-93 45.5 t-117.5 14.5h-24q-46 0 -84 -3z" />
<glyph unicode="C" horiz-adv-x="1255" d="M80 748q0 147 54 274t143.5 219t201 145.5t228.5 53.5q113 0 216 -11.5t218 -39.5q-4 -23 -15.5 -77.5t-23.5 -111.5q-14 -68 -33 -143l-61 20q-48 17 -110 31q-40 9 -77 9q-20 0 -39 -3q-66 -10 -126 -36.5t-106 -71.5t-73.5 -108.5t-27.5 -147.5q0 -74 21.5 -135.5 t57 -109.5t82.5 -80t101 -48q45 -14 91 -14q37 -1 75 9q84 20 147 54l137 -328q-25 -16 -63.5 -36.5t-83.5 -40t-94.5 -33t-94.5 -13.5q-143 0 -277 44t-238.5 137.5t-167 240t-62.5 351.5z" />
<glyph unicode="D" horiz-adv-x="1241" d="M88 1413q63 6 143 9t144 3q186 0 335.5 -39.5t255 -127t162 -224.5t56.5 -332q0 -172 -71 -306t-185.5 -225t-261 -139t-299.5 -48h-66t-71.5 2t-72.5 3t-65 5q6 119 8 235.5t2 235.5q0 242 -4 474t-10 474zM457 1044l6 -661q162 0 259 89t97 257q0 162 -71.5 241 t-237.5 79q-14 0 -27.5 -1t-25.5 -4z" />
<glyph unicode="E" horiz-adv-x="1146" d="M111 1401q236 8 465 12t464 4v-327q-25 2 -71.5 3t-97 2t-95.5 1h-67q-27 -2 -70 -3t-84 -3q-49 -2 -102 -5l4 -229q49 2 92 6q37 4 75 6t58 4q29 2 71 4q23 1 44 2q16 0 30 -1l15 -287q-27 -6 -72 -11.5t-96 -7.5t-103.5 -2h-93.5v-209h570v-364q-43 0 -120 1t-160 2 t-160 1h-120l-368 -6q2 58 3 166v44q0 93 -3 212q-2 94 -2 211.5t-1 247t-2 264.5t-3 262z" />
<glyph unicode="F" horiz-adv-x="1067" d="M77 1212q0 26 -0.5 51t0.5 49q1 48 3 79q39 4 103.5 8t133 7t133 5t101.5 2l455 -7l-11 -304q-35 2 -79 3t-87 2q-22 0 -42 1q-21 0 -39 -1q-38 -1 -58 -1q-27 -2 -76 -4l-98 -4q-57 -4 -123 -6l15 -285q57 2 108 2h86t66 2l133 10q2 -29 6 -68.5t7 -82.5l6 -86t3 -76 q-90 -6 -166 -10q-33 -2 -65.5 -3t-60 -2t-49 -1t-29.5 2q0 -57 1.5 -111.5t6 -115t9.5 -127t13 -148.5q-43 -2 -93 -5t-99 -6.5t-93 -6.5t-75 -5q-6 35 -7 81t-3 83q-8 229 -14.5 453.5t-16.5 451.5q-2 29 -3 75.5t-2 98.5z" />
<glyph unicode="G" horiz-adv-x="1333" d="M66 723q0 158 58 290t158.5 227t233.5 148.5t283 53.5q100 0 200.5 -17.5t198.5 -38.5q-14 -86 -31.5 -169.5t-42.5 -167.5q-68 29 -154.5 51t-158.5 22q-78 0 -147.5 -30.5t-123 -84t-84 -124t-30.5 -150.5q0 -90 24.5 -169t73.5 -137t123 -91t172 -33q49 0 99 6l-7 242 l-231 2l6 264q64 1 127 1t125 -1q125 -2 250 -8l18 -715q-78 -53 -182 -85t-199 -32q-182 0 -323.5 42t-237.5 131.5t-147 230.5t-51 342z" />
<glyph unicode="H" horiz-adv-x="1275" d="M68 1413q98 8 188 9h36q73 0 152 -3v-84t-1 -97t-1 -87v-51v-54t2 -79q0 -47 2 -101l369 -10l-4 559l389 6q0 -49 -3 -126.5t-7 -159.5q-4 -117 -4 -264.5v-302v-304t-2 -268.5q-86 -4 -186.5 -4t-186.5 6q0 25 1 58.5t2 67.5t1 64.5v51.5q0 29 -1 75.5t-3 94.5 q-2 53 -2 112h-360v-164q0 -66 -1 -126q0 -20 -1 -36q0 -32 2 -46q2 -29 2 -69v-71l-87.5 -5t-104.5 -4t-97 -2t-68 -1q2 29 2 99.5v192.5t-3 300t-7 420q-2 39 -4 95t-4 114.5t-5 110.5t-5 83z" />
<glyph unicode="I" horiz-adv-x="585" d="M95 1348v23q0 23 1 42l393 2l-22 -1415h-344q0 35 -1 91t-3 120.5t-3 133.5t-3 130.5t-3 110.5t-1 73l-13 619q0 34 -1 70z" />
<glyph unicode="J" horiz-adv-x="1079" d="M35 344q74 18 147.5 37.5t147.5 36.5q6 -23 19 -47.5t35 -45t54.5 -35t77.5 -14.5q70 0 97.5 71t27.5 214q0 31 -1 90.5t-3 132t-4 151.5t-5 147.5t-5 120.5t-2 73q-2 35 -5.5 74t-3.5 67h359q4 -57 5 -149t1 -209q0 -145 1 -275v-50q0 -95 -3 -152q-8 -119 -28.5 -237 t-88.5 -216q-37 -55 -89 -88t-111.5 -51.5t-124 -23.5t-125.5 -5q-78 0 -142.5 33t-114 86t-79 121.5t-37.5 142.5z" />
<glyph unicode="K" horiz-adv-x="1271" d="M106 4l7 1397l340 22l-7 -491l435 522l352 -129l-492 -547l537 -755l-424 -43q-2 0 -17.5 24.5t-40 64.5t-56 90t-64.5 103q-78 125 -174 283l14 -541q-41 -4 -102.5 -7t-112.5 -3q-47 0 -102.5 3t-92.5 7z" />
<glyph unicode="L" horiz-adv-x="1083" d="M47 -8q2 70 4 164t3 193.5t2 195.5t3 172q2 86 2 178v181v175t-2 160l394 8q-6 -117 -11.5 -232.5t-8.5 -212.5t-5 -168t-2 -101q-1 -19 -1 -49v-32q1 -52 1 -100v-123q70 4 158 11q76 4 181 10t236 10v-94t-2 -86l-12 -256q-72 4 -140.5 7t-139.5 3q-37 0 -125 -1 t-189.5 -3t-197 -5t-148.5 -5z" />
<glyph unicode="M" horiz-adv-x="1738" d="M102 2q2 59 4.5 166.5t6.5 242t8 282t9 284.5t9 251.5t8 184.5l138 6q37 0 82 -1t71 -1q18 -33 51 -97.5t74 -146t85 -172t84 -172t71 -148.5t47 -101l469 833l270 -6q2 -53 5 -153.5t7.5 -227.5t8.5 -270.5t6 -282.5t3 -264v-80q0 -76 -1 -137q-31 0 -78 1t-97 2 t-98.5 2t-80.5 3q0 49 -1 128t-2 174t-1 199.5v209.5q-4 -6 -26 -51.5t-54.5 -111t-70.5 -143t-76 -152.5t-68.5 -137.5t-49.5 -95.5l-145 -4q-76 174 -157 355.5t-152 341.5q2 -77 3 -177q0 -50 0.5 -100t-0.5 -100q-1 -100 -2 -188.5t-1 -139.5q-31 0 -78 -1t-98.5 -2 t-100.5 -2t-82 -1z" />
<glyph unicode="N" horiz-adv-x="1431" d="M104 -6q0 39 2.5 103.5t4.5 139t3 153.5t3 148.5t2 123v77.5l-13 629q29 6 71 15.5t79 13.5l197 20q16 -23 43.5 -61.5t55.5 -78.5t51.5 -74t31.5 -46t24.5 -35.5t40 -53.5t49 -62.5t52.5 -65.5q61 -78 133 -168q2 121 4 221q0 43 1 86t2 81t1 67.5v44.5v73.5t-4 63.5 l397 18q-4 -25 -5 -48t-3 -48q-2 -14 -4 -67.5t-6 -129t-8 -166.5t-8.5 -179.5t-7.5 -168t-3 -133.5q-2 -63 -3 -132.5t-2 -135t-1 -120v-87.5q-29 -10 -64.5 -18t-58.5 -12l-104 -17l-84 141q-18 31 -70.5 106t-123 172t-149.5 205.5t-149 205.5q6 -104 11 -191 q4 -74 6 -143.5t4 -93.5q0 -23 2 -64t4 -85t3 -84t1 -58v-60q-37 -2 -92 -5t-113.5 -6t-112 -6t-90.5 -5z" />
<glyph unicode="O" horiz-adv-x="1380" d="M53 653q0 178 49.5 322.5t136.5 248t208.5 159t267.5 55.5q162 0 275.5 -57.5t185 -159t103.5 -241.5t32 -306q0 -152 -43 -279t-128 -219t-213 -143t-300 -51q-141 0 -248 55t-179.5 148.5t-109.5 214t-37 253.5zM432 774q-4 -36 -4 -68q0 -57 12 -103q18 -73 53 -121 t82.5 -72.5t100.5 -26.5h15q57 -1 98 27q47 32 76.5 84.5t44 117.5t14.5 131q0 55 -15.5 120t-46.5 120t-75 91q-40 32 -90 32h-11q-102 -6 -171 -89t-83 -243z" />
<glyph unicode="P" horiz-adv-x="1150" d="M72 524q0 223 5 444.5t13 444.5q141 0 279.5 6t279.5 6q98 0 182 -32.5t146.5 -92t97.5 -141.5t35 -182q0 -123 -33 -225.5t-96 -176t-159.5 -113.5t-221.5 -40q-47 0 -96 5t-96 15q2 -111 5 -221t15 -221q-134 -18 -270 -18h-27l-49 2q-6 135 -8 270t-2 270zM408 729 q35 -14 72.5 -17t74.5 -3q117 0 170 53t53 174q0 201 -200 201q-41 0 -82 -4.5t-82 -6.5z" />
<glyph unicode="Q" horiz-adv-x="1439" d="M76 676q0 158 49 296t137 240.5t210 162t267 59.5q154 0 266.5 -59.5t186.5 -164t109.5 -246t35.5 -305.5q0 -213 -84 -362.5t-206 -220.5q8 -16 24 -42t34.5 -53.5t38 -52t32.5 -39.5l108 -125q-31 -14 -75 -32.5t-87 -36t-82 -31.5t-59 -20q-41 37 -98.5 130 t-112.5 226q-35 -4 -58.5 -6t-58.5 -2q-139 0 -246.5 58.5t-181 154.5t-111.5 219t-38 252zM457 698q0 -84 21.5 -144t58 -100t83 -59.5t95.5 -19.5q63 0 108 32.5t75 83t43 114t13 124.5q0 57 -15 120.5t-46 118t-76 89.5t-102 35q-109 -6 -183.5 -106.5t-74.5 -287.5z" />
<glyph unicode="R" horiz-adv-x="1200" d="M80 1014v80t1 107t3 109.5t2 90.5q43 0 100.5 1t122 3t128 4t118.5 6q35 2 85 3t81 1q115 0 194.5 -44t131 -108.5t74 -137t22.5 -130.5q0 -80 -17.5 -152.5t-50.5 -132t-79 -102.5t-101 -67l-25 -10q16 -39 40 -88.5t46 -96.5q37 -72 97.5 -158.5t136.5 -154.5 q-33 -14 -80 -28.5t-94 -28t-89 -24.5t-63 -17q-25 27 -68.5 81t-86.5 132q-25 41 -48.5 87t-45 92t-41 89t-33.5 80l-90 2q0 -59 2 -124t6 -129.5t9 -126t11 -112.5l-373 -16q-6 76 -10 205t-7 273t-5 288.5t-4 253.5zM438 1128q0 -88 2 -159q2 -61 4 -118.5t7 -76.5 q16 -4 40.5 -6t49 -3t46 -1h34.5q76 4 119.5 51t43.5 125q0 8 -4 37t-18 61.5t-42 60t-73 31.5q-34 3 -69 3q-18 0 -36 -1q-54 -2 -104 -4z" />
<glyph unicode="S" horiz-adv-x="1153" d="M35 57l55 336q82 -31 165 -59.5t171 -28.5q23 0 56.5 2t64.5 11.5t53.5 25.5t22.5 47q0 39 -42 72t-104.5 67.5t-136.5 75.5t-136.5 95.5t-104.5 126t-42 167.5q0 119 47.5 204t126 137.5t179 77t204.5 24.5q115 0 238 -23.5t227 -71.5l-63 -313q-51 20 -95 36.5 t-88.5 27t-91.5 15.5t-102 5q-25 0 -57.5 -2t-62.5 -12t-49 -29.5t-19 -52.5q0 -45 46 -83t115.5 -75t149.5 -79t149.5 -98t115.5 -130t46 -174t-44 -175t-114.5 -125t-158.5 -74.5t-176 -24.5q-131 0 -276.5 17t-268.5 60z" />
<glyph unicode="T" horiz-adv-x="1339" d="M29 1071q-2 29 -2 65q0 44 3 97q5 96 17 188q150 -8 297.5 -10t296.5 -2q166 0 322.5 3t324.5 9v-344q-117 -4 -228.5 -6t-228.5 -6q4 -268 4.5 -532.5t8.5 -532.5h-371l8 1061q-63 0 -118.5 1t-107.5 2t-107.5 3t-118.5 4z" />
<glyph unicode="U" horiz-adv-x="1318" d="M82 530q0 218 5 438q2 74 2 146q0 146 -7 291q78 4 152.5 7t152.5 3h88v-39q0 -150 -8 -300t-8 -302q0 -48 -4 -118q-1 -20 -1 -40q0 -48 7 -94q10 -64 43 -110.5t104 -46.5q80 0 124 50t63.5 124.5t23.5 161.5t4 161q0 135 -8 272.5t-14 272.5l411 14q2 -233 4 -455 q0 -32 1 -65q0 -194 -13 -407q-6 -109 -62.5 -203t-142.5 -164t-190 -110t-205 -40q-141 0 -239.5 37t-162 108t-92 173t-28.5 235z" />
<glyph unicode="V" horiz-adv-x="1343" d="M10 1403q12 2 66.5 4t121 5t130.5 4h40q36 0 60 -1q2 -18 6 -41.5t8 -46t7.5 -42t5.5 -30.5q23 -106 44 -201.5t45.5 -191.5t53.5 -200.5t66 -229.5q41 154 73.5 274.5t60 226t51 203t42.5 203.5q4 18 6 40t4 42q25 -2 85.5 -3t127 -2t123 -4t72.5 -7q-18 -51 -51 -149.5 t-69 -205t-69 -201.5t-47 -142l-229 -709q-20 -4 -50 -6t-63 -3t-64.5 -2t-54.5 -1q-16 -1 -31 -1q-23 0 -47 2q-38 3 -67 7q-12 57 -41 148t-61.5 192.5t-65.5 200t-55 165.5z" />
<glyph unicode="W" horiz-adv-x="1841" d="M39 1405q59 10 116.5 11t114.5 1q47 0 92.5 -1t92.5 -3l67 -807q43 72 100.5 172.5t110.5 192.5q61 109 123 221l139 2q43 -76 80 -148.5t71 -145.5t68.5 -146.5t73.5 -151.5q27 217 58.5 418t60.5 418q96 -2 190.5 -4.5t186.5 -18.5q-37 -174 -73 -355t-68.5 -362.5 t-59.5 -357.5t-45 -342q-47 -4 -89 -7t-89 -3q-92 0 -184 6q-23 55 -54.5 122.5t-67.5 142.5t-75 154l-78 158q-96 -160 -186 -306t-156 -277q-51 -2 -88 -3h-24q-23 0 -47 1q-34 2 -71.5 5t-86.5 9q-35 356 -87.5 704.5t-115.5 700.5z" />
<glyph unicode="X" horiz-adv-x="1329" d="M12 12q31 57 83 151.5t110.5 193t113 186.5t89.5 135q-18 35 -48 91t-64 121.5t-71 136.5t-72.5 137.5t-66.5 122.5t-51 95l356 60q16 -29 43 -78t58.5 -108.5t67.5 -126t73 -130.5q27 47 61.5 111t68.5 128.5t64.5 119.5t46.5 84q27 -4 74 -8t101.5 -10.5t109.5 -11.5 t98 -11q-45 -66 -108.5 -160t-129 -194.5t-127 -191.5t-104.5 -150q37 -61 87.5 -148.5t107.5 -180.5t115.5 -186.5t113.5 -166.5l-421 -54q-14 25 -36 69t-48.5 99.5t-58.5 116.5t-66 121q-35 -59 -67 -120.5t-59.5 -117t-47 -97.5t-29.5 -60z" />
<glyph unicode="Y" horiz-adv-x="1329" d="M45 1409q12 0 62.5 2t112 3t121.5 2t93 1q20 -80 53 -169t67 -171t64.5 -150.5t47.5 -107.5q23 66 61.5 167t75.5 200q43 113 92 235q23 0 80 -1t120.5 -2t117 -3t69.5 -4q-16 -33 -48 -95.5t-65.5 -130t-65.5 -129t-46 -89.5l-232 -455l13 -514q-20 0 -45 -1t-48.5 -2 t-43 -2t-29.5 -1q-12 0 -35 1t-50.5 2t-56 2t-53.5 1l19 506q-14 39 -44 99.5t-64 127t-67.5 128t-54.5 104.5z" />
<glyph unicode="Z" horiz-adv-x="1267" d="M57 178q111 150 218.5 295t207.5 301q45 70 89 138.5t85 166.5l-587 -24l2 360h1026l76 -162q-18 -33 -45 -79t-64 -105q-12 -20 -40 -63t-64.5 -99.5t-78.5 -122t-85 -131.5q-98 -154 -217 -334q84 4 157 11q63 4 127 7t94 7q38 3 79 3h21q54 -1 93 -5l-16 -344 q-25 4 -63 6t-73 2q-31 0 -99.5 -1t-157.5 -2t-187 -3t-189.5 -3t-164 -3t-109.5 -2z" />
<glyph unicode="[" horiz-adv-x="692" d="M92 1620h477v-250h-170q0 -330 -1 -652.5t-1 -651.5h195v-252h-498z" />
<glyph unicode="\" horiz-adv-x="952" d="M-18 1569h231l762 -1704h-234z" />
<glyph unicode="]" horiz-adv-x="692" d="M106 66h193v1304h-172v250h477v-1806h-498v252z" />
<glyph unicode="^" horiz-adv-x="1087" d="M63 907l379 613h181l368 -613h-272l-191 287l-190 -287h-275z" />
<glyph unicode="_" horiz-adv-x="681" d="M-16 -143h747v-162h-747v162z" />
<glyph unicode="`" horiz-adv-x="1071" d="M299 1548h313l267 -338h-252q-74 72 -140 138q-55 55 -109 111.5t-79 88.5z" />
<glyph unicode="a" horiz-adv-x="1202" d="M57 547q0 125 31 233.5t92.5 188.5t152.5 125t212 45q92 0 161.5 -19.5t122.5 -46.5l226 70q2 -51 6 -139.5t9 -195t13.5 -223t16.5 -226t17 -200.5t20 -147l-363 -22l-18 184q-27 -41 -59.5 -74.5t-67.5 -59.5t-70 -40t-65 -14q-98 0 -179.5 42t-137.5 117.5t-88 178 t-32 223.5zM379 582q0 -49 9 -97.5t32.5 -86.5t61.5 -62.5t93 -24.5q84 0 134.5 71.5t56.5 182.5v15q0 46 -10 92q-12 52 -38 92.5t-60.5 64t-77.5 23.5q-86 0 -143.5 -73.5t-57.5 -196.5z" />
<glyph unicode="b" horiz-adv-x="1200" d="M68 1505l325 19l15 -525q47 63 114.5 101.5t157.5 38.5q143 0 230 -57.5t134.5 -143.5t63.5 -189.5t20 -195.5v-15q0 -84 -20 -176q-22 -100 -72.5 -185t-131.5 -140t-195 -55q-86 0 -156 37.5t-123 97.5l4 -117l-303 -14zM432 594q-1 -13 -1 -26q1 -44 11 -84 q14 -52 39 -92t61 -64.5t79 -24.5q84 0 138 75t54 200q0 47 -8 97t-29.5 91t-58.5 66.5t-94 25.5q-51 0 -86 -20.5t-57.5 -56.5t-34 -84t-13.5 -103z" />
<glyph unicode="c" horiz-adv-x="1034" d="M68 537q0 125 27.5 236.5t88 194.5t155.5 130q91 45 221 45h11q115 -2 215.5 -41t159.5 -103l-196 -192q-16 18 -42 31.5t-53.5 20.5t-52 10t-41.5 1q-88 -10 -129 -79.5t-47 -186.5v-14q-1 -48 11 -94q14 -52 38.5 -91.5t57 -64.5t69.5 -25q57 0 105.5 13.5t111.5 66.5 l178 -209q-18 -25 -58 -60.5t-94 -67t-118.5 -55t-132.5 -23.5q-133 0 -225 47t-150.5 125.5t-84 179t-25.5 205.5z" />
<glyph unicode="d" horiz-adv-x="1208" d="M61 569v15q-1 84 19 176q22 100 72.5 185t131.5 140.5t197 55.5q86 0 157 -39t124 -101l-21 517l349 20l18 -1538l-303 -14l-8 159q-49 -72 -119 -116.5t-168 -44.5q-145 0 -231 57t-134.5 144t-65 189.5t-18.5 194.5zM377 604q0 -47 8 -97t29.5 -91t58.5 -66.5t92 -25.5 q51 0 86 20.5t57.5 56t33 84t14.5 103.5q1 14 1 27q1 43 -9 83q-12 52 -38 91.5t-62 63.5t-79 24q-86 0 -139 -74t-53 -199z" />
<glyph unicode="e" horiz-adv-x="1087" d="M68 563q0 117 29.5 222.5t88 185.5t147.5 127t206 47q137 0 229 -47t147.5 -128t79 -188.5t23.5 -228.5l-621 -123q25 -70 78 -102.5t121 -32.5q63 0 125.5 18.5t107.5 61.5l168 -189q-72 -86 -174 -146t-225 -60q-272 0 -401 150.5t-129 432.5zM381 680l356 68 q-10 61 -54 104t-110 43q-90 0 -141 -62.5t-51 -152.5z" />
<glyph unicode="f" horiz-adv-x="991" d="M16 1085h215l-2 97v11q0 80 26 147q28 71 80 121t126 79t164 29q88 0 157.5 -17.5t155.5 -42.5l-66 -266q-41 12 -85 24.5t-85 12.5q-66 0 -108 -30q-41 -28 -41 -89v-6l2 -70h346l-8 -282l-332 -4l23 -807q-43 -2 -86 -3t-86 -1q-41 0 -80 1t-80 3q-4 199 -5 400.5 t-5 400.5h-217q-4 78 -6.5 146.5t-2.5 145.5z" />
<glyph unicode="g" horiz-adv-x="1251" d="M61 582v11q0 83 27 177q29 100 85 185t136 140.5t180 55.5q96 0 174 -41t123 -106q-3 33 -3 56v10q1 26 -3 56l330 -4v-103.5t2 -143t4 -168t4 -175.5q6 -203 10 -436v-16q0 -148 -34 -252q-37 -111 -116 -179.5t-202 -98.5q-102 -24 -234 -24q-27 0 -55 1 q-55 2 -132.5 19.5t-151.5 37.5l63 283q59 -16 130 -30.5t147 -16.5h12q56 0 101 16q49 19 82.5 51.5t51 76.5t17.5 93q0 23 1 52.5t1 64.5q-49 -74 -121 -119t-172 -45q-129 0 -215 55.5t-139 139.5t-77 184t-26 193zM377 596q0 -49 9 -97t32.5 -86t61.5 -62.5t93 -24.5 q100 0 142.5 71.5t48.5 182.5v15q0 47 -10 92q-13 52 -38.5 92t-60 63.5t-77.5 23.5q-86 0 -143.5 -73.5t-57.5 -196.5z" />
<glyph unicode="h" horiz-adv-x="1142" d="M86 1516l311 -7l2 -536q61 66 133 111.5t164 45.5q82 0 145.5 -32.5t106.5 -87t66.5 -125t25.5 -146.5q4 -140 4 -278v-93q-1 -53 -1 -105q0 -132 4 -265l-316 8q2 78 3 156t1 155v65t-1 93t-7 104.5t-19.5 96.5t-34 70.5t-52.5 27.5q-80 0 -132.5 -46t-89.5 -97l13 -631 h-324z" />
<glyph unicode="i" horiz-adv-x="579" d="M100 1370q0 66 45 117t131 51t132.5 -51t46.5 -117q0 -63 -46.5 -109.5t-132.5 -46.5q-90 0 -133 46.5t-43 109.5zM113 1122l331 -10l27 -1116l-356 -4z" />
<glyph unicode="j" horiz-adv-x="602" d="M-115 -459l31 285q57 -8 98 -8q12 0 23 1q47 3 78 29q27 23 39 50.5t14 85.5q0 43 -1 122.5t-3 180t-5 214t-6 225.5t-5.5 214t-2.5 180l353 6q0 -29 -1 -87q-1 -29 -1 -71t1 -98q1 -110 3 -288.5t6 -446.5q0 -41 -1 -90t-5 -99t-11.5 -98.5t-17.5 -87.5q-10 -37 -52 -87 t-116 -90t-179 -57q-36 -7 -76 -7q-75 0 -163 22zM141 1378q0 66 45 117t131 51t132.5 -51t46.5 -117q0 -63 -46.5 -109t-132.5 -46q-90 0 -133 46t-43 109z" />
<glyph unicode="k" horiz-adv-x="1136" d="M86 1518l317 -7l15 -704q51 53 107.5 112.5t104.5 109.5t80.5 83t34.5 33t38 -6t85.5 -14.5t103.5 -18.5t93 -16l-440 -443l493 -616q-49 -18 -103 -30.5t-107.5 -21t-100.5 -12.5t-78 -6l-305 457l8 -422l-344 -6z" />
<glyph unicode="l" horiz-adv-x="522" d="M96 -6l6 1528l308 -13l24 -1511z" />
<glyph unicode="m" horiz-adv-x="1783" d="M109 -18v1169l297 -10l6 -217q47 84 129 142t180 58q117 0 197.5 -52t113.5 -169q47 84 129 141.5t180 57.5q82 0 142.5 -35t102.5 -90t62.5 -126t22.5 -144l12 -707l-307 6q2 90 5 198.5t3 198.5q0 37 1 95v10q0 52 -9 102q-10 54 -36.5 92.5t-82.5 38.5 q-33 0 -61.5 -13t-54 -34.5t-46 -47t-38.5 -52.5l6 -571l-307 6q2 90 5 198.5t3 198.5q0 42 1 100v9q-1 53 -11 103q-12 54 -40 92t-87 38q-37 0 -68 -15.5t-55.5 -39t-46 -53t-39.5 -58.5l16 -616z" />
<glyph unicode="n" horiz-adv-x="1189" d="M86 1116l305 -12l6 -170q23 45 60 81t81 60.5t94 37.5t99 13q82 0 145.5 -33.5t107.5 -89t67.5 -127t23.5 -145.5l6 -731l-315 6q0 41 1 96.5t2 111.5t2 111.5t1 96.5q0 43 -1 103.5t-12 116.5t-40 95t-84 39q-39 0 -74 -14t-65.5 -38t-54 -55.5t-38.5 -64.5l17 -614 l-332 -4z" />
<glyph unicode="o" horiz-adv-x="1099" d="M43 535q0 106 30.5 216.5t92.5 198.5t160 144q94 54 224 53h9q135 -2 228.5 -61.5t150.5 -146.5t84 -189.5t29 -192.5v-16q-1 -83 -19 -177q-20 -102 -75.5 -189t-150.5 -144.5t-239 -57.5q-147 0 -247.5 53.5t-162 136.5t-88 181t-26.5 191zM346 598q-1 -12 -1 -24 q1 -46 13 -88q16 -52 42 -93t63 -64.5t80 -23.5q41 0 78.5 19.5t66.5 55.5t46.5 87.5t17.5 114.5q0 49 -11.5 100t-36 92t-63.5 66.5t-94 25.5q-51 0 -87 -20.5t-60.5 -56t-38 -85t-15.5 -106.5z" />
<glyph unicode="p" horiz-adv-x="1212" d="M70 1114l325 21l4 -131q47 68 117 109.5t164 41.5q143 0 230 -57.5t134.5 -143.5t63.5 -188.5t20 -194.5v-15q0 -83 -20 -174q-21 -99 -71 -184t-131 -140.5t-197 -55.5q-182 0 -289 127l16 -643l-313 -14zM434 608q-1 -14 -1 -27q0 -43 9 -83q13 -52 38.5 -91.5 t61.5 -63.5t79 -24q86 0 140 74t54 199q0 47 -9 96t-30.5 90t-58.5 67.5t-92 26.5q-51 0 -86 -21.5t-57.5 -57t-34 -83.5t-13.5 -102z" />
<glyph unicode="q" horiz-adv-x="1239" d="M72 580v15q0 82 20 173q21 100 71 185t131 140.5t198 55.5q102 0 182 -44t135 -122l6 178l330 2l-66 -1689l-305 2l17 651q-47 -63 -115 -97t-156 -34q-143 0 -230 57.5t-134 143.5t-64.5 188t-19.5 195zM385 571q0 -47 9 -96t30.5 -90t58.5 -67.5t92 -26.5q51 0 86 20.5 t57.5 56t33 84t14.5 103.5q1 14 1 27q0 43 -9 82q-13 53 -38.5 93t-61 63.5t-78.5 23.5q-86 0 -140.5 -74t-54.5 -199z" />
<glyph unicode="r" horiz-adv-x="946" d="M78 1122l352 19q-2 -20 -4 -49t-3 -54.5t0 -43t5 -17.5q80 61 169 92t146 39q18 2 36 2q22 0 42 -3q37 -5 60 -9l-43 -381q-12 2 -28.5 6t-35 6t-35 4t-26.5 2q-43 0 -84 -13t-75 -32.5t-61.5 -42t-43.5 -41.5q-4 -4 -5.5 -41t-2.5 -94v-59.5v-66.5q1 -69 1 -135.5 t1 -122.5t3 -87h-346q-6 94 -9 232.5t-6 292t-4 309t-3 288.5z" />
<glyph unicode="s" horiz-adv-x="995" d="M72 70l47 321q31 -18 69.5 -37.5t81.5 -35t85 -24.5t77 -9q31 0 62.5 9t31.5 50q0 29 -32.5 56.5t-83 58t-108.5 66.5t-108.5 81t-83 99.5t-32.5 123.5q0 76 34.5 136.5t90 103.5t126 65.5t142.5 22.5q106 0 209.5 -13.5t204.5 -47.5l-54 -275q-61 23 -124.5 43.5 t-131.5 20.5q-16 0 -37.5 -2t-40 -8.5t-30.5 -19.5t-12 -36q0 -20 33.5 -43.5t84 -53.5t108.5 -68t108.5 -88t84 -114.5t33.5 -146.5q0 -66 -29.5 -126t-77.5 -105t-110.5 -72t-126.5 -27q-135 0 -251.5 20.5t-239.5 74.5z" />
<glyph unicode="t" horiz-adv-x="1011" d="M18 797v58v43v65t2 122h242l6 289l328 103l-14 -392h327q6 -47 7.5 -91t1.5 -93l-3 -96h-344q-4 -76 -7 -148.5t-3 -148.5q0 -43 5 -79t22.5 -63.5t48.5 -43t82 -15.5q45 0 88 14.5t84 34.5l70 -311q-92 -33 -183.5 -53.5t-187.5 -20.5q-102 0 -171 34t-109 92.5t-56 137 t-16 168.5q0 102 5 199.5t9 200.5z" />
<glyph unicode="u" horiz-adv-x="1200" d="M74 750q6 184 14 374h326q-2 -29 -4 -89t-3 -135t-1 -156.5t2 -151.5q0 -39 7 -81t22.5 -78t41 -59.5t66.5 -23.5q68 0 131 43t96 99l-10 632h332l2 -1130l-314 12l2 156q-45 -92 -142 -137t-210 -45q-84 0 -143.5 34.5t-100.5 91t-64.5 127t-31.5 142.5q-19 153 -19 303 q0 36 1 72z" />
<glyph unicode="v" horiz-adv-x="1157" d="M14 1092q39 8 90.5 16t102.5 14t95 10.5t71 8.5q6 -27 17 -71l23.5 -94t25 -100.5t24.5 -89.5q10 -31 29.5 -92t42.5 -121q25 -72 55 -151q31 88 53 168q20 68 38.5 133t27.5 98l71 309l334 -20q-8 -31 -22.5 -81t-34 -115.5t-42 -140.5t-48.5 -155q-31 -96 -69 -193 t-71.5 -183t-62.5 -150.5t-41 -95.5l-301 4q-27 45 -62.5 124t-76.5 177t-83 206.5t-79 215t-65.5 202t-41.5 167.5z" />
<glyph unicode="w" horiz-adv-x="1767" d="M29 1069q39 10 90 21.5t100 20.5t93 17.5t69 12.5l57 -350q6 -31 22.5 -93.5t35.5 -124.5q23 -72 47 -153q23 90 45 170q16 68 33.5 134.5t23.5 98.5l60 310q25 -2 68.5 -3.5t91.5 -2.5t89 -2t58 -1q6 -25 15 -65.5t18.5 -84.5t19.5 -87t20 -74q10 -35 35 -101.5 t49 -131.5q29 -78 62 -166q20 92 41 174q16 70 32.5 136.5t22.5 98.5q6 33 15.5 77t17.5 88t15 82t11 63l330 -15q-8 -31 -20.5 -82t-29.5 -116.5t-37.5 -140t-43.5 -154.5q-29 -96 -60.5 -194.5t-60 -184.5t-52 -151.5t-34.5 -96.5l-325 2q-16 37 -39 92t-49.5 122 t-54 141.5t-54.5 152.5q-25 -86 -51.5 -167t-49 -148.5t-42 -118.5t-27.5 -76l-324 -2q-20 45 -50.5 123t-64.5 174t-69 203.5t-65.5 211t-53 197.5t-30.5 164z" />
<glyph unicode="x" horiz-adv-x="1153" d="M33 29l332 512q-98 156 -185.5 305t-146.5 270l377 19q20 -59 58 -134t89 -161l182 284h340l-352 -557q96 -145 194.5 -286.5t176.5 -253.5l-369 -43q-43 61 -91 133.5t-101 152.5l-181 -288q-29 6 -76 13t-96 13z" />
<glyph unicode="y" horiz-adv-x="1226" d="M18 1120l353 6q6 -27 21.5 -79t34.5 -117.5t43 -137t47.5 -137t45 -119t39.5 -79.5q31 76 57 145q23 59 46.5 124t35.5 108q8 33 20.5 74.5t25 83.5t21.5 80t15 61l383 -15q-10 -31 -25.5 -81t-37 -113.5t-48 -137t-57.5 -149.5q-27 -66 -73.5 -171.5t-104 -226 t-119 -247.5t-116 -237.5t-96.5 -194.5t-60 -119l-375 70q18 27 40 62.5t46.5 77.5t50 87t50.5 88q55 100 114 213q-27 55 -49 108q-20 47 -40.5 96.5t-37.5 88.5q-33 80 -69.5 185.5t-70.5 215t-63.5 212t-46.5 175.5z" />
<glyph unicode="z" horiz-adv-x="1107" d="M80 170l145 190q27 35 68 94.5t86 127t86 133t65 110.5l-421 -8l-5 309l859 -2l45 -168q-23 -31 -56.5 -76.5t-64.5 -93.5q-20 -33 -68.5 -107.5t-99.5 -152.5q-59 -92 -129 -196q96 2 178 4q72 2 141.5 3t104.5 1l-23 -342q-23 4 -66.5 5t-93.5 5q-27 2 -83 3t-127.5 1 t-151.5 -1t-151.5 -2t-130 -2t-87.5 -1z" />
<glyph unicode="{" horiz-adv-x="755" d="M43 639v164q45 2 74.5 2t47 8t25 31.5t7.5 73.5q0 76 -9.5 150.5t-9.5 150.5t16.5 142t52.5 115.5t93 78t141 28.5q59 0 117.5 -15.5t106.5 -49.5l-37 -175q-29 10 -58.5 15.5t-58.5 5.5q-61 0 -70.5 -30.5t-9.5 -84.5q0 -76 9 -150.5t9 -150.5q0 -66 -28.5 -126 t-75.5 -103q63 -43 82.5 -113.5t19.5 -142.5q0 -66 -6 -129.5t-6 -128.5q0 -29 1 -51.5t9.5 -38t26.5 -24.5t51 -9q27 0 52.5 5t52.5 13l45 -172q-49 -41 -108.5 -64.5t-125.5 -23.5q-82 0 -139 31t-93 83t-52.5 119.5t-16.5 139.5q0 82 11.5 163t11.5 165q0 41 -12.5 61.5 t-34 27.5t-50 7t-61.5 2z" />
<glyph unicode="|" horiz-adv-x="460" d="M102 -135v1710h258v-1710h-258z" />
<glyph unicode="}" horiz-adv-x="755" d="M31 -72l45 172q27 -8 52.5 -13t51.5 -5q33 0 51.5 9t26.5 24.5t9 38t1 51.5q0 66 -6 129t-6 129q0 72 19.5 142.5t82.5 113.5q-47 43 -75.5 103.5t-28.5 125.5q0 76 9 151t9 150q0 53 -9 84t-70 31q-29 0 -59 -5t-58 -16l-37 175q47 35 105.5 50t117.5 15 q82 0 140.5 -28.5t94 -78t52 -116t16.5 -141.5q0 -76 -9 -151t-9 -150q0 -49 7 -73t24.5 -32t47 -8t74.5 -2v-164q-33 -2 -61.5 -2t-50 -7t-33.5 -27.5t-12 -61.5q0 -84 11 -165t11 -163q0 -72 -16.5 -139.5t-52 -119.5t-93 -83t-139.5 -31q-66 0 -125 23.5t-108 64.5z" />
<glyph unicode="~" horiz-adv-x="1079" d="M57 1085q4 25 23.5 80.5t55.5 112.5t89.5 100t122.5 43q49 0 95 -23.5t90.5 -53t86.5 -53t78 -23.5q55 0 102.5 37.5t82.5 95.5l141 -80q-8 -27 -34.5 -77t-67.5 -99t-96.5 -86t-120.5 -37q-55 0 -104.5 23.5t-92.5 51t-80 51t-66 23.5q-59 0 -98 -38.5t-67 -104.5z" />
<glyph unicode="&#xa1;" horiz-adv-x="647" d="M86 -90l55 1028l293 -25l78 -983zM121 1237q0 72 52 120t126 48t126 -48t52 -120q0 -37 -14 -69.5t-38 -57.5t-56.5 -40t-69.5 -15t-69.5 15t-56 40t-38 57.5t-14.5 69.5z" />
<glyph unicode="&#xa2;" horiz-adv-x="946" d="M55 776q0 78 24.5 148.5t67.5 128t102.5 98.5t129.5 61v236h231v-234q76 -12 150 -60t104 -134l-192 -146q-14 53 -66.5 85t-97.5 32q-90 0 -135 -63.5t-45 -151.5t51 -148.5t129 -60.5q59 0 108.5 25.5t65.5 73.5l164 -156q-59 -74 -114.5 -112t-121.5 -58v-227h-231 v229q-70 18 -129.5 60t-102.5 98.5t-67.5 127t-24.5 148.5z" />
<glyph unicode="&#xa3;" horiz-adv-x="1159" d="M27 610v172l172 -4q4 49 0 99.5t-4 99.5q0 98 25.5 181t77.5 144.5t130 96.5t182 35q66 0 115 -7.5t90 -25t76 -43t70 -62.5l-82 -209q-33 39 -75 69t-89 30q-84 0 -127 -42t-59.5 -104.5t-15.5 -133t5 -128.5l189 4v-172h-191q-2 -27 -1 -69.5t2 -88.5t3 -89.5t4 -69.5 h537v-293h-907q29 104 40 207.5t11 210.5q0 96 -6 192h-172z" />
<glyph unicode="&#xa7;" horiz-adv-x="1007" d="M23 674q-6 80 15 147.5t77 126.5l18 17q-14 31 -20.5 63.5t-6.5 63.5q0 33 8.5 76.5t35 90t78 89.5t137.5 73q47 16 102 21.5t110.5 -0.5t106.5 -22.5t92 -43.5l12 -274q-10 12 -43.5 34.5t-77.5 43t-91.5 32t-83.5 0.5q-37 -10 -55.5 -28.5t-22.5 -39t2 -40t22 -31.5 q33 -2 87.5 -16.5t110.5 -35t105.5 -45t71.5 -48.5q29 -29 54.5 -81.5t29.5 -105.5q6 -78 -15.5 -144.5t-76.5 -123.5l-17 -16q25 -61 25 -127q0 -35 -7 -79t-34 -90t-78 -89t-137 -74q-47 -16 -102.5 -21.5t-111.5 1t-108.5 22.5t-93.5 43l-8 276q8 -14 42 -35.5t78 -39 t91 -26.5t84 1t55.5 26.5t22.5 35t-3 36t-24 29.5q-31 2 -85 16.5t-110.5 35t-105.5 45t-74 49.5q-29 29 -53 80t-28 102zM273.5 732.5q5.5 -27.5 20.5 -51.5t42 -34q66 -29 134 -36t134 -17q18 16 23.5 43t-0.5 54.5t-23.5 51t-42.5 33.5q-68 29 -127 38t-131 13 q-20 -16 -27.5 -41.5t-2 -53z" />
<glyph unicode="&#xa8;" horiz-adv-x="882" d="M59 1350q0 61 41 109t119 48t119 -48t41 -109q0 -59 -41 -102.5t-119 -43.5q-80 0 -120 43t-40 103zM489 1350q0 61 41 109t119 48t119 -48t41 -109q0 -59 -41 -102.5t-119 -43.5q-80 0 -120 43t-40 103z" />
<glyph unicode="&#xa9;" horiz-adv-x="1400" d="M23 662q0 141 53 266t144 218t213 147.5t261 54.5t262 -54.5t214.5 -147.5t144.5 -218t53 -266t-53 -266.5t-144.5 -218.5t-214 -147.5t-262.5 -54.5q-139 0 -261 54.5t-213 147.5t-144 218t-53 267zM133 662q0 -119 44 -223.5t121 -182.5t178.5 -123t217.5 -45 q117 0 219.5 45t179 123t120.5 182.5t44 223.5t-44 222t-120.5 181t-179 123t-219.5 45t-218 -45t-178 -123t-121 -181.5t-44 -221.5zM340 657q0 80 27.5 148.5t74.5 121t111.5 82t136.5 29.5q45 0 95.5 -13t94.5 -40t76.5 -67.5t44.5 -96.5l-188 -84q-10 45 -45 65.5 t-70 20.5q-53 0 -80.5 -46t-27.5 -120q0 -72 27.5 -115.5t80.5 -43.5q25 0 63 18.5t52 50.5l174 -104q-59 -92 -135 -137t-162 -45q-72 0 -136.5 29.5t-111.5 80.5t-74.5 120t-27.5 146z" />
<glyph unicode="&#xaa;" horiz-adv-x="888" d="M51 1006q0 88 21.5 165.5t64.5 134t108.5 89t153.5 32.5q63 0 112.5 -14t88.5 -35l162 52q0 -37 3 -99.5t7 -139.5t10 -160t12.5 -160.5t12.5 -143t14 -104.5l-258 -15l-14 131q-37 -57 -91.5 -96t-97.5 -39q-70 0 -127 30t-97 84t-62.5 128t-22.5 160zM293 1030 q0 -31 6 -62.5t21.5 -56t39 -40t60.5 -15.5q53 0 85 45t38 117q2 37 -6.5 70.5t-24.5 58t-38.5 40t-49.5 15.5q-55 0 -93 -47t-38 -125z" />
<glyph unicode="&#xab;" horiz-adv-x="1101" d="M57 426v162l478 368v-249l-259 -203l259 -203v-254zM543 426v162l479 368v-249l-258 -203l258 -203v-254z" />
<glyph unicode="&#xad;" horiz-adv-x="686" d="M35 799l559 2l4 -273l-559 -2z" />
<glyph unicode="&#xae;" horiz-adv-x="1400" d="M23 662q0 141 53 266t144 218t213 147.5t261 54.5t262 -54.5t214.5 -147.5t144.5 -218t53 -266t-53 -266.5t-144.5 -218.5t-214 -147.5t-262.5 -54.5q-139 0 -261 54.5t-213 147.5t-144 218t-53 267zM133 662q0 -119 44 -223.5t121 -182.5t178.5 -123t217.5 -45 q117 0 219.5 45t179 123t120.5 182.5t44 223.5t-44 222t-120.5 181t-179 123t-219.5 45t-218 -45t-178 -123t-121 -181.5t-44 -221.5zM414 297q4 70 6 164t2 195.5t-2 201.5t-6 182h272q55 0 110.5 -21.5t98.5 -58t70.5 -87t27.5 -107.5q0 -66 -33.5 -115t-87.5 -82 q39 -66 71 -139.5t48 -132.5h-219q-4 51 -20.5 108.5t-53.5 116.5l-73 -4q0 -27 1 -57.5l2 -61t3 -57.5t2 -45h-219zM624 763q-3 -54 1 -93q31 0 59.5 4t52 15t36.5 28.5t11 46.5q-2 57 -44 81.5t-107 20.5q-6 -49 -9 -103z" />
<glyph unicode="&#xaf;" horiz-adv-x="1210" d="M133 1307v188h942v-188h-942z" />
<glyph unicode="&#xb0;" horiz-adv-x="944" d="M61 1081q0 84 31 157t83 127t124 86t152 32t150.5 -32t122.5 -86t83 -127t31 -157t-31 -156.5t-83 -127t-123 -86t-150 -31.5q-80 0 -152 31.5t-124 86t-83 127t-31 156.5zM256 1081q0 -41 15.5 -77.5t41 -64.5t61.5 -43t77 -15q39 0 74.5 15t61 43t41 64.5t15.5 77.5 t-15.5 78t-41 64.5t-61.5 43t-74 15.5q-41 0 -77 -15.5t-61.5 -43t-41 -64.5t-15.5 -78z" />
<glyph unicode="&#xb4;" horiz-adv-x="1071" d="M264 1210l271 353h323q-27 -35 -81 -94.5t-111 -116.5q-68 -68 -144 -142h-258z" />
<glyph unicode="&#xb6;" horiz-adv-x="1261" d="M55 891q0 109 43 204t112 165.5t156 110.5t175 40h587q-6 -176 -8 -369.5t-2 -382t2 -359.5t8 -300h-516q2 35 5.5 86t5.5 105.5t1 106.5t-3 89h-84q-86 0 -172 38t-155 105.5t-112 159.5t-43 201zM381 889q0 -53 18.5 -95t51 -72t77 -44t97.5 -10q0 39 -1 101t-3.5 129 t-4.5 130.5t-4 104.5q-106 2 -168.5 -68t-62.5 -176zM813 667.5q0 -151.5 3 -301t9 -298.5h107q4 119 6 273.5t2 321t-2 333.5t-6 315h-107q-6 -172 -9 -332t-3 -311.5z" />
<glyph unicode="&#xb7;" horiz-adv-x="507" d="M66 569q0 39 14 76t39.5 63.5t60.5 43t74 16.5t73.5 -16.5t60.5 -43t41 -63.5t15 -76q0 -41 -15 -74.5t-41 -58t-60.5 -39t-73.5 -14.5q-78 0 -133 53t-55 133z" />
<glyph unicode="&#xb8;" horiz-adv-x="1034" d="M254 -332l39 92q31 -18 59 -32q25 -12 53.5 -22.5t55.5 -10.5q35 0 51 17.5t16 45.5q0 29 -38.5 46.5t-92.5 7.5l-43 47l150 190h112l-131 -149q43 2 85 -2t74 -20.5t51.5 -46.5t19.5 -75q0 -90 -73 -128t-179 -38q-41 0 -79 11.5t-67 27.5q-35 16 -63 39z" />
<glyph unicode="&#xba;" horiz-adv-x="833" d="M51 997q0 76 21.5 154t65.5 139.5t112.5 100.5t165.5 36q94 0 159.5 -42t106.5 -103t59.5 -134t20.5 -136t-12.5 -135t-53.5 -133.5t-106.5 -101.5t-167.5 -40q-104 0 -175 38t-114 95.5t-62.5 127t-19.5 134.5zM281 1040q-2 -37 6 -70.5t25.5 -59t41 -41t49.5 -15.5 q53 0 93.5 46t40.5 130q0 31 -7.5 63.5t-22.5 59.5t-40 43t-59 16q-66 0 -95.5 -50t-31.5 -122z" />
<glyph unicode="&#xbb;" horiz-adv-x="1101" d="M57 47v254l258 203l-258 203v249l478 -368v-162zM543 47v254l258 203l-258 203v249l479 -368v-162z" />
<glyph unicode="&#xbf;" horiz-adv-x="1110" d="M68 315q0 86 25.5 145.5t64.5 104.5t87 76t93 59.5t80 55t51 63.5q10 23 11 42.5t-3 35.5q-4 18 -10 33l297 35q6 -61 8 -119q2 -49 -2 -100.5t-20 -83.5q-25 -45 -78.5 -81t-107.5 -72t-96 -79t-42 -100q0 -61 38 -76.5t95 -15.5q33 0 81 10t100.5 28.5t105.5 43 t94 53.5l61 -353q-90 -35 -172 -59q-72 -23 -148.5 -41t-131.5 -18t-137 13t-159 56t-131 125t-54 219zM414 1231q0 72 52 120t126 48t126 -48t52 -120q0 -37 -14.5 -70t-38 -57.5t-56 -38.5t-69.5 -14t-70 14t-56.5 38.5t-37.5 57.5t-14 70z" />
<glyph unicode="&#xc0;" horiz-adv-x="1359" d="M8 31l228 643q18 51 41.5 117.5t49 138t51 145.5t49.5 138.5t42 116.5t29 81h77h100t104 -1t89 -3q27 -84 63 -192.5t74.5 -229.5t80.5 -249t82 -254t77 -245t68 -219q-96 -16 -191.5 -26t-191.5 -27q-6 78 -19.5 139.5t-31.5 137.5l-445 4q-18 -70 -35 -127 q-14 -49 -25.5 -97.5t-15.5 -66.5zM215 1839h313l267 -338h-252q-74 72 -140 137q-55 55 -109 111.5t-79 89.5zM502 543h336l-146 579z" />
<glyph unicode="&#xc1;" horiz-adv-x="1359" d="M8 31l228 643q18 51 41.5 117.5t49 138t51 145.5t49.5 138.5t42 116.5t29 81h77h100t104 -1t89 -3q27 -84 63 -192.5t74.5 -229.5t80.5 -249t82 -254t77 -245t68 -219q-96 -16 -191.5 -26t-191.5 -27q-6 78 -19.5 139.5t-31.5 137.5l-445 4q-18 -70 -35 -127 q-14 -49 -25.5 -97.5t-15.5 -66.5zM502 543h336l-146 579zM565 1497l271 352h323q-27 -35 -81 -94t-111 -117q-68 -68 -144 -141h-258z" />
<glyph unicode="&#xc2;" horiz-adv-x="1359" d="M8 31l228 643q18 51 41.5 117.5t49 138t51 145.5t49.5 138.5t42 116.5t29 81h77h100t104 -1t89 -3q27 -84 63 -192.5t74.5 -229.5t80.5 -249t82 -254t77 -245t68 -219q-96 -16 -191.5 -26t-191.5 -27q-6 78 -19.5 139.5t-31.5 137.5l-445 4q-18 -70 -35 -127 q-14 -49 -25.5 -97.5t-15.5 -66.5zM287 1511l303 340h186l297 -340h-289l-98 121l-108 -121h-291zM502 543h336l-146 579z" />
<glyph unicode="&#xc3;" horiz-adv-x="1359" d="M8 31l228 643q18 51 41.5 117.5t49 138t51 145.5t49.5 138.5t42 116.5t29 81h77h100t104 -1t89 -3q27 -84 63 -192.5t74.5 -229.5t80.5 -249t82 -254t77 -245t68 -219q-96 -16 -191.5 -26t-191.5 -27q-6 78 -19.5 139.5t-31.5 137.5l-445 4q-18 -70 -35 -127 q-14 -49 -25.5 -97.5t-15.5 -66.5zM250 1544q2 20 19.5 65.5t48 92.5t75.5 83t105 36q41 0 79.5 -19.5t76.5 -44t73 -44t68 -19.5q47 0 87 31.5t68 78.5l119 -67q-6 -23 -28.5 -64t-57.5 -81t-82 -70.5t-102 -30.5q-47 0 -88 19.5t-78 42t-67.5 42t-55.5 19.5q-51 0 -84 -32 t-57 -85zM502 543h336l-146 579z" />
<glyph unicode="&#xc4;" horiz-adv-x="1343" d="M8 31l228 643q18 51 41.5 117.5t49 138t51 145.5t49.5 138.5t42 116.5t29 81h77h100t104 -1t89 -3q27 -84 63 -192.5t74.5 -229.5t80.5 -249t82 -254t77 -245t68 -219q-96 -16 -191.5 -26t-191.5 -27q-6 78 -19.5 139.5t-31.5 137.5l-445 4q-18 -70 -35 -127 q-14 -49 -25.5 -97.5t-15.5 -66.5zM305 1638q0 61 41 109.5t119 48.5t119 -48.5t41 -109.5q0 -59 -41 -102t-119 -43q-80 0 -120 43t-40 102zM502 543h336l-146 579zM735 1638q0 61 41 109.5t119 48.5t119 -48.5t41 -109.5q0 -59 -41 -102t-119 -43q-80 0 -120 43t-40 102z " />
<glyph unicode="&#xc5;" horiz-adv-x="1335" d="M8 31l228 643q18 51 41.5 117.5t49 138t51 145.5t49.5 138.5t42 116.5t29 81h77h100t104 -1t89 -3q27 -84 63 -192.5t74.5 -229.5t80.5 -249t82 -254t77 -245t68 -219q-96 -16 -191.5 -26t-191.5 -27q-6 78 -19.5 139.5t-31.5 137.5l-445 4q-18 -70 -35 -127 q-14 -49 -25.5 -97.5t-15.5 -66.5zM393 1755q0 51 22.5 97t61.5 80t91.5 53.5t111.5 19.5t111.5 -19.5t91.5 -53.5t61.5 -80t22.5 -97q0 -53 -22.5 -98t-61.5 -80t-91.5 -54.5t-111.5 -19.5t-111.5 19.5t-91.5 54.5t-61.5 80t-22.5 98zM502 543h336l-146 579zM573 1755 q0 -47 31 -78.5t76 -31.5q41 0 71.5 31.5t30.5 78.5t-30.5 78t-71.5 31q-45 0 -76 -31t-31 -78z" />
<glyph unicode="&#xc7;" horiz-adv-x="1216" d="M66 748q0 147 54 274t143 219t200.5 145.5t228.5 53.5q113 0 216.5 -11.5t217.5 -39.5q-4 -23 -15 -77.5t-24 -111.5q-14 -68 -32 -143l-62 20q-49 16 -110.5 30.5t-114.5 6.5q-66 -10 -126 -36.5t-106.5 -71.5t-74 -108.5t-27.5 -147.5q0 -74 21.5 -135.5t57.5 -109.5 t83 -80t100 -48q82 -25 166 -4.5t148 53.5l137 -328q-25 -16 -64 -36.5t-84 -40t-94 -33t-94 -13.5q-23 0 -42 1t-42 4l-65 -76q43 2 84.5 -2t73.5 -20.5t51.5 -46.5t19.5 -75q0 -90 -73 -128t-179 -38q-41 0 -79 11.5t-66 27.5q-35 16 -64 39l39 92q31 -18 59 -32 q25 -12 53.5 -22.5t55.5 -10.5q35 0 51.5 17.5t16.5 45.5q0 29 -39 46.5t-93 7.5l-43 47l103 131q-117 23 -220.5 78t-180 148t-121.5 224t-45 304z" />
<glyph unicode="&#xc8;" horiz-adv-x="1146" d="M111 1401q236 8 465 12t464 4v-327q-25 2 -71.5 3t-97 2t-95.5 1h-67q-27 -2 -70 -3t-84 -3q-49 -2 -102 -5l4 -229q49 2 92 6q37 4 75 6t58 4q29 2 71 4.5t74 0.5l15 -287q-27 -6 -72 -11.5t-96 -7.5t-103.5 -2h-93.5v-209h570v-364q-43 0 -120 1t-160 2t-160 1h-120 l-368 -6q2 57 3 165.5t-3 256.5q-2 94 -2 211.5t-1 247t-2 264.5t-3 262zM236 1837h313l266 -338h-252q-74 72 -139 137q-55 55 -109.5 111.5t-78.5 89.5z" />
<glyph unicode="&#xc9;" horiz-adv-x="1146" d="M111 1401q236 8 465 12t464 4v-327q-25 2 -71.5 3t-97 2t-95.5 1h-67q-27 -2 -70 -3t-84 -3q-49 -2 -102 -5l4 -229q49 2 92 6q37 4 75 6t58 4q29 2 71 4.5t74 0.5l15 -287q-27 -6 -72 -11.5t-96 -7.5t-103.5 -2h-93.5v-209h570v-364q-43 0 -120 1t-160 2t-160 1h-120 l-368 -6q2 57 3 165.5t-3 256.5q-2 94 -2 211.5t-1 247t-2 264.5t-3 262zM350 1493l271 352h323q-27 -35 -81 -94t-111 -117q-68 -68 -144 -141h-258z" />
<glyph unicode="&#xca;" horiz-adv-x="1146" d="M111 1401q236 8 465 12t464 4v-327q-25 2 -71.5 3t-97 2t-95.5 1h-67q-27 -2 -70 -3t-84 -3q-49 -2 -102 -5l4 -229q49 2 92 6q37 4 75 6t58 4q29 2 71 4.5t74 0.5l15 -287q-27 -6 -72 -11.5t-96 -7.5t-103.5 -2h-93.5v-209h570v-364q-43 0 -120 1t-160 2t-160 1h-120 l-368 -6q2 57 3 165.5t-3 256.5q-2 94 -2 211.5t-1 247t-2 264.5t-3 262zM180 1511l303 340h187l297 -340h-289l-98 121l-109 -121h-291z" />
<glyph unicode="&#xcb;" horiz-adv-x="1146" d="M111 1401q236 8 465 12t464 4v-327q-25 2 -71.5 3t-97 2t-95.5 1h-67q-27 -2 -70 -3t-84 -3q-49 -2 -102 -5l4 -229q49 2 92 6q37 4 75 6t58 4q29 2 71 4.5t74 0.5l15 -287q-27 -6 -72 -11.5t-96 -7.5t-103.5 -2h-93.5v-209h570v-364q-43 0 -120 1t-160 2t-160 1h-120 l-368 -6q2 57 3 165.5t-3 256.5q-2 94 -2 211.5t-1 247t-2 264.5t-3 262zM199 1638q0 61 41 109.5t118 48.5q78 0 119 -48.5t41 -109.5q0 -59 -41 -102t-119 -43q-80 0 -119.5 43t-39.5 102zM629 1638q0 61 41 109.5t118 48.5q78 0 119 -48.5t41 -109.5q0 -59 -41 -102 t-119 -43q-80 0 -119.5 43t-39.5 102z" />
<glyph unicode="&#xcc;" horiz-adv-x="647" d="M-51 1837h313l266 -338h-252q-74 72 -139 137q-55 55 -109.5 111.5t-78.5 89.5zM112 1347.5q-1 36.5 1 65.5l393 2l-23 -1415h-344q0 35 -1 91t-3 120.5t-3 133.5t-3 130.5t-3 110.5t-1 73l-12 619q0 33 -1 69.5z" />
<glyph unicode="&#xcd;" horiz-adv-x="647" d="M112 1347.5q-1 36.5 1 65.5l393 2l-23 -1415h-344q0 35 -1 91t-3 120.5t-3 133.5t-3 130.5t-3 110.5t-1 73l-12 619q0 33 -1 69.5zM125 1497l270 352h324q-27 -35 -81 -94t-112 -117q-68 -68 -143 -141h-258z" />
<glyph unicode="&#xce;" horiz-adv-x="647" d="M-98 1511l303 340h186l297 -340h-289l-98 121l-108 -121h-291zM112 1347.5q-1 36.5 1 65.5l393 2l-23 -1415h-344q0 35 -1 91t-3 120.5t-3 133.5t-3 130.5t-3 110.5t-1 73l-12 619q0 33 -1 69.5z" />
<glyph unicode="&#xcf;" horiz-adv-x="647" d="M-76 1634q0 61 41 109.5t119 48.5t119 -48.5t41 -109.5q0 -59 -41 -102t-119 -43q-80 0 -120 43t-40 102zM112 1347.5q-1 36.5 1 65.5l393 2l-23 -1415h-344q0 35 -1 91t-3 120.5t-3 133.5t-3 130.5t-3 110.5t-1 73l-12 619q0 33 -1 69.5zM354 1634q0 61 41 109.5 t119 48.5t119 -48.5t41 -109.5q0 -59 -41 -102t-119 -43q-80 0 -120 43t-40 102z" />
<glyph unicode="&#xd1;" horiz-adv-x="1423" d="M104 -6q0 39 2.5 103.5t4.5 139t3 153.5t3 148.5t2 123v77.5l-13 629q29 6 71 15.5t79 13.5l197 20q16 -23 43.5 -61.5t55.5 -78.5t51.5 -74t31.5 -46t24.5 -35.5t40 -53.5t49 -62.5t52.5 -65.5q61 -78 133 -168q2 121 4 221q0 43 1 86t2 81t1 67.5v44.5v73.5t-4 63.5 l397 18q-4 -25 -5 -48t-3 -48q-2 -14 -4 -67.5t-6 -129t-8 -166.5t-8.5 -179.5t-7.5 -168t-3 -133.5q-2 -63 -3 -132.5t-2 -135t-1 -120v-87.5q-29 -10 -64.5 -18t-58.5 -12l-104 -17l-84 141q-18 31 -70.5 106t-123 172t-149.5 205.5t-149 205.5q6 -104 11 -191 q4 -74 6 -143.5t4 -93.5q0 -23 2 -64t4 -85t3 -84t1 -58v-60q-37 -2 -92 -5t-113.5 -6t-112 -6t-90.5 -5zM307 1561q2 20 19.5 65t48.5 92t76 83t104 36q41 0 80 -19.5t77 -44t72.5 -44t67.5 -19.5q47 0 87 32t69 79l118 -68q-6 -23 -28.5 -63.5t-57 -80.5t-82 -71 t-102.5 -31q-47 0 -88 19.5t-78 42t-67.5 42t-55.5 19.5q-51 0 -83.5 -31.5t-57.5 -85.5z" />
<glyph unicode="&#xd2;" horiz-adv-x="1406" d="M53 653q0 178 49.5 322.5t136.5 248t208.5 159t267.5 55.5q162 0 275.5 -57.5t185 -159t103.5 -241.5t32 -306q0 -152 -43 -279t-128 -219t-213 -143t-300 -51q-141 0 -248 55t-179.5 148.5t-109.5 214t-37 253.5zM379 1837h313l266 -338h-251q-74 72 -140 137 q-55 55 -109.5 111.5t-78.5 89.5zM432 774q-10 -98 7.5 -171t53 -121t83 -72.5t100.5 -26.5q66 -4 113 27.5t76.5 84t44 117.5t14.5 131q0 55 -15.5 120t-46.5 120t-75 91t-101 32q-102 -6 -171 -89t-83 -243z" />
<glyph unicode="&#xd3;" horiz-adv-x="1406" d="M53 653q0 178 49.5 322.5t136.5 248t208.5 159t267.5 55.5q162 0 275.5 -57.5t185 -159t103.5 -241.5t32 -306q0 -152 -43 -279t-128 -219t-213 -143t-300 -51q-141 0 -248 55t-179.5 148.5t-109.5 214t-37 253.5zM432 774q-10 -98 7.5 -171t53 -121t83 -72.5 t100.5 -26.5q66 -4 113 27.5t76.5 84t44 117.5t14.5 131q0 55 -15.5 120t-46.5 120t-75 91t-101 32q-102 -6 -171 -89t-83 -243zM518 1505l270 353h324q-27 -35 -81 -94.5t-111 -116.5q-68 -68 -144 -142h-258z" />
<glyph unicode="&#xd4;" horiz-adv-x="1406" d="M53 653q0 178 49.5 322.5t136.5 248t208.5 159t267.5 55.5q162 0 275.5 -57.5t185 -159t103.5 -241.5t32 -306q0 -152 -43 -279t-128 -219t-213 -143t-300 -51q-141 0 -248 55t-179.5 148.5t-109.5 214t-37 253.5zM328 1505l303 340h186l297 -340h-289l-98 121l-109 -121 h-290zM432 774q-10 -98 7.5 -171t53 -121t83 -72.5t100.5 -26.5q66 -4 113 27.5t76.5 84t44 117.5t14.5 131q0 55 -15.5 120t-46.5 120t-75 91t-101 32q-102 -6 -171 -89t-83 -243z" />
<glyph unicode="&#xd5;" horiz-adv-x="1406" d="M53 653q0 178 49.5 322.5t136.5 248t208.5 159t267.5 55.5q162 0 275.5 -57.5t185 -159t103.5 -241.5t32 -306q0 -152 -43 -279t-128 -219t-213 -143t-300 -51q-141 0 -248 55t-179.5 148.5t-109.5 214t-37 253.5zM303 1559q2 20 19.5 65t48 92t76 83t104.5 36 q41 0 80 -19.5t76.5 -44t72.5 -44t68 -19.5q47 0 87 32t69 79l118 -68q-6 -23 -28.5 -63.5t-57.5 -80.5t-82 -71t-102 -31q-47 0 -88 19.5t-78 42t-67.5 42t-55.5 19.5q-51 0 -84 -31.5t-57 -85.5zM432 774q-10 -98 7.5 -171t53 -121t83 -72.5t100.5 -26.5q66 -4 113 27.5 t76.5 84t44 117.5t14.5 131q0 55 -15.5 120t-46.5 120t-75 91t-101 32q-102 -6 -171 -89t-83 -243z" />
<glyph unicode="&#xd6;" horiz-adv-x="1406" d="M53 653q0 178 49.5 322.5t136.5 248t208.5 159t267.5 55.5q162 0 275.5 -57.5t185 -159t103.5 -241.5t32 -306q0 -152 -43 -279t-128 -219t-213 -143t-300 -51q-141 0 -248 55t-179.5 148.5t-109.5 214t-37 253.5zM350 1630q0 61 41 109.5t119 48.5t119 -48.5t41 -109.5 q0 -59 -41 -102t-119 -43q-80 0 -120 43t-40 102zM432 774q-10 -98 7.5 -171t53 -121t83 -72.5t100.5 -26.5q66 -4 113 27.5t76.5 84t44 117.5t14.5 131q0 55 -15.5 120t-46.5 120t-75 91t-101 32q-102 -6 -171 -89t-83 -243zM780 1630q0 61 41 109.5t119 48.5t119 -48.5 t41 -109.5q0 -59 -41 -102t-119 -43q-80 0 -120 43t-40 102z" />
<glyph unicode="&#xd8;" horiz-adv-x="1406" d="M53 653q0 178 49.5 322.5t136.5 248t208.5 159t267.5 55.5q29 0 54.5 -2t49.5 -6l51 135l277 -11l-84 -217q133 -98 190.5 -269t57.5 -394q0 -152 -43 -279t-128 -219t-213 -143t-300 -51q-43 0 -80 6l-53 -142l-277 11l86 225q-123 92 -186.5 244.5t-63.5 326.5z M432 774q-8 -84 3 -146.5t34 -109.5l225 588h-8q-102 -6 -171 -89t-83 -243zM698 383q59 2 102.5 36t71 85t40 114.5t12.5 124.5q0 35 -7.5 76t-19.5 82z" />
<glyph unicode="&#xd9;" horiz-adv-x="1337" d="M82 530q0 217 5 437.5t-5 437.5q78 4 152.5 7t152.5 3h88v-39q0 -150 -8 -300t-8 -302q0 -49 -4 -118.5t6 -134t43 -110.5t104 -46q80 0 124 50t63.5 124.5t23.5 161.5t4 161q0 135 -8 272.5t-14 272.5l411 14q2 -233 4.5 -455.5t-12.5 -471.5q-6 -109 -62.5 -203 t-142.5 -164t-190 -110t-205 -40q-141 0 -239.5 37t-162 108t-92 173t-28.5 235zM211 1835h313l267 -338h-252q-74 72 -140 137q-55 55 -109 111.5t-79 89.5z" />
<glyph unicode="&#xda;" horiz-adv-x="1337" d="M82 530q0 217 5 437.5t-5 437.5q78 4 152.5 7t152.5 3h88v-39q0 -150 -8 -300t-8 -302q0 -49 -4 -118.5t6 -134t43 -110.5t104 -46q80 0 124 50t63.5 124.5t23.5 161.5t4 161q0 135 -8 272.5t-14 272.5l411 14q2 -233 4.5 -455.5t-12.5 -471.5q-6 -109 -62.5 -203 t-142.5 -164t-190 -110t-205 -40q-141 0 -239.5 37t-162 108t-92 173t-28.5 235zM440 1497l271 352h323q-27 -35 -81 -94t-111 -117q-68 -68 -144 -141h-258z" />
<glyph unicode="&#xdb;" horiz-adv-x="1337" d="M82 530q0 217 5 437.5t-5 437.5q78 4 152.5 7t152.5 3h88v-39q0 -150 -8 -300t-8 -302q0 -49 -4 -118.5t6 -134t43 -110.5t104 -46q80 0 124 50t63.5 124.5t23.5 161.5t4 161q0 135 -8 272.5t-14 272.5l411 14q2 -233 4.5 -455.5t-12.5 -471.5q-6 -109 -62.5 -203 t-142.5 -164t-190 -110t-205 -40q-141 0 -239.5 37t-162 108t-92 173t-28.5 235zM250 1511l303 340h186l297 -340h-288l-99 121l-108 -121h-291z" />
<glyph unicode="&#xdc;" horiz-adv-x="1337" d="M82 530q0 217 5 437.5t-5 437.5q78 4 152.5 7t152.5 3h88v-39q0 -150 -8 -300t-8 -302q0 -49 -4 -118.5t6 -134t43 -110.5t104 -46q80 0 124 50t63.5 124.5t23.5 161.5t4 161q0 135 -8 272.5t-14 272.5l411 14q2 -233 4.5 -455.5t-12.5 -471.5q-6 -109 -62.5 -203 t-142.5 -164t-190 -110t-205 -40q-141 0 -239.5 37t-162 108t-92 173t-28.5 235zM279 1638q0 61 40.5 109.5t118.5 48.5t119 -48.5t41 -109.5q0 -59 -41 -102t-119 -43q-80 0 -119.5 43t-39.5 102zM709 1638q0 61 41 109.5t118 48.5q78 0 119 -48.5t41 -109.5 q0 -59 -41 -102t-119 -43q-80 0 -119.5 43t-39.5 102z" />
<glyph unicode="&#xe0;" d="M57 547q0 125 31 233.5t92.5 188.5t152.5 125t212 45q92 0 161.5 -19.5t122.5 -46.5l226 70q2 -51 6 -139.5t9 -195t13.5 -223t16.5 -226t17 -200.5t20 -147l-363 -22l-18 184q-27 -41 -59.5 -74.5t-67.5 -59.5t-70 -40t-65 -14q-98 0 -179.5 42t-137.5 117.5t-88 178 t-32 223.5zM223 1550h314l266 -338h-252q-74 72 -139 138q-55 55 -109.5 111.5t-79.5 88.5zM379 582q0 -49 9 -97.5t32.5 -86.5t61.5 -62.5t93 -24.5q84 0 134.5 71.5t56.5 182.5q2 55 -10.5 107.5t-38 92.5t-60 63.5t-77.5 23.5q-86 0 -143.5 -73.5t-57.5 -196.5z" />
<glyph unicode="&#xe1;" d="M57 547q0 125 31 233.5t92.5 188.5t152.5 125t212 45q92 0 161.5 -19.5t122.5 -46.5l226 70q2 -51 6 -139.5t9 -195t13.5 -223t16.5 -226t17 -200.5t20 -147l-363 -22l-18 184q-27 -41 -59.5 -74.5t-67.5 -59.5t-70 -40t-65 -14q-98 0 -179.5 42t-137.5 117.5t-88 178 t-32 223.5zM379 582q0 -49 9 -97.5t32.5 -86.5t61.5 -62.5t93 -24.5q84 0 134.5 71.5t56.5 182.5q2 55 -10.5 107.5t-38 92.5t-60 63.5t-77.5 23.5q-86 0 -143.5 -73.5t-57.5 -196.5zM408 1214l270 353h323q-27 -35 -81 -94.5t-111 -116.5q-68 -68 -143 -142h-258z" />
<glyph unicode="&#xe2;" d="M57 547q0 125 31 233.5t92.5 188.5t152.5 125t212 45q92 0 161.5 -19.5t122.5 -46.5l226 70q2 -51 6 -139.5t9 -195t13.5 -223t16.5 -226t17 -200.5t20 -147l-363 -22l-18 184q-27 -41 -59.5 -74.5t-67.5 -59.5t-70 -40t-65 -14q-98 0 -179.5 42t-137.5 117.5t-88 178 t-32 223.5zM213 1223l303 340h186l297 -340h-288l-99 120l-108 -120h-291zM379 582q0 -49 9 -97.5t32.5 -86.5t61.5 -62.5t93 -24.5q84 0 134.5 71.5t56.5 182.5q2 55 -10.5 107.5t-38 92.5t-60 63.5t-77.5 23.5q-86 0 -143.5 -73.5t-57.5 -196.5z" />
<glyph unicode="&#xe3;" d="M57 547q0 125 31 233.5t92.5 188.5t152.5 125t212 45q92 0 161.5 -19.5t122.5 -46.5l226 70q2 -51 6 -139.5t9 -195t13.5 -223t16.5 -226t17 -200.5t20 -147l-363 -22l-18 184q-27 -41 -59.5 -74.5t-67.5 -59.5t-70 -40t-65 -14q-98 0 -179.5 42t-137.5 117.5t-88 178 t-32 223.5zM186 1274q2 20 19.5 65t48.5 92.5t76 83t104 35.5q41 0 80 -19.5t77 -44t72.5 -44t67.5 -19.5q47 0 87 32t69 79l119 -68q-6 -23 -29 -63.5t-57.5 -80.5t-81.5 -70.5t-103 -30.5q-47 0 -88 19.5t-78 42t-67.5 41.5t-55.5 19q-51 0 -83.5 -31.5t-57.5 -84.5z M379 582q0 -49 9 -97.5t32.5 -86.5t61.5 -62.5t93 -24.5q84 0 134.5 71.5t56.5 182.5q2 55 -10.5 107.5t-38 92.5t-60 63.5t-77.5 23.5q-86 0 -143.5 -73.5t-57.5 -196.5z" />
<glyph unicode="&#xe4;" d="M57 547q0 125 31 233.5t92.5 188.5t152.5 125t212 45q92 0 161.5 -19.5t122.5 -46.5l226 70q2 -51 6 -139.5t9 -195t13.5 -223t16.5 -226t17 -200.5t20 -147l-363 -22l-18 184q-27 -41 -59.5 -74.5t-67.5 -59.5t-70 -40t-65 -14q-98 0 -179.5 42t-137.5 117.5t-88 178 t-32 223.5zM231 1370q0 61 41 109.5t119 48.5t119 -48.5t41 -109.5q0 -59 -41 -102t-119 -43q-80 0 -120 43t-40 102zM379 582q0 -49 9 -97.5t32.5 -86.5t61.5 -62.5t93 -24.5q84 0 134.5 71.5t56.5 182.5q2 55 -10.5 107.5t-38 92.5t-60 63.5t-77.5 23.5 q-86 0 -143.5 -73.5t-57.5 -196.5zM662 1370q0 61 40.5 109.5t118.5 48.5t119 -48.5t41 -109.5q0 -59 -41 -102t-119 -43q-80 0 -119.5 43t-39.5 102z" />
<glyph unicode="&#xe5;" d="M57 547q0 125 31 233.5t92.5 188.5t152.5 125t212 45q92 0 161.5 -19.5t122.5 -46.5l226 70q2 -51 6 -139.5t9 -195t13.5 -223t16.5 -226t17 -200.5t20 -147l-363 -22l-18 184q-27 -41 -59.5 -74.5t-67.5 -59.5t-70 -40t-65 -14q-98 0 -179.5 42t-137.5 117.5t-88 178 t-32 223.5zM322 1466q0 51 22.5 97.5t61 80t91 53t111.5 19.5t111.5 -19.5t91.5 -53t61.5 -80t22.5 -97.5q0 -53 -22.5 -98t-61.5 -80t-91 -54.5t-112 -19.5q-59 0 -111.5 19.5t-91 54.5t-61 80t-22.5 98zM379 582q0 -49 9 -97.5t32.5 -86.5t61.5 -62.5t93 -24.5 q84 0 134.5 71.5t56.5 182.5q2 55 -10.5 107.5t-38 92.5t-60 63.5t-77.5 23.5q-86 0 -143.5 -73.5t-57.5 -196.5zM502 1466q0 -47 30.5 -78.5t75.5 -31.5q41 0 72 31.5t31 78.5t-31 78t-72 31q-45 0 -75.5 -31t-30.5 -78z" />
<glyph unicode="&#xe7;" horiz-adv-x="1048" d="M68 537q0 125 27.5 236.5t88 194.5t155.5 130t232 45q115 -2 215.5 -41t159.5 -103l-196 -192q-16 18 -42 31.5t-53.5 20.5t-52 10t-41.5 1q-88 -10 -129 -79.5t-47 -186.5q-2 -55 11.5 -107.5t38 -92t57 -64.5t69.5 -25q57 0 105.5 13.5t111.5 66.5l178 -209 q-18 -23 -53 -55.5t-83 -63t-105.5 -55t-118.5 -30.5l-72 -82q43 2 85 -2t74 -20.5t51.5 -46.5t19.5 -75q0 -90 -73 -128t-179 -38q-41 0 -79 11.5t-67 27.5q-35 16 -63 39l39 92q31 -18 59 -32q25 -12 53.5 -22.5t55.5 -10.5q35 0 51 17.5t16 45.5q0 29 -39 46.5t-92 7.5 l-43 47l96 125q-115 10 -195.5 61t-130.5 127t-72.5 171t-22.5 194z" />
<glyph unicode="&#xe8;" horiz-adv-x="1095" d="M68 563q0 117 29.5 222.5t88 185.5t147.5 127t206 47q137 0 229 -47t147.5 -128t79 -188.5t23.5 -228.5l-621 -123q25 -70 78 -102.5t121 -32.5q63 0 125.5 18.5t107.5 61.5l168 -189q-72 -86 -174 -146t-225 -60q-272 0 -401 150.5t-129 432.5zM158 1550h313l266 -338 h-252q-74 72 -139 138q-55 55 -109.5 111.5t-78.5 88.5zM381 680l356 68q-10 61 -54 104t-110 43q-90 0 -141 -62.5t-51 -152.5z" />
<glyph unicode="&#xe9;" horiz-adv-x="1095" d="M68 563q0 117 29.5 222.5t88 185.5t147.5 127t206 47q137 0 229 -47t147.5 -128t79 -188.5t23.5 -228.5l-621 -123q25 -70 78 -102.5t121 -32.5q63 0 125.5 18.5t107.5 61.5l168 -189q-72 -86 -174 -146t-225 -60q-272 0 -401 150.5t-129 432.5zM322 1212l270 353h323 q-27 -35 -81 -94.5t-111 -116.5q-68 -68 -143 -142h-258zM381 680l356 68q-10 61 -54 104t-110 43q-90 0 -141 -62.5t-51 -152.5z" />
<glyph unicode="&#xea;" horiz-adv-x="1095" d="M68 563q0 117 29.5 222.5t88 185.5t147.5 127t206 47q137 0 229 -47t147.5 -128t79 -188.5t23.5 -228.5l-621 -123q25 -70 78 -102.5t121 -32.5q63 0 125.5 18.5t107.5 61.5l168 -189q-72 -86 -174 -146t-225 -60q-272 0 -401 150.5t-129 432.5zM154 1223l303 340h186 l297 -340h-289l-98 120l-109 -120h-290zM381 680l356 68q-10 61 -54 104t-110 43q-90 0 -141 -62.5t-51 -152.5z" />
<glyph unicode="&#xeb;" horiz-adv-x="1095" d="M68 563q0 117 29.5 222.5t88 185.5t147.5 127t206 47q137 0 229 -47t147.5 -128t79 -188.5t23.5 -228.5l-621 -123q25 -70 78 -102.5t121 -32.5q63 0 125.5 18.5t107.5 61.5l168 -189q-72 -86 -174 -146t-225 -60q-272 0 -401 150.5t-129 432.5zM176 1374q0 61 41 109.5 t119 48.5t119 -48.5t41 -109.5q0 -59 -41 -102t-119 -43q-80 0 -120 43t-40 102zM381 680l356 68q-10 61 -54 104t-110 43q-90 0 -141 -62.5t-51 -152.5zM606 1374q0 61 41 109.5t119 48.5t119 -48.5t41 -109.5q0 -59 -41 -102t-119 -43q-80 0 -120 43t-40 102z" />
<glyph unicode="&#xec;" horiz-adv-x="579" d="M-76 1548h314l266 -338h-252q-74 72 -139 138q-55 55 -109.5 111.5t-79.5 88.5zM113 1122l331 -10l27 -1116l-356 -4z" />
<glyph unicode="&#xed;" horiz-adv-x="579" d="M102 1217l271 352h323q-27 -35 -81 -94.5t-111 -116.5q-68 -68 -144 -141h-258zM113 1122l331 -10l27 -1116l-356 -4z" />
<glyph unicode="&#xee;" horiz-adv-x="684" d="M-49 1223l303 340h186l297 -340h-288l-99 120l-108 -120h-291zM166 1122l332 -10l26 -1116l-356 -4z" />
<glyph unicode="&#xef;" horiz-adv-x="638" d="M-55 1350q0 61 41 109t118 48q78 0 119 -48t41 -109q0 -59 -41 -102.5t-119 -43.5q-80 0 -119.5 43t-39.5 103zM141 1122l332 -10l27 -1116l-357 -4zM375 1350q0 61 41 109t119 48t118.5 -48t40.5 -109q0 -59 -41 -102.5t-118 -43.5q-80 0 -120 43t-40 103z" />
<glyph unicode="&#xf1;" horiz-adv-x="1189" d="M86 1116l305 -12l6 -170q23 45 60 81t81 60.5t94 37.5t99 13q82 0 145.5 -33.5t107.5 -89t67.5 -127t23.5 -145.5l6 -731l-315 6q0 41 1 96.5t2 111.5t2 111.5t1 96.5q0 43 -1 103.5t-12 116.5t-40 95t-84 39q-39 0 -74 -14t-65.5 -38t-54 -55.5t-38.5 -64.5l17 -614 l-332 -4zM162 1286q2 20 19.5 65.5t48 92.5t75.5 83t105 36q41 0 79.5 -19.5t76.5 -44t73 -44t68 -19.5q47 0 87 31.5t68 78.5l119 -67q-6 -23 -28.5 -64t-57.5 -81t-82 -70.5t-102 -30.5q-47 0 -88 19.5t-78 42t-68 42t-55 19.5q-51 0 -84 -32t-57 -85z" />
<glyph unicode="&#xf2;" horiz-adv-x="1099" d="M43 535q0 106 30.5 216.5t93 198.5t160 143.5t232.5 53.5t228.5 -61.5t150.5 -146.5t84 -189.5t29 -192.5t-18.5 -192.5t-76 -189.5t-150.5 -144.5t-239 -57.5q-147 0 -247.5 53.5t-162 136.5t-88 181t-26.5 191zM195 1561h313l266 -338h-252q-74 72 -139 137 q-55 55 -109.5 111.5t-78.5 89.5zM346 598q-4 -59 11.5 -111.5t42 -93.5t63.5 -64.5t80 -23.5q41 0 78.5 19.5t66.5 55.5t46.5 87.5t17.5 114.5q0 49 -11.5 100t-36 92t-63.5 66.5t-94 25.5q-51 0 -87 -20.5t-60.5 -56t-38 -85t-15.5 -106.5z" />
<glyph unicode="&#xf3;" horiz-adv-x="1099" d="M43 535q0 106 30.5 216.5t93 198.5t160 143.5t232.5 53.5t228.5 -61.5t150.5 -146.5t84 -189.5t29 -192.5t-18.5 -192.5t-76 -189.5t-150.5 -144.5t-239 -57.5q-147 0 -247.5 53.5t-162 136.5t-88 181t-26.5 191zM336 1223l270 352h324q-27 -35 -81 -94.5t-112 -116.5 q-68 -68 -143 -141h-258zM346 598q-4 -59 11.5 -111.5t42 -93.5t63.5 -64.5t80 -23.5q41 0 78.5 19.5t66.5 55.5t46.5 87.5t17.5 114.5q0 49 -11.5 100t-36 92t-63.5 66.5t-94 25.5q-51 0 -87 -20.5t-60.5 -56t-38 -85t-15.5 -106.5z" />
<glyph unicode="&#xf4;" horiz-adv-x="1099" d="M43 535q0 106 30.5 216.5t93 198.5t160 143.5t232.5 53.5t228.5 -61.5t150.5 -146.5t84 -189.5t29 -192.5t-18.5 -192.5t-76 -189.5t-150.5 -144.5t-239 -57.5q-147 0 -247.5 53.5t-162 136.5t-88 181t-26.5 191zM156 1223l303 340h186l297 -340h-289l-98 120l-109 -120 h-290zM346 598q-4 -59 11.5 -111.5t42 -93.5t63.5 -64.5t80 -23.5q41 0 78.5 19.5t66.5 55.5t46.5 87.5t17.5 114.5q0 49 -11.5 100t-36 92t-63.5 66.5t-94 25.5q-51 0 -87 -20.5t-60.5 -56t-38 -85t-15.5 -106.5z" />
<glyph unicode="&#xf5;" horiz-adv-x="1099" d="M43 535q0 106 30.5 216.5t93 198.5t160 143.5t232.5 53.5t228.5 -61.5t150.5 -146.5t84 -189.5t29 -192.5t-18.5 -192.5t-76 -189.5t-150.5 -144.5t-239 -57.5q-147 0 -247.5 53.5t-162 136.5t-88 181t-26.5 191zM119 1276q2 20 19.5 65t48 92.5t75.5 83t105 35.5 q41 0 79.5 -19.5t76.5 -44t73 -44t68 -19.5q47 0 87 32t68 79l119 -68q-6 -23 -28.5 -63.5t-57.5 -80.5t-82 -70.5t-102 -30.5q-47 0 -88 19.5t-78 42t-68 42t-55 19.5q-51 0 -84 -32t-57 -85zM346 598q-4 -59 11.5 -111.5t42 -93.5t63.5 -64.5t80 -23.5q41 0 78.5 19.5 t66.5 55.5t46.5 87.5t17.5 114.5q0 49 -11.5 100t-36 92t-63.5 66.5t-94 25.5q-51 0 -87 -20.5t-60.5 -56t-38 -85t-15.5 -106.5z" />
<glyph unicode="&#xf6;" horiz-adv-x="1099" d="M43 535q0 106 30.5 216.5t93 198.5t160 143.5t232.5 53.5t228.5 -61.5t150.5 -146.5t84 -189.5t29 -192.5t-18.5 -192.5t-76 -189.5t-150.5 -144.5t-239 -57.5q-147 0 -247.5 53.5t-162 136.5t-88 181t-26.5 191zM166 1376q0 61 41 109.5t119 48.5t118.5 -48.5 t40.5 -109.5q0 -59 -41 -102t-118 -43q-80 0 -120 43t-40 102zM346 598q-4 -59 11.5 -111.5t42 -93.5t63.5 -64.5t80 -23.5q41 0 78.5 19.5t66.5 55.5t46.5 87.5t17.5 114.5q0 49 -11.5 100t-36 92t-63.5 66.5t-94 25.5q-51 0 -87 -20.5t-60.5 -56t-38 -85t-15.5 -106.5z M596 1376q0 61 41 109.5t119 48.5t118.5 -48.5t40.5 -109.5q0 -59 -40.5 -102t-118.5 -43q-80 0 -120 43t-40 102z" />
<glyph unicode="&#xf8;" horiz-adv-x="1099" d="M43 535q0 106 30.5 216.5t93 198.5t160 143.5t232.5 53.5q35 0 66 -6l104 274l277 -10l-144 -375q49 -47 84 -104.5t57.5 -121t34 -127t13.5 -120.5q2 -90 -18.5 -192.5t-76 -189.5t-150.5 -144.5t-239 -57.5q-29 0 -55.5 2t-50.5 7l-109 -285l-276 10l147 385 q-49 43 -84 96.5t-56.5 111.5t-30.5 118.5t-9 116.5zM346 598q-4 -74 19 -135l153 401q-86 -12 -127 -87t-45 -179zM588 311q68 18 116 89t48 182q0 57 -17 118z" />
<glyph unicode="&#xf9;" horiz-adv-x="1200" d="M74.5 749.5q5.5 184.5 13.5 374.5h326q-2 -29 -4 -89t-3 -135t-1 -156.5t2 -151.5q0 -39 7 -81t22.5 -78t41 -59.5t66.5 -23.5q68 0 131 43t96 99l-10 632h332l2 -1130l-314 12l2 156q-45 -92 -142 -137t-210 -45q-84 0 -143.5 34.5t-100.5 91t-64.5 127t-31.5 142.5 q-23 190 -17.5 374.5zM193 1550h313l266 -338h-252q-74 72 -139 138q-55 55 -109.5 111.5t-78.5 88.5z" />
<glyph unicode="&#xfa;" horiz-adv-x="1200" d="M74.5 749.5q5.5 184.5 13.5 374.5h326q-2 -29 -4 -89t-3 -135t-1 -156.5t2 -151.5q0 -39 7 -81t22.5 -78t41 -59.5t66.5 -23.5q68 0 131 43t96 99l-10 632h332l2 -1130l-314 12l2 156q-45 -92 -142 -137t-210 -45q-84 0 -143.5 34.5t-100.5 91t-64.5 127t-31.5 142.5 q-23 190 -17.5 374.5zM354 1210l271 353h323q-27 -35 -81 -94.5t-111 -116.5q-68 -68 -144 -142h-258z" />
<glyph unicode="&#xfb;" horiz-adv-x="1200" d="M74.5 749.5q5.5 184.5 13.5 374.5h326q-2 -29 -4 -89t-3 -135t-1 -156.5t2 -151.5q0 -39 7 -81t22.5 -78t41 -59.5t66.5 -23.5q68 0 131 43t96 99l-10 632h332l2 -1130l-314 12l2 156q-45 -92 -142 -137t-210 -45q-84 0 -143.5 34.5t-100.5 91t-64.5 127t-31.5 142.5 q-23 190 -17.5 374.5zM207 1223l303 340h186l297 -340h-288l-99 120l-108 -120h-291z" />
<glyph unicode="&#xfc;" horiz-adv-x="1200" d="M74.5 749.5q5.5 184.5 13.5 374.5h326q-2 -29 -4 -89t-3 -135t-1 -156.5t2 -151.5q0 -39 7 -81t22.5 -78t41 -59.5t66.5 -23.5q68 0 131 43t96 99l-10 632h332l2 -1130l-314 12l2 156q-45 -92 -142 -137t-210 -45q-84 0 -143.5 34.5t-100.5 91t-64.5 127t-31.5 142.5 q-23 190 -17.5 374.5zM219 1372q0 61 41 109.5t119 48.5t119 -48.5t41 -109.5q0 -59 -41 -102t-119 -43q-80 0 -120 43t-40 102zM649 1372q0 61 41 109.5t119 48.5t119 -48.5t41 -109.5q0 -59 -41 -102t-119 -43q-80 0 -120 43t-40 102z" />
<glyph unicode="&#xff;" horiz-adv-x="1241" d="M18 1120l353 6q6 -27 21.5 -79t34.5 -117.5t43 -137t47.5 -137t45 -119t39.5 -79.5q31 76 57 145q23 59 46.5 124t35.5 108q8 33 20.5 74.5t25 83.5t21.5 80t15 61l383 -15q-10 -31 -25.5 -81t-37 -113.5t-48 -137t-57.5 -149.5q-27 -66 -73.5 -171.5t-104 -226 t-119 -247.5t-116 -237.5t-96.5 -194.5t-60 -119l-375 70q18 27 40 62.5t46.5 77.5t50 87t50.5 88q55 100 114 213q-27 55 -49 108q-20 47 -40.5 96.5t-37.5 88.5q-33 80 -69.5 185.5t-70.5 215t-63.5 212t-46.5 175.5zM246 1350q0 61 41 109t119 48t118.5 -48t40.5 -109 q0 -59 -41 -102.5t-118 -43.5q-80 0 -120 43t-40 103zM676 1350q0 61 41 109t119 48t118.5 -48t40.5 -109q0 -59 -41 -102.5t-118 -43.5q-80 0 -120 43t-40 103z" />
<glyph unicode="&#x178;" horiz-adv-x="1329" d="M45 1409q12 0 62.5 2t112 3t121.5 2t93 1q20 -80 53 -169t67 -171t64.5 -150.5t47.5 -107.5q23 66 61.5 167t75.5 200q43 113 92 235q23 0 80 -1t120.5 -2t117 -3t69.5 -4q-16 -33 -48 -95.5t-65.5 -130t-65.5 -129t-46 -89.5l-232 -455l13 -514q-20 0 -45 -1t-48.5 -2 t-43 -2t-29.5 -1q-12 0 -35 1t-50.5 2t-56 2t-53.5 1l19 506q-14 39 -44 99.5t-64 127t-67.5 128t-54.5 104.5zM289 1638q0 61 41 109.5t119 48.5t118.5 -48.5t40.5 -109.5q0 -59 -41 -102t-118 -43q-80 0 -120 43t-40 102zM719 1638q0 61 41 109.5t119 48.5t118.5 -48.5 t40.5 -109.5q0 -59 -41 -102t-118 -43q-80 0 -120 43t-40 102z" />
<glyph unicode="&#x2c6;" horiz-adv-x="874" d="M41 1223l303 340h186l297 -340h-288l-99 120l-108 -120h-291z" />
<glyph unicode="&#x2dc;" horiz-adv-x="1122" d="M162 1294q2 20 19.5 65.5t48 92.5t75.5 83t105 36q41 0 79.5 -19.5t76.5 -44t73 -44t68 -19.5q47 0 87 31.5t68 78.5l119 -67q-6 -23 -28.5 -64t-57.5 -80.5t-82 -70.5t-102 -31q-47 0 -88 19.5t-78 42t-68 42t-55 19.5q-51 0 -84 -32t-57 -85z" />
<glyph unicode="&#x2000;" horiz-adv-x="1002" />
<glyph unicode="&#x2001;" horiz-adv-x="2005" />
<glyph unicode="&#x2002;" horiz-adv-x="1002" />
<glyph unicode="&#x2003;" horiz-adv-x="2005" />
<glyph unicode="&#x2004;" horiz-adv-x="668" />
<glyph unicode="&#x2005;" horiz-adv-x="501" />
<glyph unicode="&#x2006;" horiz-adv-x="334" />
<glyph unicode="&#x2007;" horiz-adv-x="334" />
<glyph unicode="&#x2008;" horiz-adv-x="250" />
<glyph unicode="&#x2009;" horiz-adv-x="401" />
<glyph unicode="&#x200a;" horiz-adv-x="111" />
<glyph unicode="&#x2010;" horiz-adv-x="686" d="M35 799l559 2l4 -273l-559 -2z" />
<glyph unicode="&#x2011;" horiz-adv-x="686" d="M35 799l559 2l4 -273l-559 -2z" />
<glyph unicode="&#x2012;" horiz-adv-x="686" d="M35 799l559 2l4 -273l-559 -2z" />
<glyph unicode="&#x2013;" horiz-adv-x="1177" d="M29 506v190h1097v-190h-1097z" />
<glyph unicode="&#x2014;" horiz-adv-x="1507" d="M10 506v190h1444v-190h-1444z" />
<glyph unicode="&#x2018;" horiz-adv-x="460" d="M57 1133q0 72 22.5 139t61.5 122.5t87 98.5t102 66l47 -107q-16 -10 -49 -39t-65 -62.5t-52.5 -67.5t-9.5 -58q16 8 43 8q53 0 77.5 -48t24.5 -104q0 -72 -43 -110.5t-96 -38.5q-72 0 -111 54t-39 147z" />
<glyph unicode="&#x2019;" horiz-adv-x="460" d="M72 1026q14 10 47 39t64.5 62.5t53 67.5t13.5 58q-23 -8 -45 -8q-53 0 -78 48t-25 104q0 72 44 110.5t98 38.5q70 0 109.5 -54t39.5 -146q0 -72 -23.5 -139.5t-61.5 -123t-88 -98.5t-101 -65z" />
<glyph unicode="&#x201a;" horiz-adv-x="430" d="M55 57q14 12 48 40t66 63t52.5 68.5t11.5 58.5q-20 -10 -47 -11q-51 0 -74.5 48.5t-23.5 103.5q0 72 42 112t95 40q72 0 111 -55.5t39 -147.5q0 -72 -22.5 -138.5t-60.5 -122t-88 -98.5t-104 -65z" />
<glyph unicode="&#x201c;" horiz-adv-x="815" d="M57 1133q0 72 22.5 139t61.5 122.5t87 98.5t102 66l47 -107q-16 -10 -49 -39t-65 -62.5t-52.5 -67.5t-9.5 -58q16 8 43 8q53 0 77.5 -48t24.5 -104q0 -72 -43 -110.5t-96 -38.5q-72 0 -111 54t-39 147zM446 1133q0 72 24 139t61.5 122.5t88 98.5t103.5 66l45 -107 q-16 -10 -49 -39t-64.5 -62.5t-52 -67.5t-10.5 -58q16 8 45 8q51 0 74.5 -48t23.5 -104q0 -72 -42 -110.5t-95 -38.5q-72 0 -112 54t-40 147z" />
<glyph unicode="&#x201d;" horiz-adv-x="815" d="M55 1030q14 12 48 40t66 62.5t52.5 68.5t11.5 59q-20 -10 -47 -11q-51 0 -74.5 48.5t-23.5 103.5q0 72 42 111.5t95 39.5q72 0 111 -55t39 -147q0 -72 -22.5 -138.5t-60.5 -122t-88 -98.5t-104 -65zM444 1030q14 12 48 40t66 62.5t52.5 68.5t12.5 59q-18 -10 -43 -11 q-53 0 -78 48.5t-25 103.5q0 72 44 111.5t97 39.5q72 0 110 -55t38 -147q0 -72 -22.5 -138.5t-60.5 -122t-88 -98.5t-103 -65z" />
<glyph unicode="&#x201e;" horiz-adv-x="819" d="M55 57q14 12 48 40t66 63t52.5 68.5t11.5 58.5q-20 -10 -47 -11q-51 0 -74.5 48.5t-23.5 103.5q0 72 42 112t95 40q72 0 111 -55.5t39 -147.5q0 -72 -22.5 -138.5t-60.5 -122t-88 -98.5t-104 -65zM444 57q14 12 48 40t66 63t52.5 68.5t12.5 58.5q-18 -10 -43 -11 q-53 0 -78 48.5t-25 103.5q0 72 44 112t97 40q72 0 110 -55.5t38 -147.5q0 -72 -22.5 -138.5t-60.5 -122t-88 -98.5t-103 -65z" />
<glyph unicode="&#x2022;" horiz-adv-x="741" d="M109 659q0 61 20.5 115.5t55 94.5t80.5 63.5t100 23.5q51 0 98 -23.5t81 -63.5t54 -94.5t20 -115.5t-20 -115.5t-54 -94t-81 -62t-98 -22.5q-53 0 -99.5 22.5t-81 62t-55 94t-20.5 115.5z" />
<glyph unicode="&#x2026;" horiz-adv-x="1566" d="M66 150q0 39 14 75.5t39.5 63t60.5 43t74 16.5t73.5 -16.5t60.5 -43t41 -63t15 -75.5q0 -41 -15 -75t-41 -58.5t-60.5 -39t-73.5 -14.5q-78 0 -133 53.5t-55 133.5zM588 150q0 39 14 75.5t40 63t60.5 43t73.5 16.5t74 -16.5t60.5 -43t41 -63t15.5 -75.5q0 -41 -15.5 -75 t-41 -58.5t-60.5 -39t-74 -14.5q-78 0 -133 53.5t-55 133.5zM1110 150q0 39 14.5 75.5t40 63t60.5 43t73 16.5q39 0 74 -16.5t60.5 -43t41 -63t15.5 -75.5q0 -41 -15.5 -75t-41 -58.5t-60.5 -39t-74 -14.5q-78 0 -133 53.5t-55 133.5z" />
<glyph unicode="&#x202f;" horiz-adv-x="401" />
<glyph unicode="&#x2039;" horiz-adv-x="612" d="M57 426v162l478 368v-249l-259 -203l259 -203v-254z" />
<glyph unicode="&#x203a;" horiz-adv-x="591" d="M57 47v254l258 203l-258 203v249l478 -368v-162z" />
<glyph unicode="&#x205f;" horiz-adv-x="501" />
<glyph unicode="&#x20ac;" horiz-adv-x="1196" d="M29 451l41 190h108q-2 16 -2 31.5v32.5v22t2 23h-143l41 190h137q20 111 79.5 202t143.5 154.5t187.5 98.5t212.5 35q72 0 147.5 -22t136.5 -54l-92 -336q-35 23 -81 32t-91 9q-37 0 -78 -6t-77.5 -20.5t-66.5 -37t-46 -55.5h227l-41 -190h-242q-2 -10 -3 -22.5t-1 -22.5 q0 -33 7 -64h276l-41 -190h-168q41 -61 111.5 -94t142.5 -33q41 0 87 8t79 26l106 -282q-20 -14 -55 -29.5t-77 -29t-84 -22.5t-76 -9q-106 -4 -207 29.5t-184 95t-143 148.5t-85 192h-188z" />
<glyph unicode="&#x2122;" horiz-adv-x="1390" d="M41 1167v168h561v-168h-188q-2 -51 -3 -122.5t-1 -147.5t1 -147.5t3 -122.5h-189q2 49 3 117.5t1 144.5t-1 149.5t-3 128.5h-184zM672 627q4 78 6 171t2 189t-2 186.5t-6 161.5h98q18 -33 45 -79t56.5 -93t59.5 -90t54 -69q27 35 57.5 77.5t60.5 87.5t57.5 88t45.5 78h82 q-4 -76 -5 -169t-1 -188t1 -186.5t5 -164.5h-168q4 57 4 134t-4 134l-147 -197q-27 43 -66 100.5t-67 96.5v-268h-168z" />
<glyph unicode="&#xe000;" horiz-adv-x="1136" d="M0 0v1137h1137v-1137h-1137z" />
</font>
</defs>
</svg>
