<?xml version="1.0" standalone="no"?>
<!DOCTYPE svg PUBLIC "-//W3C//DTD SVG 1.1//EN" "http://www.w3.org/Graphics/SVG/1.1/DTD/svg11.dtd" >
<svg xmlns="http://www.w3.org/2000/svg">
<metadata></metadata>
<defs>
<font id="pbs_kids_subheadbold" horiz-adv-x="1247" >
<font-face units-per-em="2048" ascent="1536" descent="-512" />
<missing-glyph horiz-adv-x="614" />
<glyph horiz-adv-x="2048" />
<glyph horiz-adv-x="2048" />
<glyph unicode="&#xd;" horiz-adv-x="614" />
<glyph unicode=" "  horiz-adv-x="614" />
<glyph unicode="&#x09;" horiz-adv-x="614" />
<glyph unicode="&#xa0;" horiz-adv-x="614" />
<glyph unicode="!" horiz-adv-x="681" d="M48 97.5q5 35.5 25.5 66.5t52.5 50t65.5 18t64.5 -27.5t51 -89.5q4 -12 7 -36t-3 -51.5t-22.5 -54t-52.5 -45.5q-35 -16 -66 -13t-53.5 19.5t-37 41t-16.5 53.5q-20 33 -15 68.5zM74 453q33 242 38 484.5t19 485.5q2 63 25.5 98t54.5 46.5t63.5 1.5t57 -33t34.5 -57.5 t-6 -71.5q4 4 7 4q-14 -248 -20.5 -494.5t-39.5 -494.5q-8 -59 -48 -84t-84 -18.5t-76.5 40t-24.5 93.5z" />
<glyph unicode="&#x22;" horiz-adv-x="800" d="M76 887q-4 117 4 224.5t16 223.5q4 59 43 86t83 24t79 -35t31 -91q-2 -31 -8.5 -92.5t-10.5 -129t-6 -129t4 -91.5q12 -68 -21.5 -104t-80.5 -36t-89 37t-44 113zM465 1090.5q10 119.5 18 242.5q2 59 41 87t83 25t79 -35t33 -89q-8 -117 -17.5 -225.5t0.5 -223.5 q6 -59 -27.5 -91.5t-77.5 -38t-84 20t-46 85.5q-12 123 -2 242.5z" />
<glyph unicode="#" horiz-adv-x="1306" d="M72 440q0 53 35.5 91t91.5 38h86l18 144q0 10 4 30h-78q-49 0 -78.5 30t-29.5 77q0 55 36 92t91 37h90l8 55q4 37 8 76t13 76q10 47 37.5 73.5t76.5 26.5t85 -30.5t36 -84.5q0 -4 -1 -9t-1 -9l-22 -176q51 0 103 -1t103 -1l13 80q4 33 7 65.5t9 63.5q10 47 38 74.5 t77 27.5t85 -31.5t36 -83.5q0 -4 -1 -9t-1 -11q-6 -45 -12.5 -88t-10.5 -88h90q47 0 90 -23.5t43 -79.5q0 -39 -19.5 -64.5t-50 -40.5t-65 -22.5t-65.5 -7.5h-56l-20 -174h94q47 0 90 -23.5t43 -78.5q0 -39 -19.5 -64.5t-50 -41t-65.5 -21.5t-66 -6h-53q-4 -25 -6 -49.5 t-4 -49.5q-2 -23 -2 -47t-4 -47q-6 -51 -35 -83t-82 -32t-87 33t-32 84v8q0 45 3 90.5t7 92.5q-53 0 -103 1t-103 1q-12 -104 -19 -201q-4 -53 -32.5 -86t-84.5 -33q-53 0 -85.5 33t-32.5 84t6 102.5t10 102.5h-78q-49 0 -78.5 29.5t-29.5 78.5zM522 567q53 0 104.5 -1 t104.5 -1q6 43 12.5 87t10.5 85l-209 4q-6 -43 -12.5 -87t-10.5 -87z" />
<glyph unicode="$" horiz-adv-x="1042" d="M3 270q1 68 5 133q0 6 1 13.5t1 13.5q6 61 44 90t82 26t78 -36t32 -94v-66l4 -2q84 -47 168 -61.5t174 26.5q51 23 67.5 51.5t7 55t-39 50.5t-68.5 38q-72 25 -153.5 42t-156.5 47t-132.5 82t-77.5 146q-18 90 4.5 159t72.5 117t120.5 76.5t148.5 41.5l2 143q0 59 38 87 t82 27t80 -32t36 -90l-2 -135l59 -15l49 -16q18 43 58 58.5t80 5t67.5 -44.5t19.5 -87q-10 -57 -15 -121.5t-5 -121.5q0 -59 -36 -89t-80 -30t-82 28.5t-38 87.5v68q-59 29 -118.5 44t-130.5 9q-51 -4 -97.5 -23.5t-69 -47t-11 -58t74.5 -55.5q55 -23 119.5 -38t128 -33.5 t122 -43t101.5 -65.5t67.5 -102.5t18.5 -151.5q-4 -66 -32.5 -117t-72.5 -91t-99.5 -66.5t-114.5 -41.5l-6 -167q-2 -59 -40 -88t-82 -27t-80 32.5t-34 90.5l6 155q-29 6 -58.5 15.5t-58.5 21.5q-18 -33 -52 -47t-69.5 -10t-63.5 29.5t-34 72.5q-10 63 -9 131z" />
<glyph unicode="%" horiz-adv-x="1445" d="M74 930q0 76 23.5 137t64.5 105.5t95 69t116 24.5q68 0 123 -36t92 -92.5t50 -127t-1 -138.5q-18 -84 -67.5 -138t-112 -78.5t-130 -18.5t-124 40t-93 97.5t-36.5 155.5zM266 932q0 -49 32 -68.5t64 -19.5q35 0 55.5 31.5t22.5 74.5q0 18 -4 39t-13 38t-23.5 28.5 t-32.5 11.5q-12 0 -30 -5t-33 -19.5t-26.5 -41t-11.5 -69.5zM278.5 65.5q-14.5 45.5 18.5 94.5l715 1097q33 49 80 54.5t83.5 -19t51 -69.5t-16.5 -95l-716 -1097q-33 -49 -80 -54.5t-84 19t-51.5 70zM831 291q0 76 24 137t65 105.5t95 68t115 23.5q68 0 123.5 -36t92 -92.5 t50 -127t-0.5 -138.5q-18 -84 -67.5 -138t-112 -78.5t-130 -18.5t-124 41t-93.5 98.5t-37 155.5zM1026 281q0 -47 32 -67.5t64 -20.5q35 0 55.5 31.5t24.5 74.5q0 18 -4 38.5t-13 38t-24 29t-35 11.5q-12 0 -29.5 -5t-32.5 -19.5t-26.5 -41t-11.5 -69.5z" />
<glyph unicode="&#x26;" horiz-adv-x="1298" d="M31 418q0 137 71.5 236.5t178.5 170.5q-23 29 -38.5 53.5t-23.5 45.5q-27 59 -26 131q0 74 29.5 141.5t79.5 118.5t116.5 80.5t140.5 29.5q76 0 146.5 -18t125 -56t87 -98.5t32.5 -146.5q0 -70 -25.5 -122t-67.5 -93t-97 -73t-113 -60q49 -53 102.5 -110.5t106.5 -110.5 q25 57 39 113.5t14 105.5q0 94 101 94q29 0 65.5 -8t73.5 -20.5t72.5 -29t60.5 -30.5q29 -16 48.5 -40t19.5 -58q0 -47 -34 -81t-81 -34q-35 0 -65.5 15.5t-59.5 31.5q-16 -57 -37.5 -114.5t-50.5 -112.5q29 -29 53.5 -52.5t40.5 -37.5q29 -29 59.5 -54.5t59.5 -52.5 q23 -20 37 -41.5t14 -54.5q0 -47 -34.5 -83t-84.5 -36q-23 0 -40 7t-35 20q-35 25 -69 57.5t-65 60.5q-14 12 -32.5 30t-38.5 38q-78 -86 -177.5 -139.5t-220.5 -53.5q-92 0 -175 34t-145.5 93.5t-100 140.5t-37.5 173zM270 422q0 -100 65.5 -148.5t160.5 -48.5 q63 0 119.5 30t105.5 81q-72 74 -148.5 154.5t-146.5 158.5q-68 -41 -112 -95t-44 -132zM422 1069q0 -18 10 -43q6 -16 21.5 -37.5t38.5 -50.5l16 6q20 8 54 23.5t65.5 37t54.5 47t23 54.5q0 55 -42 79.5t-92 24.5q-63 0 -106 -37.5t-43 -103.5z" />
<glyph unicode="'" horiz-adv-x="360" d="M47 866q-4 117 4 224.5t17 224.5q4 59 43 85.5t84 23.5t78.5 -35t29.5 -91q-2 -31 -7 -92t-10 -128.5t-6 -129t5 -92.5q12 -68 -23 -103.5t-82 -35.5t-89 37t-44 112z" />
<glyph unicode="(" horiz-adv-x="636" d="M31 680q0 154 45 282t111.5 225t144.5 160.5t145 88.5q55 20 95 -4.5t55.5 -66.5t0 -86.5t-70.5 -64.5q-31 -12 -80 -53t-96 -108.5t-81 -161.5t-34 -211q0 -115 20.5 -193.5t61.5 -140t100.5 -114t137.5 -111.5q45 -37 46 -84t-26.5 -83t-74 -46t-91.5 26 q-98 78 -175 150t-129 157t-78.5 190.5t-26.5 248.5z" />
<glyph unicode=")" horiz-adv-x="675" d="M53 37q0 47 47 84q78 59 137.5 111.5t100.5 114t61.5 140t20.5 193.5q0 117 -34 211t-81 161.5t-96 108.5t-80 53q-55 20 -70.5 64.5t0 86.5t55.5 66.5t95 4.5q68 -25 145.5 -88.5t144 -160.5t111.5 -225t45 -282q0 -143 -26.5 -248.5t-78.5 -190.5t-129 -157t-175 -150 q-47 -37 -92 -26.5t-73 46.5t-28 83z" />
<glyph unicode="*" horiz-adv-x="860" d="M39 982q0 44 29.5 81t89.5 37q16 0 69.5 -17.5t108.5 -35.5q0 37 1 72.5t3 64.5q2 35 2 65q0 59 38 88t82 28t80 -31.5t36 -88.5q0 -29 -3 -59q-2 -29 -3 -62.5t-1 -68.5l162 61q55 20 96 -4.5t56.5 -65t1 -86t-69.5 -65.5l-194 -74q20 -33 42.5 -72.5t42 -76.5t32 -68 t12.5 -47q0 -55 -32 -85t-72 -34t-78 16.5t-50 65.5q-10 16 -28.5 49t-40.5 72l-80 -141q-29 -51 -75 -59.5t-85 13t-56.5 65.5t11.5 95l113 201q-37 14 -69 27.5t-52 21.5q-59 0 -89 37t-30 81z" />
<glyph unicode="+" horiz-adv-x="1095" d="M28 683q-1 44 27.5 82t87.5 38l260 2l5 334q0 59 36.5 87.5t80.5 28.5t81 -29.5t37 -88.5l-4 -330l283 2q59 0 88.5 -36t30.5 -80t-27.5 -82t-87.5 -38l-289 -4l-2 -342q0 -59 -38 -87.5t-82 -28.5t-80 29.5t-36 88.5l2 338l-254 -2q-59 0 -88.5 37t-30.5 81z" />
<glyph unicode="," horiz-adv-x="391" d="M4 -186q2 47 49 82q18 14 33 37.5t25 48.5q-51 33 -66.5 78.5t-3.5 91t48 80t87 44.5q53 10 90 -9t60.5 -49t34 -58.5t10.5 -36.5q6 -35 -2.5 -90.5t-30 -114.5t-57 -115.5t-88.5 -95.5q-47 -35 -92.5 -22.5t-72 47.5t-24.5 82z" />
<glyph unicode="-" horiz-adv-x="747" d="M4 567q0 45 29.5 82t89.5 37h463q59 0 89 -37t30 -82t-30 -81.5t-89 -36.5h-463q-59 0 -89 36.5t-30 81.5z" />
<glyph unicode="." horiz-adv-x="393" d="M49 115q0 76 38 124t116 48q37 0 65.5 -14.5t48 -36t28.5 -48t9 -51.5q0 -27 -10 -53.5t-30.5 -49t-50.5 -36.5t-66 -14q-55 0 -101.5 37.5t-46.5 93.5z" />
<glyph unicode="/" horiz-adv-x="845" d="M-14 -90q0 23 12 51l668 1522q16 37 44.5 54t59.5 17q47 0 85 -32.5t38 -83.5q0 -29 -10 -52l-668 -1521q-16 -39 -45 -55.5t-59 -16.5q-47 0 -86 32t-39 85z" />
<glyph unicode="0" horiz-adv-x="1206" d="M43 580q-6 156 22.5 300t97 255.5t181.5 178t277 66.5q135 0 234 -62.5t163.5 -164.5t95.5 -232t28 -265.5t-41 -263.5t-108.5 -226t-176.5 -155.5t-243 -51.5q-102 6 -195 41t-166 107.5t-118 188.5t-51 284zM279 590q6 -123 32.5 -199t68.5 -119t95.5 -59t110.5 -18 q78 -4 137 34.5t99 105t61.5 151.5t23.5 175.5t-15.5 177.5t-53 154.5t-90 109.5t-127.5 42q-164 0 -259.5 -135.5t-82.5 -419.5z" />
<glyph unicode="1" horiz-adv-x="927" d="M62 96q-1 45 28 82t88 39q23 0 69 1t103 1q18 174 28.5 349t8.5 350q-63 -84 -122.5 -94.5t-96.5 18t-43 81t37 93.5q20 20 55 68.5t71 101.5t64.5 100t38.5 66q25 49 63 69.5t72.5 13t61 -41t26.5 -88.5q6 -125 9 -246q2 -104 1 -219t-6 -203q-10 -131 -17 -233.5 t-15 -184.5q47 0 88 -1t63 -3q57 -4 84 -43t24 -84t-35 -79t-91 -29q-25 2 -69 3t-96 1h-109.5h-107.5t-91 -1t-62 -1q-59 -2 -90 33.5t-32 80.5z" />
<glyph unicode="2" horiz-adv-x="1054" d="M61 143q0 117 36 201t96.5 149.5t140.5 119t166 106.5q29 18 68.5 49t76.5 67.5t65.5 76.5t34.5 75v8q0 37 -17 70t-46 55.5t-64.5 35.5t-70.5 13q-92 0 -152.5 -46t-101.5 -124q-16 -35 -41 -53t-64 -18q-47 0 -84.5 32.5t-37.5 81.5q0 23 10 50q10 29 25.5 54t31.5 48 q76 104 180.5 157.5t233.5 53.5q135 0 239.5 -65.5t159.5 -188.5q16 -39 25.5 -78t9.5 -80q0 -94 -47 -174t-118 -146.5t-154.5 -122.5t-158.5 -105.5t-128 -92.5t-64 -82q-4 -16 -7 -32.5t-5 -32.5q29 6 92.5 12t133 11t134 9.5t95.5 8.5q0 14 -1 28.5t-1 28.5 q0 53 33.5 85t84.5 32q53 0 83 -31t34 -82q4 -33 6 -65.5t2 -65.5q0 -66 -20.5 -112t-95.5 -52q-141 -16 -292 -18t-292 -12q-49 -4 -92 -4.5t-75 14t-49.5 49.5t-17.5 102z" />
<glyph unicode="3" horiz-adv-x="1064" d="M51 1198q0 49 30 79t77 36q55 8 109.5 8t113.5 2q242 6 483 6q49 0 83 -33.5t34 -85.5q0 -39 -25 -71q-20 -27 -43.5 -52.5t-46.5 -50.5q-53 -55 -105 -109.5t-104 -109.5q76 -14 135.5 -52t99.5 -93.5t61.5 -125t21.5 -143.5q0 -100 -31 -181t-88 -138t-137 -88 t-180 -31q-84 0 -165 23.5t-146.5 69.5t-109.5 114t-55 158v14q0 51 34 83t85 32q53 0 81 -30t36 -77q6 -41 29.5 -69.5t57.5 -47t74 -26.5t77 -8q201 0 200 207q0 37 -13 73.5t-35.5 67.5t-55.5 49t-70 18q-47 0 -90 -8t-90 -8q-16 0 -40 1t-44 7t-34.5 19.5t-14.5 38.5 q0 43 41 102t97 120.5t113.5 116t88.5 87.5q-55 0 -105.5 -1t-99.5 -2.5t-99 -3.5t-106 -6q-4 -2 -14 -2q-51 0 -83 35t-32 86z" />
<glyph unicode="4" horiz-adv-x="1097" d="M80 690q12 43 26 94q12 41 29 95.5t33 111.5q6 20 15.5 57t21.5 79t28.5 87.5t37 81t46 58t56.5 22.5q39 0 65.5 -18.5t40 -46t12 -58t-15.5 -57.5h2q-33 -104 -63.5 -205.5t-61.5 -206.5l307 17v424q0 59 37 88.5t81 29.5t82 -29.5t38 -88.5v-412l70 4q59 4 91 -30.5 t34 -78.5t-26 -83t-87 -43l-80 -7q0 -98 1 -185t3 -152h39q59 0 88 -37t29 -82t-30 -81t-89 -36h-133q-18 -4 -37 0l-123 2q-59 0 -88 37t-29 82t30 81t89 36h17l-4 317q-145 -12 -263 -20.5t-196 1t-112 44t-11 108.5z" />
<glyph unicode="5" horiz-adv-x="985" d="M33 197q0 47 36.5 83.5t84.5 36.5q33 0 54 -16t47 -35.5t62.5 -36t98.5 -16.5q102 0 169.5 49t67.5 158q0 33 -7 66.5t-22.5 61t-41 47t-64.5 26.5q-12 4 -24.5 4h-24.5q-55 0 -109.5 -21.5t-109.5 -21.5q-31 0 -62.5 3t-56.5 15t-40 35.5t-15 62.5q0 72 1 157t1 157v66 t1 92.5t3 84t6 43.5q10 16 67.5 19.5t139.5 11.5q55 4 111.5 6t111.5 6q70 4 137.5 9.5t137.5 9.5q47 2 73.5 -20.5t40 -58.5t15.5 -77t2 -74v-83q0 -53 -34 -85t-85 -32t-82 30.5t-35 79.5q-2 16 -3 23.5t-2 13.5t-2 13.5t-1 23.5l-363 -33l-4 -252q12 6 30.5 12.5t39 11.5 t40 8t34.5 3q78 0 145.5 -15t130.5 -67q39 -33 67.5 -75.5t48 -92t29 -101.5t9.5 -101q0 -104 -38 -185.5t-102.5 -136.5t-151.5 -84t-185 -29q-94 0 -185.5 34t-156.5 106q-16 16 -25.5 36.5t-9.5 43.5z" />
<glyph unicode="6" horiz-adv-x="1081" d="M63 545q0 84 18.5 178t55.5 184t90.5 173t122 146.5t152.5 100.5t180 37q41 0 87 -10.5t91 -28.5t84 -45t68 -57q16 -18 24 -37t8 -43q0 -47 -36.5 -84t-83.5 -37q-35 0 -57.5 17.5t-47 39t-54.5 39t-77 17.5q-66 0 -122 -39t-102 -95.5t-79 -122t-51 -118.5 q-12 -37 -19 -66q49 59 118 93t167 34q84 0 164 -28.5t141.5 -81t99 -125t37.5 -160.5q0 -104 -34.5 -187t-96 -139.5t-146.5 -87t-183 -30.5q-127 0 -223.5 43t-162 118.5t-99.5 179t-34 222.5zM358 322q18 -27 48 -47.5t64 -34t70.5 -19.5t67.5 -6q80 0 139.5 48t59.5 134 q0 39 -15.5 75t-43 62.5t-63.5 42t-75 15.5q-14 0 -27.5 -2t-25.5 -6q-63 -16 -103 -46t-61.5 -67t-28 -76t-6.5 -73z" />
<glyph unicode="7" horiz-adv-x="1079" d="M28 1094q-3 51 4 98t31.5 81t83.5 34l822 -4q59 0 87.5 -37t28.5 -81t-29.5 -81t-88.5 -37h-2q-14 -72 -48 -138.5t-80 -130t-98.5 -126t-102.5 -125t-91 -128t-66 -132.5q39 -2 76 -26.5t54.5 -63.5t5 -88.5t-73.5 -100.5q-59 -47 -119 -48t-107 31t-73.5 89t-18.5 127 q12 121 78 241.5t147.5 231.5t158.5 210t110 177l-453 4v-74q-2 -59 -40 -86.5t-82 -25.5t-79.5 33t-33.5 90q2 35 -1 86z" />
<glyph unicode="8" horiz-adv-x="1019" d="M10 408q10 92 43 164.5t82 127.5q-37 59 -57.5 138.5t4.5 173.5q27 104 99.5 174.5t166.5 106.5t198.5 36t196 -33.5t158 -104.5t84.5 -175q16 -98 -3 -180t-64 -142q47 -59 71.5 -136t20.5 -173q-4 -106 -52.5 -186t-124 -134.5t-169 -81t-189.5 -26.5t-185 27.5 t-155.5 84t-101.5 140.5t-23 199zM249 409.5q-7 -57.5 11.5 -107.5t64.5 -83t121 -31q47 0 102.5 10.5t104.5 35t83 63.5t38 98q2 66 -17.5 112t-55 75.5t-84 42t-103.5 12.5q-80 -2 -136 -36t-89 -84t-40 -107.5zM307 892.5q6 -30.5 21 -56.5q98 39 202.5 39t198.5 -39 q25 29 30 74.5t-15.5 86.5t-68.5 70t-130 25q-117 -6 -168 -43t-68 -97q-8 -29 -2 -59.5z" />
<glyph unicode="9" horiz-adv-x="1058" d="M47 -12q0 53 33 87t86 34q27 0 52.5 -10t41.5 -33q27 -6 55 -7q45 0 92.5 13.5t89.5 36t77.5 55.5t60.5 72q31 51 52.5 114.5t35.5 132.5q-49 -18 -100.5 -26t-98.5 -8q-96 0 -182 29.5t-149.5 87t-100.5 137t-37 182.5q0 98 39 182t105.5 146.5t153.5 97.5t184 35 q104 0 181 -39t131 -103.5t84 -150.5t40 -181q4 -43 7 -87t3 -87q0 -162 -32.5 -310t-106.5 -265t-195 -196t-299 -99q-10 -2 -22.5 -2h-22.5q-37 0 -82 7t-84 25.5t-65.5 49.5t-26.5 80zM293 889q0 -102 65.5 -153.5t161.5 -51.5q51 0 108.5 7t116.5 48q0 55 -7 120 t-29.5 121t-65.5 94t-113 38q-43 0 -86 -17.5t-76.5 -48t-54 -71.5t-20.5 -86z" />
<glyph unicode=":" horiz-adv-x="393" d="M45 156q0 55 43 101t109 46q37 0 66.5 -14.5t50 -36t30.5 -48t10 -50.5q0 -27 -10 -54.5t-30.5 -49t-50.5 -36t-66 -14.5q-76 0 -114 50.5t-38 105.5zM45 938q0 27 14.5 54.5t37 48t50 33.5t56.5 13q37 0 65.5 -14t48 -35.5t28.5 -48t9 -51.5q0 -27 -10 -54.5t-30.5 -49 t-50.5 -36t-66 -14.5q-61 0 -106.5 41t-45.5 113z" />
<glyph unicode=";" horiz-adv-x="358" d="M4 -180q0 25 11.5 43t27.5 37.5t35 42t33 55.5q-41 25 -58.5 59.5t-17.5 69.5q0 31 12 61.5t35.5 54t55.5 38t69 14.5q45 0 75.5 -21.5t50 -49t29 -52.5t9.5 -33q2 -8 2 -16v-19q0 -39 -10.5 -90t-33 -104t-56 -102.5t-80.5 -83.5q-35 -27 -72 -27q-47 0 -82 38t-35 85z M53 938q0 57 46 100t104 43q37 0 65.5 -14t48 -35.5t28.5 -48.5t9 -51q0 -27 -10 -54.5t-30.5 -49t-50.5 -36t-66 -14.5q-23 0 -47.5 9.5t-46 29t-36 50t-14.5 71.5z" />
<glyph unicode="&#x3c;" horiz-adv-x="935" d="M57 574.5q-6 33.5 27 71.5t111 93l444 314q33 23 64.5 23.5t57 -13.5t43 -39t21.5 -53.5t-7 -58t-44 -52.5l-389 -274l391 -281q47 -35 50 -82t-23.5 -83t-71.5 -49t-94 22l-424 307q-68 49 -109 85t-47 69.5z" />
<glyph unicode="=" horiz-adv-x="839" d="M-19 357q-1 44 26.5 82t86.5 40l617 21q59 2 89.5 -34t32 -81t-27.5 -82t-86 -39l-617 -20q-59 -2 -89.5 33.5t-31.5 79.5zM-19 780q-1 45 26.5 82t86.5 39l617 21q59 2 89.5 -34t32 -80t-27.5 -82t-86 -40l-617 -20q-59 -2 -89.5 33.5t-31.5 80.5z" />
<glyph unicode="&#x3e;" horiz-adv-x="937" d="M104 223q2 47 52 82l389 281l-389 274q-49 33 -51.5 80t23.5 84t71 49t94 -20l444 -314q78 -55 111 -93t26.5 -71.5t-47.5 -69.5t-110 -85l-424 -307q-47 -35 -93 -22t-72 49t-24 83z" />
<glyph unicode="?" horiz-adv-x="1009" d="M53 1135q-6 43 10.5 73.5t46 46t63.5 15.5t63 -19q55 53 126.5 86t159.5 33q90 0 167 -24.5t134.5 -74.5t89 -126t31.5 -176q0 -74 -26.5 -127.5t-67.5 -92t-88 -66.5t-88 -52.5t-67.5 -49t-26.5 -55.5v-8q16 -70 -19 -105.5t-84 -35.5t-92 37t-43 112q0 76 27.5 130.5 t67.5 93t88 66.5t88 51.5t68 47t28 54.5q0 86 -41 126t-146 40q-68 0 -126 -55.5t-81 -143.5q-14 -55 -48 -83t-71.5 -26t-69.5 31t-42 86zM340 119q-6 31 5 59.5t32.5 50t50.5 33.5t57 12q25 0 51.5 -9t50 -27.5t39 -47t15.5 -67.5q0 -37 -15.5 -66.5t-39 -49t-52 -30 t-53.5 -10.5q-31 0 -59.5 11.5t-50 32t-30.5 48t-1 60.5z" />
<glyph unicode="@" horiz-adv-x="1568" d="M74 522q0 180 66.5 340t182 280t272.5 189.5t339 69.5q135 0 245.5 -38t189.5 -111.5t121 -181t42 -245.5q0 -66 -10.5 -129t-28.5 -125q-23 -74 -63.5 -150.5t-97 -138t-128 -101.5t-157.5 -40q-164 0 -224 113q-76 -35 -155 -35q-127 0 -202 81t-75 206q0 88 38 189.5 t103.5 187.5t152.5 142t183 56q43 0 87 -18.5t83 -48.5q25 18 60 18q47 0 86 -33.5t39 -83.5q0 -16 -4.5 -28.5t-12.5 -28.5q-18 -41 -49 -102.5t-59.5 -128t-50 -128t-21.5 -104.5q0 -12 2 -16q6 -2 19 -2q41 0 80.5 32.5t73.5 79t57.5 94.5t33.5 81q12 41 19.5 84t7.5 86 q0 86 -29.5 150.5t-82 109.5t-122 67.5t-151.5 22.5q-131 0 -248 -53.5t-204 -143.5t-138 -209t-51 -250q0 -86 26.5 -160.5t78 -130t123 -87t161.5 -31.5q25 0 45.5 -4t42.5 -17q23 -12 38 -46t3 -81q-8 -27 -42 -51t-75 -24q-137 0 -250.5 47t-195.5 131t-128 198.5 t-46 249.5zM627 504q0 -27 10 -41q18 -6 39 -6q51 0 80.5 16t52.5 39q18 84 53 168t70 156q-8 8 -19.5 10t-21.5 2q-41 0 -75 -16.5t-60.5 -42t-47 -59.5t-36.5 -66q-16 -33 -30.5 -79t-14.5 -81z" />
<glyph unicode="A" horiz-adv-x="1411" d="M-10 102q0 51 31.5 85t82.5 34h15q10 -2 28 -2q14 39 28.5 77t31.5 75q33 86 65.5 169t67.5 169l156 383q20 49 41.5 103t44.5 101q16 35 39.5 64t68.5 29t69.5 -30t41.5 -65q14 -31 25.5 -64.5t21.5 -64.5l115 -301l182 -481q14 -37 27.5 -74t29.5 -73q10 2 19.5 2h19.5 h8h6q49 0 79 -33q32 -35 32 -86t-30.5 -82t-82.5 -35q-69 -5 -146 -5h-26q-92 1 -176 1q-49 0 -83 29.5t-34 83.5q0 51 34 80.5t83 29.5h58l-33 86l-510 -6l-14 -41q-10 -25 -21 -53h66q49 0 81.5 -32t32.5 -81t-24.5 -73.5t-61.5 -34.5q-32 -8 -68 -8h-11q-42 2 -74 2 h-114.5t-115.5 6q-47 6 -76.5 36.5t-29.5 79.5zM516 537l324 4q-39 102 -78 202.5t-78 204.5z" />
<glyph unicode="B" horiz-adv-x="1222" d="M39 119q0 31 14.5 54.5t37 39.5t50 24.5t54.5 8.5h16q-1 27 -1 55v28q1 42 1 83q0 125 3 248.5t11 248.5q4 49 6 99.5t9 101.5q-16 -2 -29.5 -2h-28.5h-10h-6q-49 0 -79 34q-32 36 -32 85q0 51 31 81.5t80 34.5q92 10 186 13.5t189 3.5q53 0 108.5 -2t108.5 -8 q72 -8 136 -34t113.5 -69t79 -104.5t29.5 -136.5q0 -96 -51 -181q-12 -23 -26.5 -42t-30.5 -35q12 -8 23 -15.5t22 -17.5q47 -47 72.5 -107.5t25.5 -126.5t-22.5 -122t-59.5 -104t-86 -87t-102 -68q-109 -59 -222.5 -77.5t-236.5 -18.5q-117 0 -229 6q-25 2 -51.5 7.5 t-49 17.5t-38 32.5t-15.5 51.5zM446 412q0 -45 1.5 -88t3.5 -86q82 2 162.5 16t154.5 55q23 12 48.5 28.5t48 38t38 46t15.5 53.5q0 18 -8.5 40t-22.5 32q-10 8 -37 14t-59.5 10t-69.5 6.5t-70 2.5q-39 -6 -77.5 -8.5t-75.5 -2.5h-52v-157zM455 817q29 2 58 2h60h41 q37 6 84 19.5t87 35t68 53t28 74.5q0 51 -41 77t-96.5 36t-113 10h-91.5h-28.5t-29.5 -2q-10 -72 -16 -149.5t-10 -155.5z" />
<glyph unicode="C" horiz-adv-x="1206" d="M35 670q0 106 26.5 207.5t79 186.5t130 151.5t180.5 105.5q49 18 99 28.5t101 10.5q72 0 142.5 -22.5t134.5 -59.5q10 39 38.5 62.5t73.5 23.5q51 0 86 -32t35 -83q0 -12 -2 -18q-12 -104 -20.5 -192.5t-14.5 -192.5q-4 -51 -34.5 -83t-83.5 -32q-49 0 -83 32t-34 83 q0 80 6 164q-59 47 -121.5 78.5t-142.5 31.5q-92 0 -160 -44t-112 -112.5t-65.5 -152.5t-21.5 -164q0 -90 21.5 -167t68 -133t116 -88t165.5 -32q84 0 156.5 21.5t146.5 56.5q16 6 28.5 10t29.5 4q49 0 81.5 -37.5t32.5 -84.5q0 -37 -17.5 -60.5t-47.5 -42.5 q-88 -49 -202 -80.5t-214 -31.5q-143 0 -255 58t-188.5 153.5t-117.5 219.5t-41 257z" />
<glyph unicode="D" horiz-adv-x="1218" d="M37 1230v6q-1 41 25 76q28 38 88 40q57 2 129.5 6t148.5 4t146.5 -6t123.5 -25q100 -31 181.5 -80t140.5 -117.5t98 -160.5t53 -211q5 -50 6 -99q0 -76 -14 -147q-22 -117 -69 -210t-114 -159.5t-140 -95.5q-61 -25 -148.5 -37t-181.5 -17t-185.5 -6t-158.5 -1h-6 q-54 0 -83 34q-31 37 -31 84q0 44 28 78q29 36 88 39h24q-2 82 -2 202v247t1 245.5t1 196.5h-26h-6q-54 0 -84 34q-31 36 -33 80zM420 433q0 -122 2 -204q49 2 97 5.5t92 7.5t81 11t62 17q27 10 63.5 47t66.5 97q30 59 48 140q10 48 11 102q0 37 -5 77q-16 125 -63.5 203 t-118 119t-156.5 55t-178 14q0 -74 -1 -192.5t-1 -247.5v-251z" />
<glyph unicode="E" horiz-adv-x="1064" d="M-18 97v6q0 41 26 76q28 38 88 40h80l4 887h-63q-59 0 -88 37t-29 82t30 81.5t89 36.5h131h114.5t102.5 3q41 0 106.5 1t126.5 3q72 2 150 2q55 0 81.5 -34t36.5 -82q9 -43 8 -91v-9q-1 -52 -1 -85q0 -59 -36 -89t-80 -31h-3q-42 -1 -79 27q-38 28 -38 89q-2 12 -2 29.5 v37.5l-321 -6l-2 -303l254 6h6q54 0 82 -35q31 -38 31 -84q1 -42 -27 -79q-28 -38 -88 -38l-260 -6v-348q92 0 182 -1t156 -1q2 25 2 46.5v33.5v12q0 50 30 79q34 32 77 35h9q39 1 74 -23q39 -26 43 -87q2 -35 4 -90v-17q0 -46 -9 -92q-11 -54 -39 -93t-83 -39 q-182 2 -338 2h-132h-122.5t-99.5 -1t-62 -1h-6q-54 0 -84 34q-30 36 -32 79z" />
<glyph unicode="F" horiz-adv-x="1150" d="M31 106q3 44 35 78q27 29 75 30q8 0 17 -1q10 -2 21 -3t26 -1q4 229 11 450.5t30 450.5l-90 -4h-12q-51 0 -78 32q-31 36 -33 81v6q-1 41 25 77q28 38 87 39q57 4 111 7q45 2 90 3t68 3h41.5t71.5 1t92.5 2t99.5 1q117 2 260 2q63 0 89 -42t32 -100q3 -32 3 -65 q0 -27 -2 -55q-5 -60 -5 -97v-6q0 -55 -34 -83q-36 -30 -80 -31h-6q-41 1 -76 27q-38 28 -40 87v127l-375 -4q-10 -90 -17 -178t-11 -176h22.5t48.5 2l90 2v20q0 59 37 89t81 30t81 -30t37 -89q0 -18 -2 -62t-4 -93t-4 -94t-4 -64q-6 -59 -45 -86q-33 -23 -71 -23h-12 q-44 4 -78 38q-30 29 -30 80v12t1 15t1 21l-74 -2q-23 0 -43 -1t-43 -1l-6 -321h22.5t16.5 2h11q49 0 79 -31q33 -35 36 -79v-9q1 -39 -23 -74q-26 -39 -86 -43q-23 -2 -68 -2h-99.5t-106.5 1t-85 5q-59 6 -85 45q-22 34 -22 72q0 6 1 12z" />
<glyph unicode="G" horiz-adv-x="1300" d="M39 735q12 127 61.5 239.5t137.5 204t215 138.5q105 39 197 39q32 0 62 -4q119 -19 226 -84v26v6q0 55 34 84q36 31 81 32h3q43 0 78 -28q37 -28 40 -88q0 -25 -1.5 -71.5t-4.5 -101t-7 -105.5t-6 -82q-6 -59 -45 -85q-33 -22 -70 -22q-7 0 -13 1q-44 4 -78 36 q-28 27 -28 73q0 10 1 20v18q-2 2 -4.5 3t-4.5 5q-117 109 -235 123q-22 3 -44 3q-91 0 -166 -48q-93 -59 -148 -181q-47 -106 -47 -243q0 -20 1 -41q6 -127 53.5 -210t123 -125t169.5 -46h22q85 0 175 27q0 47 1 94t1 88q-43 0 -85 2t-83 8q-59 8 -83 48q-18 32 -18 66 q0 9 1 18q6 44 40 77q27 27 71 27q10 0 22 -2q65 -9 133 -9q33 0 67 2q103 7 201 11h6q53 0 83 -34q33 -37 33 -83q0 -42 -27 -79q-27 -38 -86 -40h-18.5t-18.5 -2q0 -51 -2 -114.5t-2 -125v-113.5t2 -79q1 -9 1 -17q0 -47 -29 -75q-34 -33 -78 -37q-6 -1 -12 -1 q-37 0 -71 22q-39 26 -45 86q-2 6 -2 18q-99 -24 -186 -24q-57 0 -109 10q-131 26 -228 97t-157.5 175.5t-86.5 225.5q-17 81 -17 166q0 40 4 81z" />
<glyph unicode="H" horiz-adv-x="1302" d="M6 114q4 44 37 78q28 29 75 30q8 0 17 -1q10 -2 23.5 -3t29.5 -1q0 51 1 121t2.5 137.5t2.5 122.5t3 80l20 442l-104 6q-59 6 -85 45q-23 34 -23 71q0 6 1 12q4 44 37 79q28 30 75 30q8 0 17 -1q31 -4 78 -5t94 -1h89t61 2h11q49 0 78 -31q32 -35 35 -79v-9 q0 -39 -24 -74q-27 -39 -84 -43q-4 0 -9 -1t-11 -1q-2 -39 -4.5 -88t-4.5 -100t-5 -100.5t-5 -88.5q47 2 105.5 3.5t119 2.5t120 1h108.5q2 43 5 93t6 102t5 101.5t6 90.5h-86q-59 0 -88.5 36.5t-29.5 81.5t29.5 82t88.5 37h77h94t92 1t73 3h6q54 0 85 -32q32 -34 34 -80v-6 q0 -42 -26 -77q-28 -38 -87 -40q-6 0 -12 -1t-14 -1q-4 -45 -7 -114t-7.5 -140.5t-7.5 -135t-3 -98.5q-2 -31 -4 -82t-5 -109.5t-5 -118.5t-4 -107h30.5t26.5 2h6q54 0 85 -33q32 -35 34 -79v-6q0 -41 -26 -77q-28 -39 -87 -41q-29 -2 -74.5 -3t-96 -1h-97.5h-80 q-59 0 -88.5 37t-29.5 81t29.5 80.5t88.5 36.5h43q2 59 5 135t8 146h-111.5t-121 -1t-118 -3t-100.5 -4q-2 -74 -3 -153t-1 -138h18.5t14.5 2h12q49 1 77 -29q32 -34 35 -80v-9q0 -41 -24 -75q-27 -38 -84 -42q-23 -2 -68 -2h-99t-106.5 1t-86.5 5q-59 6 -85 45 q-23 34 -23 71q0 6 1 12z" />
<glyph unicode="I" horiz-adv-x="862" d="M72 1248q4 44 36 78q28 29 76 29q8 0 17 -1q39 -4 101.5 -8t129 -3.5t128 4t95.5 11.5q16 3 31 3q36 -1 63 -21q37 -30 47 -72q3 -13 2 -26q0 -30 -14 -60q-22 -43 -79 -56q-31 -8 -71 -11t-85 -5q-8 -94 -12.5 -214t-6.5 -243q-1 -82 -1 -160v-77q1 -114 6 -198 q41 0 77.5 -1.5t71.5 -3.5q57 -4 85 -43q25 -35 25 -75v-8q-3 -44 -35 -79q-29 -31 -79 -31h-12q-57 5 -126 5h-23q-57 0 -109 -2q-64 -2 -115 -6.5t-76 -8.5q-14 -2 -26 -2q-39 -1 -67 23q-36 32 -43 75q-2 11 -2 21q1 32 17 64q22 42 80 53q20 4 51 6t68 6q-4 86 -4 200.5 t2 237.5t6 243t12 218q-41 2 -76.5 3t-58.5 5q-58 6 -84 46q-22 35 -23 72q0 6 1 12z" />
<glyph unicode="J" horiz-adv-x="1089" d="M20 399q0 57 37 87t81 30t81 -29.5t37 -87.5q0 -96 50 -140t122 -44q80 0 148.5 46t97.5 132q14 45 23.5 134t12.5 195q2 63 2 128q0 43 -1 87q-2 110 -9 198q-37 0 -70.5 -2.5t-60.5 -4.5h-12q-50 0 -79 31q-31 35 -34 79q-1 5 -1 10q0 39 23 73q26 39 85 43 q43 2 106.5 5t129 3t122 -2t84.5 -6q57 -10 80 -52q17 -32 17 -64q0 -10 -2 -21q-7 -43 -43 -75q-27 -24 -67 -24q-12 0 -26 2q-8 0 -14 3q4 -90 6 -206q1 -39 1 -77q0 -77 -3 -154q-4 -114 -15 -215.5t-32 -163.5q-27 -80 -75 -142t-110.5 -106t-135 -66.5t-148.5 -22.5 q-80 0 -153.5 27.5t-130 81.5t-90.5 132t-34 178z" />
<glyph unicode="K" horiz-adv-x="1325" d="M39 110q4 44 37 78q28 29 75 29h17l65 -4l9 903l-25 -4q-17 -3 -32 -3q-37 1 -63 21q-36 30 -45 73q-3 13 -3 26q0 31 16 60q22 42 78 54q61 12 119.5 16.5t111.5 4.5q47 0 86 -2t62 -4q59 -2 87 -39q27 -35 27 -77q-1 -48 -33 -86q-29 -34 -83 -34h-6q-10 0 -26.5 1 t-35.5 3q0 -86 -1 -192.5t-3 -222.5q92 94 194.5 202.5t194.5 212.5q-37 18 -52 56q-10 26 -10 53q0 11 2 23q7 38 36.5 66t81.5 28q37 -2 70.5 -2t60.5 -2q31 -2 55 -2q90 -4 116 -62q9 -19 9 -40q0 -42 -37 -91q-39 -49 -87 -105.5t-101.5 -116t-109.5 -120.5t-112 -119 q45 -41 93.5 -96t92.5 -116.5t80.5 -126t61.5 -122.5l70 5h6q53 0 83 -33q32 -35 34 -79v-6q0 -41 -26 -77q-28 -39 -87 -41q-29 -2 -75 -3t-95 -1h-95h-79q-59 0 -89 37t-30 81t29.5 80.5t89.5 36.5h4q-25 43 -55.5 87t-61 83t-60.5 71t-54 52q-82 -82 -144 -137l-6 -6 v-170q4 0 7 1t7 1h12q50 0 79 -31q32 -35 35 -79v-9q-1 -40 -25 -74q-28 -38 -84 -43q-23 0 -68 -1h-46.5h-50.5q-52 1 -104.5 2.5t-85.5 3.5q-59 6 -85 45q-23 34 -24 72q0 5 1 11z" />
<glyph unicode="L" horiz-adv-x="1271" d="M58 87v9q0 39 24 73q27 38 86 40h12q6 0 13.5 1t17.5 1q0 59 3 134t5 146.5t4 131t2 90.5q-1 97 7 201q4 54 4 107q0 49 -3 97q-18 0 -35.5 1t-31.5 3q-59 6 -85 45q-23 34 -23 71q0 6 1 12q4 44 36 79q27 30 74 30q8 0 17 -1q31 -4 78 -5t94.5 -1h89t60.5 2h12 q50 0 79 -30q32 -34 35 -79v-9q0 -40 -24 -75q-26 -39 -86 -43q-10 -2 -24.5 -2h-30.5q2 -41 1 -82q0 -62 -3 -122q-6 -102 -6 -199q0 -31 -2 -88.5t-4 -127t-4 -143t-5 -133.5h48h86t111.5 -1t125 -2t127.5 -3q6 59 13.5 111.5t11.5 83.5q6 60 46 84q33 20 69 20q7 0 15 -1 q45 -5 77 -39q27 -29 27 -75q0 -9 -1 -18q-2 -27 -6 -57q-4 -27 -7 -62t-7 -69q-12 -96 -19 -199q2 -12 2 -22q-1 -43 -27 -71q-32 -34 -76 -39q-8 -1 -15 -1q-36 -1 -69 19q-40 24 -48 83q-2 6 -2 19q-59 2 -122 3t-121 1h-107.5h-83.5q-49 0 -103.5 -2t-101.5 -4 q-53 -4 -107 -7h-6q-54 0 -84 34q-31 36 -34 80z" />
<glyph unicode="M" horiz-adv-x="1765" d="M18 114q4 44 38 78q28 29 74 30q8 0 17 -1q10 -2 23.5 -3t30.5 -1q14 68 43.5 182.5t63.5 242.5t67 250t55 204h-119q-59 0 -88.5 36.5t-29.5 80.5t29.5 81t88.5 37h77h94t92 1t73 3h7q46 -1 74 -25q30 -26 39 -63q4 -15 4 -30q0 -21 -8 -43q-13 -36 -48 -58l164 -526 l190 545q-31 23 -40 61q-4 17 -4 33q0 20 6 40q11 35 42 59q26 20 66 21q7 0 14 -1q31 -4 78 -5.5t94 -1.5h89t61 2h12q51 1 79 -29q32 -34 34 -79q0 -5 1 -10q0 -39 -24 -74q-27 -39 -86 -43q-18 -2 -56 -3t-83 -1l192 -875h26.5t22.5 2h6q54 -1 85 -33q32 -34 34 -78v-6 q0 -41 -26 -77q-28 -39 -86 -41q-31 -2 -77 -3t-95.5 -1h-96.5h-80q-59 0 -88.5 37t-29.5 81t29.5 80.5t88.5 36.5h46l-119 545l-201 -514q-18 -49 -50 -72.5t-64.5 -23.5t-62.5 25.5t-46 74.5l-174 504q-20 -74 -41 -149.5t-40.5 -148.5t-35.5 -138.5t-29 -114.5q20 0 29 2 h12q49 -1 77 -31q32 -34 35 -78v-9q1 -39 -23 -75q-26 -38 -85 -42q-23 -2 -67.5 -2h-99t-106.5 1t-87 5q-59 6 -85 45q-22 33 -22 70q-1 7 0 13z" />
<glyph unicode="N" horiz-adv-x="1341" d="M23 98q0 41 25.5 75t78.5 40l72 6q-2 86 -2 222.5v281.5v424h-31h-8q-60 1 -84 31q-26 32 -27 73q0 47 26.5 89t63.5 42q20 0 49 1t62 1h18q39 0 76 -7q45 -9 68 -38l589 -782q0 78 1 158t2.5 155.5t2.5 142t3 120.5h-103q-59 0 -89 36.5t-30 81.5t30 82t89 37q33 0 80 1 t97.5 1t95.5 1t71 1q57 0 87 -37t30 -82q0 -43 -27.5 -77.5t-85.5 -38.5q-4 0 -5 -1t-5 -1q-2 -66 -4 -158t-3 -195.5t-2 -209t-2 -198.5t-1 -165v-105q0 -59 -36 -87.5t-81 -28.5t-82 29.5t-37 89.5v71l-563 742v-260v-252t2 -191q100 -6 136 -30.5t36 -90.5 q0 -47 -30.5 -82.5t-92.5 -35.5q-20 0 -68 3t-108 3q-43 0 -87 -5.5t-81 -5.5q-57 0 -86.5 38t-29.5 85z" />
<glyph unicode="O" d="M25 580q-1 18 -1 36q0 148 44 278q49 146 136 253.5t200.5 170t236.5 62.5q143 0 248.5 -72.5t175.5 -182t104.5 -239.5t34.5 -247v-12q0 -185 -60 -312q-62 -131 -154 -211q-90 -81 -200 -115q-98 -30 -184 -30h-20q-78 2 -172.5 34t-178 103.5t-143 189t-67.5 294.5z M260 590q4 -115 43 -189.5t91 -119.5t108.5 -64.5t97.5 -21.5q8 -1 17 0q43 0 97 16q64 20 120.5 72.5t95.5 138.5t39 215q-2 106 -30 198.5t-73 161t-103 108.5t-122 40q-63 0 -133 -38t-127 -109.5t-92 -173.5q-30 -88 -30 -196q0 -19 1 -38z" />
<glyph unicode="P" horiz-adv-x="1232" d="M6 114q4 44 36 78q27 29 74 30q8 0 17 -1l35 -4q0 96 5 211t11 233.5t13.5 232.5t15.5 208l-51 -6q-12 -2 -22 -2q-43 0 -71 26q-34 32 -40 77q-1 9 -1 18q0 34 18 66q24 40 83 48q83 11 195 21q88 8 179 7h53q120 -3 236.5 -23.5t211 -71t154 -133t65.5 -211.5v-24 q0 -100 -30 -178q-34 -87 -93.5 -149.5t-141 -103.5t-174.5 -65q-92 -24 -189 -32q-66 -6 -129 -5q-30 0 -58 1q0 -41 -1 -76.5t-1 -70.5h28t21 2h12q50 -1 79 -31q32 -34 35 -78v-9q0 -41 -24 -75q-27 -38 -86 -42q-23 -2 -68 -2h-98t-105.5 1t-86.5 5q-59 6 -85 45 q-23 34 -23 71q0 6 1 12zM418 602h53q178 2 289.5 39t168 92t62.5 120q1 10 1 20q0 54 -28 101q-32 56 -97.5 95t-151.5 43q-57 4 -125 5h-46q-46 0 -93 -1q-10 -104 -18.5 -238.5t-14.5 -275.5z" />
<glyph unicode="Q" horiz-adv-x="1300" d="M25 575q-1 17 -1 35q0 148 47 278q52 146 141 253.5t202.5 170t226.5 62.5q139 0 244.5 -72.5t176.5 -182t106.5 -239.5t35.5 -247q0 -109 -22.5 -197t-61.5 -158.5t-90 -124t-108 -92.5q-2 -27 -2 -50t8 -41.5t27.5 -34t56.5 -25.5q49 -14 70 -46q19 -28 19 -58v-9 q-3 -35 -28.5 -65.5t-66.5 -41.5q-18 -6 -39 -6q-27 0 -57 8q-56 15 -119 70q-53 47 -75 98.5t-26 104.5q-52 -10 -91 -10h-13q-55 2 -146.5 33.5t-181.5 103.5t-157.5 189.5t-75.5 293.5zM260 584q4 -115 47 -190t98.5 -120t110.5 -63.5t84 -20.5q6 -1 13 -1q28 0 71 14 q-10 27 -30.5 47t-59.5 35q-55 18 -72 62q-8 23 -8 46q0 20 6 40q15 42 54 67q24 15 52 15q21 0 44 -7q47 -16 109.5 -54t103.5 -108q37 51 61.5 121t24.5 164q-2 106 -31 198.5t-75 161t-104.5 108.5t-117.5 40q-51 0 -118.5 -38t-128 -109.5t-100.5 -173.5 q-35 -90 -35 -200q0 -17 1 -34z" />
<glyph unicode="R" horiz-adv-x="1179" d="M-2 114q4 44 37 78q28 29 75 30q8 0 17 -1q10 -2 22.5 -3t28.5 -1q0 74 2 191.5t3 245.5t2 249t1 201l-41 -4q-12 -2 -23 -2q-43 0 -70 26q-34 32 -39 75q-1 8 -1 15q0 36 20 70q24 41 83 49q63 8 159 21q96 12 204 16q31 1 62 1q76 0 154 -7q108 -10 197.5 -44 t148 -98.5t66.5 -168.5q1 -22 1 -42q1 -63 -13 -118q-18 -72 -57.5 -128t-93.5 -98t-120 -71q20 -35 33.5 -76t25 -86t20.5 -92t24 -96q20 44 54 60q24 12 49 11q11 1 19 -1q34 -6 61.5 -32t35.5 -65q2 -11 2 -23q-1 -30 -15 -66q-20 -50 -79 -103q-47 -43 -95 -57 q-29 -9 -56 -9q-19 0 -37 4q-44 10 -80.5 45t-59.5 94q-16 39 -28.5 92.5t-25 105.5t-23.5 98t-25 75q-6 10 -27 32.5t-53 20.5q-35 -4 -62.5 -4t-62.5 2q-2 -94 -3 -175t-1 -136q27 0 35 2h12q49 -1 77 -31q32 -34 36 -78q0 -5 1 -11q0 -39 -24 -73q-27 -38 -86 -42 q-23 -2 -68 -2h-99t-106.5 1t-87.5 5q-58 6 -84 45q-22 34 -23 71q0 6 1 12zM420 762q10 0 21.5 -1t25.5 -1q100 0 176 21.5t128 56t79 76.5t27 83q0 55 -52.5 96.5t-158.5 41.5h-10.5t-29 -1t-70.5 -3.5t-134 -6.5v-161t-2 -201z" />
<glyph unicode="S" horiz-adv-x="1083" d="M58 134v40q0 40 1 78q2 68 4 139q0 79 34 107q23 19 50 19q13 0 27 -4q43 -13 81 -61.5t46 -117.5q10 -80 59.5 -115t135.5 -39q6 0 12 -1q28 1 64 9q44 10 85 29t70 49.5t29 71.5q0 76 -44 119t-113 71.5t-150.5 52t-156.5 61.5t-132.5 98.5t-77.5 162.5q-8 47 -8 89 q0 49 11 93q21 80 72.5 138.5t123 95.5t153.5 49q43 6 86 6q39 0 79 -5q83 -11 157 -46l43 -25q20 38 59 52q22 8 44 8l34 -4q38 -10 64 -44q21 -27 21 -66q0 -9 -1 -19q-12 -86 -21.5 -170t-13.5 -172q-2 -59 -41 -88q-36 -27 -77 -27h-6q-44 2 -80 32q-32 27 -32 77 q0 7 1 14q0 25 2 51q0 23 1 50.5t3 56.5q-33 18 -61.5 35.5t-58.5 31.5t-64 20q-26 5 -56 5h-20q-74 -6 -121 -42t-61 -82q-6 -19 -6 -38q0 -27 12 -55q20 -47 79 -74q63 -29 131 -51.5t134.5 -48t126 -57t103.5 -79t70.5 -114t26.5 -162.5q0 -88 -33.5 -155.5t-90 -115 t-130 -76t-151.5 -36.5q-35 -4 -69 -4q-43 0 -86 6q-77 10 -142 39q-16 -36 -52 -52q-28 -13 -57 -12h-16q-37 4 -65.5 29t-35.5 74q-4 39 -5 99z" />
<glyph unicode="T" horiz-adv-x="1335" d="M39 938q2 23 3 73t3 101q2 59 2 129q2 47 37 81t82 34h227h93.5h92.5t81.5 1t64.5 1q45 2 113.5 4t136 4t123 4t76.5 4q12 1 23 1q61 0 83 -38q26 -45 26 -115v-12q0 -64 -10 -134q-7 -49 -6 -88q0 -22 2 -42q1 -9 1 -17q-1 -47 -29 -75q-34 -33 -77 -37q-6 -1 -12 -1 q-37 0 -72 22q-40 24 -46 84q-4 33 -4 57.5t1 48t3 48t4 57.5q-68 -4 -136.5 -5.5t-136.5 -3.5q-6 -92 -12 -215t-9 -248.5t-6 -243.5t-3 -204l47 6q16 3 31 3q37 0 62 -22q36 -30 45 -73q3 -12 3 -24q0 -31 -16 -61q-22 -42 -80 -54q-33 -6 -88 -10.5t-113.5 -5.5t-113 -1 t-84.5 2q-59 2 -87 41q-26 36 -26 77v6q2 44 34 79q30 33 85 33h6q10 -2 26.5 -2h32.5q0 84 3 200.5t6.5 242.5t9.5 249t12 221h-272l-7 -198q-4 -59 -42 -86q-35 -24 -75 -24h-9q-44 3 -78 35q-31 29 -31 79v12z" />
<glyph unicode="U" horiz-adv-x="1323" d="M27 1231q0 49 31.5 84t82.5 35h15q51 -4 101 -5.5t103 -1.5q31 0 63 1.5t64 1.5q51 0 83 -34t32 -85q0 -43 -16.5 -66.5t-43 -36t-60 -15.5t-66.5 -3q-4 -78 -7 -156t-3 -155q0 -41 1 -110t6 -143.5t14 -141t28 -99.5q29 -53 83 -77.5t111 -24.5q35 0 69 9t60 36 q33 35 52.5 109.5t28.5 158.5t11 165t2 128q0 80 -4 161t-4 160h-37q-51 0 -83.5 33t-32.5 84q0 53 32.5 86t83.5 33q86 0 172 2t172 2q53 0 85 -34t32 -85t-30.5 -81.5t-81.5 -35.5l-74 -6q6 -160 6 -319q0 -78 -4 -177.5t-19.5 -199.5t-46 -191.5t-86.5 -152.5 q-59 -61 -138 -92t-163 -31q-125 0 -237.5 60.5t-169.5 175.5q-25 51 -40.5 131t-23.5 167t-10 168.5t-2 141.5q0 72 2 140.5t6 137.5q0 6 1 12.5t1 14.5q-12 0 -23.5 1t-21.5 3q-47 6 -76.5 37t-29.5 80z" />
<glyph unicode="V" horiz-adv-x="1361" d="M2 1199v6q0 41 26 76q28 38 87 42q31 2 77 3t95 1h96h80q59 0 89 -37t30 -81t-30 -80.5t-89 -36.5h-53q16 -217 78.5 -406.5t183.5 -374.5q31 82 66.5 186.5t72.5 210t69.5 206t57.5 173.5q-16 0 -27.5 -1t-19.5 -1h-12q-50 0 -79 31q-32 35 -35 79v9q1 39 23 74 q26 39 84 43q20 2 66.5 2h101t106.5 -2t87 -4q57 -6 83 -45q23 -34 24 -72q0 -6 -1 -11q-4 -44 -37 -78q-28 -29 -75 -29q-8 0 -17 1q-6 0 -13 1t-13 1q-20 -61 -51 -155t-67 -201.5t-74 -219.5t-73.5 -209t-63.5 -172t-44 -105q-29 -57 -67 -69q-13 -4 -25 -3q-26 1 -54 15 q-42 22 -86 72t-86 111.5t-79 130t-67 129t-49 106.5t-26 63q-16 51 -31.5 115.5t-28.5 133t-22.5 137t-15.5 126.5q-14 0 -25.5 -1.5t-21.5 -1.5h-12q-51 0 -79 32q-32 36 -34 80z" />
<glyph unicode="W" horiz-adv-x="1781" d="M16 1252q4 44 37 78q28 29 75 29q8 0 17 -1q31 -2 78 -3t95 -2q24 0 46 -0.5t43 0.5q42 1 60 1h12q49 0 78 -30q33 -34 36 -78v-9q1 -39 -23 -74q-26 -39 -87 -43q-14 -2 -39.5 -2t-58.5 -2q4 -43 9 -98t12.5 -112.5t15.5 -115t18 -106.5q10 -57 39 -142t62 -171l225 628 q18 49 49 74q30 24 61 24h2q32 -1 63.5 -25.5t47.5 -74.5q33 -102 70 -211q31 -92 68.5 -201.5t74.5 -209.5q59 166 108.5 358.5t61.5 376.5h-108q-59 0 -89 37t-30 82t30 82t89 37h76.5h94t92.5 1t72 3h6q55 0 85 -34q32 -36 34 -80v-6q0 -41 -26 -77q-28 -39 -86 -41h-2 q-8 -133 -36 -282.5t-69 -298t-93 -285.5t-109 -248q-20 -41 -49 -60.5t-59 -18.5t-57.5 22.5t-45.5 62.5q-16 33 -41 98.5t-54.5 147.5t-61.5 173t-61 177q-25 -68 -54 -162t-63 -190t-72 -180t-78 -129q-35 -40 -72 -40q-5 0 -10 1q-42 6 -83 90q-72 143 -121 279.5 t-83.5 274.5t-56 279.5t-34.5 294.5l-24 4q-59 6 -85 45q-23 34 -23 71q0 6 1 12z" />
<glyph unicode="X" horiz-adv-x="1388" d="M49 114q4 44 36 78q27 29 74 30q8 0 17 -1q8 -2 27 -2l325 412q-94 111 -178 225.5t-147 239.5l-47 4q-59 6 -85 45q-23 34 -23 71q0 6 1 12q4 44 36 78q27 29 74 30q8 0 17 -1q31 -4 78 -5t94 -1h89t61 2h12q50 -1 79 -31q32 -34 35 -78v-9q0 -39 -24 -74 q-27 -39 -86 -43q-10 -2 -39 -2q43 -72 94.5 -140.5t108.5 -136.5l221 281h-10q-59 0 -88 36.5t-29 82t28.5 82t88.5 36.5h77h95t93 1t73 1h6q53 -1 83 -33q32 -34 34 -78v-6q0 -41 -26 -77q-28 -39 -85 -41q-8 -2 -17.5 -2h-19.5l-2 -2l-364 -461q94 -104 183 -203.5 t167 -197.5h18t17 2h6q55 0 85 -33q32 -35 34 -79v-7q0 -40 -26 -76q-28 -39 -87 -41q-29 -2 -75 -3t-96 -2t-97 -1h-80q-59 0 -89 37t-30 82t29.5 81.5t89.5 36.5q-47 55 -96.5 109.5t-100.5 108.5l-184 -234q57 0 88 -35t33 -78v-6q0 -40 -26 -74q-28 -38 -85 -42 q-23 -2 -68 -2h-98t-105.5 1t-86.5 5q-59 6 -85 45q-23 34 -23 71q0 6 1 12z" />
<glyph unicode="Y" horiz-adv-x="1296" d="M18 1242q5 44 38 79q27 30 74 30q8 0 17 -1q31 -4 76 -5.5t91 -1.5h85t58 3h12q50 0 79 -30q32 -34 35 -79v-9q0 -40 -24 -75q-27 -39 -86 -43q-4 0 -9 -1t-9 -1q14 -61 30.5 -110.5t37 -94.5t46 -91t60.5 -97q20 49 44.5 103t49.5 108.5t48.5 106.5t43.5 95h-4 q-59 0 -89 37t-30 81t30 81t89 37h75h90t88 1t71 3h6q55 0 85 -33q31 -35 34 -79v-7q0 -40 -26 -75q-28 -39 -87 -41l-74 -5q-16 -35 -40.5 -90t-54.5 -119.5t-60.5 -134t-60.5 -134t-53.5 -120t-37.5 -88.5q6 -25 2 -55q-2 -14 -2 -37v-53t4 -80q41 0 79 -1t73 -3 q59 -4 86 -43q23 -35 23 -74v-9q-3 -44 -35 -79q-28 -31 -79 -31h-12q-57 4 -125 5h-22q-56 0 -108 -2q-64 -3 -116.5 -6t-76.5 -7q-14 -2 -27 -2q-39 0 -66 23q-36 30 -44 73q-1 11 -1 22q0 32 15 63q22 42 82 53q20 4 51 6t68 6q-4 92 -5 149v22q0 41 2 60 q-37 45 -71.5 101.5t-62 107.5t-47 91t-25.5 55q-35 72 -64 151.5t-49 159.5l-88 6q-59 6 -85 45q-22 33 -22 70v13z" />
<glyph unicode="Z" horiz-adv-x="1187" d="M71 1046v40q0 79 3 159q0 43 22 69q22 28 50 38q21 8 44 7q9 0 18 -1q34 -4 58 -23l729 2q43 0 73 -15t43 -40t10 -57.5t-27 -69.5q-94 -143 -176 -266q-35 -53 -70 -105.5t-65.5 -98.5t-54 -82t-36.5 -54q-14 -20 -39.5 -56t-58.5 -82t-69 -96.5t-70 -97.5q109 4 214 10 t214 13q-5 53 -7 106q-1 18 0 33q0 30 3 49q4 57 43 84q35 24 74 24h10q44 -4 78 -36q30 -29 31 -78q0 -6 -1 -12q-1 -8 -1 -18q0 -20 3 -46q4 -39 7 -82q2 -32 2 -65v-22q-1 -44 -11 -81t-33.5 -60.5t-66.5 -25.5q-59 -2 -123 -6q-53 -4 -118.5 -8t-129.5 -8 q-66 -4 -138.5 -6t-135.5 -5q-74 -2 -148 -2q-45 0 -74.5 15.5t-44 42t-9.5 60.5t32 71q86 119 160 221q31 43 63.5 88t61 85t51 73t35.5 51l278 420l-467 -2q-1 -42 -1 -84v-42q1 -63 1 -128q0 -59 -37 -88t-81 -29t-80.5 28.5t-36.5 88.5q0 102 -1 200z" />
<glyph unicode="[" horiz-adv-x="712" d="M53 -29q0 164 2 305q0 59 1 120t2 113t2 92t1 61q0 20 2.5 60t4.5 92t4 110.5t4 117.5q6 137 12 299q2 45 27.5 71t64.5 37t87 13t96.5 -1t91.5 -6t71 -1q61 6 95 -28.5t39.5 -81t-21.5 -87.5t-88 -47q-29 -4 -91.5 -5t-129.5 1q-12 -281 -19.5 -559t-9.5 -561 q57 -2 113.5 -1t79.5 3q61 6 95 -28.5t38 -81t-22.5 -87.5t-88.5 -47q-27 -2 -72 -6t-96 -5t-104.5 4t-95.5 19.5t-68.5 42t-26.5 72.5z" />
<glyph unicode="\" horiz-adv-x="1259" d="M27.5 1376q13.5 47 51.5 74t87 23.5t84 -52.5l952 -1349q35 -51 21.5 -98.5t-51 -74t-87 -23.5t-84.5 52l-952 1350q-35 51 -21.5 98z" />
<glyph unicode="]" horiz-adv-x="712" d="M72 -23.5q4 46.5 37.5 82t95.5 29.5q25 -2 81 -3t115 3q2 63 5.5 150.5t5.5 171.5t3 152.5t1 96.5v91.5t-1 144.5t-1 163v148q-66 -2 -128.5 -1t-88.5 3q-61 6 -88 47t-23 87.5t38 82t95 29.5q29 -2 73 1t93 6t98 1t88 -13t63.5 -38t24.5 -74v-299v-117.5t1.5 -109.5 t1.5 -91v-61q0 -20 -1.5 -60t-2.5 -92t-2 -112.5t-3 -120.5q-4 -141 -8 -305q-2 -43 -28.5 -70.5t-69.5 -42t-95.5 -19.5t-103.5 -4t-95 5t-71 6q-61 6 -87.5 46t-22.5 86.5z" />
<glyph unicode="^" horiz-adv-x="1124" d="M119 805q8 37 37 61q72 98 142.5 197.5t147.5 191.5q37 43 71 52.5t42 9.5q37 0 74 -31t69.5 -74t60.5 -87t44 -70q25 -39 49.5 -76t42.5 -66q23 -35 41 -65q33 -51 17.5 -97t-54.5 -71t-88 -19.5t-82 56.5q-18 29 -41 63q-18 29 -42.5 66t-49.5 76q-10 18 -22.5 35.5 t-24.5 35.5q-20 -27 -58 -84t-83 -114.5t-91.5 -101.5t-82.5 -44q-49 0 -78 24.5t-39 59.5t-2 72z" />
<glyph unicode="_" horiz-adv-x="1077" d="M-113 -241q0 46 31 85t92 39l1030 8q61 0 92 -37.5t32 -83.5t-29.5 -85t-92.5 -39l-1032 -8q-61 0 -92 37.5t-31 83.5z" />
<glyph unicode="`" horiz-adv-x="849" d="M145 1454q-6 47 19.5 87t75.5 46q25 4 48 -2t46 -16q33 -16 95.5 -49t123.5 -73t109.5 -81t52.5 -74q6 -45 -11.5 -76.5t-50.5 -35.5q-35 -4 -102.5 18.5t-138 55t-131 65.5t-82.5 49q-20 12 -34.5 37t-19.5 49z" />
<glyph unicode="a" d="M37 350q0 102 37 176t100.5 121t147.5 68.5t180 21.5q66 0 138.5 -8t141.5 -24q0 39 -14 76.5t-41 67.5t-62.5 48t-78.5 18q-94 0 -173 -18t-159 -68q-16 -10 -35.5 -19t-42.5 -9q-41 0 -63.5 33.5t-22.5 74.5q0 33 15.5 56.5t41.5 40.5q98 63 209 97t240 34 q94 0 172 -35t133 -95.5t86 -140.5t31 -172q0 -10 -1 -21t-3 -22q-10 -104 -20.5 -204.5t-18.5 -204.5q14 0 29.5 7t33 16t36 16.5t40.5 7.5q47 0 78 -35t31 -82t-36 -82t-86 -57.5t-104.5 -33.5t-91.5 -11q-127 0 -160 88q-70 -41 -145.5 -68.5t-140.5 -27.5 q-90 0 -167 22.5t-133.5 67.5t-89 114.5t-32.5 165.5zM274 342q0 -45 15.5 -72.5t41 -42t60.5 -19.5t74 -5q25 0 59.5 12t71.5 29.5t69.5 37t51.5 33.5l26 23q4 37 7.5 74t7.5 73q-63 16 -126.5 26.5t-129.5 10.5q-47 0 -88 -9t-72 -29.5t-49.5 -55.5t-18.5 -86z" />
<glyph unicode="b" horiz-adv-x="1226" d="M4 1413q0 39 32 60.5t60 33.5q51 23 120 34t124 11t88 -16q31 -15 31 -69v-7v-14q-2 -41 -7.5 -83t-9.5 -83q-8 -78 -15 -149.5t-11 -143.5q80 51 172 83t182 32q100 0 174 -40t121 -107.5t69.5 -153.5t22.5 -178q0 -125 -42 -231.5t-115.5 -187.5t-175 -134.5 t-220.5 -71.5q-55 -10 -111.5 -17.5t-111.5 -7.5q-31 0 -63.5 3.5t-60.5 15.5t-47.5 33.5t-25.5 58.5q-4 39 -6 79t-4 81q-7 161 -7 321q0 64 1 129q0 66 5 146t12.5 161.5t15.5 158.5t14 138q-4 -2 -17.5 -4t-27.5 -4t-26.5 -3t-18.5 -1q-47 0 -84 37t-37 90zM403 694 q0 -121 1.5 -238.5t7.5 -238.5q35 2 84 5t98 11.5t93 22.5t73 37q35 29 65.5 61.5t53 72.5t35 89t12.5 111q0 43 -12.5 90t-36 85t-59.5 63.5t-83 25.5q-41 0 -86 -15.5t-89 -40t-85 -54t-72 -58.5v-29z" />
<glyph unicode="c" horiz-adv-x="1077" d="M33 528q0 111 38 215.5t107.5 186.5t165.5 132t213 50q53 0 104.5 -11t100.5 -30q12 35 40.5 54.5t69.5 19.5q53 0 86 -33t33 -86q0 -84 2 -165t2 -165q0 -53 -32.5 -85.5t-85.5 -32.5t-83 31.5t-34 84.5q-4 27 -3 54.5t1 54.5q-41 20 -90.5 44.5t-104.5 24.5 q-66 0 -119 -26.5t-93 -71.5t-61.5 -102.5t-21.5 -118.5t23.5 -119.5t64.5 -103.5t96.5 -73t118.5 -28q16 0 41 4.5t49.5 10.5t44 14t25.5 14q23 23 39 39.5t49 16.5q51 0 90 -37t39 -88q0 -57 -43 -97t-103.5 -65t-125 -36t-107.5 -11q-111 0 -208 41t-170.5 113.5 t-115.5 170t-42 209.5z" />
<glyph unicode="d" horiz-adv-x="1292" d="M47 532q0 117 38 223.5t106.5 186.5t168 127t222.5 47q94 0 174 -33q0 16 1 33t1 33l2 205q2 23 1 43t1 43q4 45 29.5 70.5t61.5 39t78 16.5t77 3q37 0 73.5 -3t73.5 -3q53 0 85 -34t32 -85t-32 -83t-83 -34q-41 -2 -81 -3t-81 -1q-4 -178 -7 -352t-3 -350q0 -188 6 -375 q27 8 47.5 14t44.5 19q16 8 30.5 13t31.5 5q49 0 83 -39t34 -86q0 -35 -16.5 -58.5t-45.5 -39.5q-29 -18 -67.5 -34.5t-81.5 -29t-85 -20.5t-75 -8q-90 0 -119 59q-53 -23 -109.5 -36t-111.5 -13q-117 0 -210 43t-158.5 116.5t-100.5 172t-35 208.5zM283 545 q0 -59 15 -116.5t46 -101.5t79 -72t114 -28q68 0 121 26t96 44q-6 144 -6 289v35v91t2 91q-14 12 -28.5 26.5t-33 25.5t-43 19.5t-59.5 8.5q-68 0 -124 -29t-96 -77t-61.5 -108.5t-21.5 -123.5z" />
<glyph unicode="e" horiz-adv-x="1083" d="M47 532q0 113 36 218.5t102.5 187.5t162.5 131t217 49q102 0 187.5 -39t147 -108.5t96 -164.5t34.5 -208q0 -31 -4 -63.5t-16.5 -59t-34 -44t-53.5 -19.5l-613 -29q31 -86 94.5 -125t153.5 -39q53 0 112.5 8.5t110.5 18.5q8 2 14.5 3t14.5 1q51 0 82 -37t31 -84 t-26 -75.5t-69 -39.5q-59 -14 -134 -23t-138 -9q-119 0 -213 43t-159.5 118.5t-100.5 175t-35 213.5zM287 618h2l497 15q-2 45 -15 89t-39.5 80t-65.5 58.5t-91 22.5q-55 0 -102 -22.5t-85 -59.5t-63.5 -84t-37.5 -99z" />
<glyph unicode="f" horiz-adv-x="876" d="M30 840q-2 10 -2 20q0 33 18 64q22 41 81 51q23 4 51.5 7t59.5 7q12 113 42.5 215.5t87 179t141.5 121.5q81 43 196 43h10q115 -2 179 -34.5t91 -77.5q21 -35 21 -72q0 -10 -2 -20q-7 -48 -33.5 -76.5t-68.5 -30.5h-4q-40 0 -83 43q-10 10 -33.5 20.5t-68.5 12.5 q-53 0 -93 -23.5t-69 -64.5t-47.5 -98.5t-28.5 -125.5q38 1 75 1h36q55 -1 102 -5q57 -4 84 -43q24 -35 24 -75v-9q-3 -45 -36 -78q-29 -30 -80 -30h-12q-47 4 -100 5h-36q-36 0 -73 -1q-1 -30 -1 -61q0 -45 2 -91q3 -75 7 -145t9 -131.5t9 -106.5l60 5h6q55 0 85 -33 q32 -35 34 -79v-6q0 -41 -26 -77q-28 -39 -87 -41q-29 0 -59 -2q-27 -2 -62 -3t-69 -3q-47 -2 -97 -5q-22 -1 -44 -1q-28 0 -56 2q-43 2 -66.5 21.5t-34 43t-11.5 45t-1 27.5q10 55 48 79q32 20 69 20q6 0 12 -1h64q-4 102 -14.5 240.5t-10.5 288.5l-59 -9q-14 -2 -27 -2 q-40 0 -67 24q-35 32 -42 75z" />
<glyph unicode="g" horiz-adv-x="1232" d="M27 506q0 117 36.5 222.5t106.5 186t169 128t222 47.5q84 0 172 -39q6 41 37 66.5t76 35.5q31 8 64.5 10t66.5 2h62.5t50.5 4q10 2 26 2q51 0 82 -35.5t31 -84.5q0 -47 -25.5 -75t-70.5 -38q-39 -10 -79 -12t-79 -6q8 -164 20.5 -312.5t12.5 -312.5q0 -106 -6.5 -209.5 t-28.5 -210.5q-43 -203 -182.5 -308.5t-346.5 -105.5q-57 0 -128.5 14.5t-135 47.5t-107.5 84t-44 123q0 53 28.5 93t87.5 40q53 0 89 -35q32 -32 32 -78v-10l4 10q70 -63 166 -63q55 0 105.5 17t90.5 48t68.5 74t40.5 96q4 25 8.5 48.5t8.5 45.5q-55 -23 -113 -38t-115 -15 q-117 0 -210 43t-158.5 117t-100 173t-34.5 210zM262 516q0 -59 15.5 -115.5t46 -101.5t79 -72.5t113.5 -27.5q57 0 123 17t131 44v57q0 129 -9 247t-18 241q-35 20 -76.5 34.5t-101.5 14.5q-68 0 -124 -28.5t-96 -76t-61.5 -108.5t-21.5 -125z" />
<glyph unicode="h" horiz-adv-x="1288" d="M-25 1438q0 55 32 84.5t85 33.5q41 4 101.5 6.5t101.5 2.5q68 0 106.5 -18.5t44.5 -98.5q4 -42 4 -82v-10q0 -9 -1 -18q0 -36 2 -74q0 -63 1 -125t3 -125q72 41 152.5 71.5t152.5 30.5q104 0 165.5 -46t94.5 -118.5t43 -159.5t10 -169q0 -90 -5 -179.5t-9 -179.5 q12 6 16 10q20 18 39 29.5t47 11.5q47 0 86 -32.5t39 -79.5t-38 -86t-91 -68t-110.5 -45t-96.5 -16q-68 0 -98.5 39t-30.5 104q0 115 8.5 227.5t8.5 229.5q0 31 1 80v13q1 42 -5 83q-6 47 -27 82t-64 35q-47 0 -88 -11.5t-76.5 -29t-67.5 -37t-58 -35.5v-4 q-2 -111 -6.5 -220.5t-8.5 -219.5q-2 -23 -2 -43.5v-42.5h4q53 0 85 -33t32 -84t-31.5 -84t-83.5 -35q-70 -2 -139.5 -5t-138.5 -3q-51 0 -84 33.5t-33 85.5q0 51 32 83.5t83 34.5h35l6 103q4 111 8 217t6 217v145q0 104 -1 205t-3 205q-29 0 -58.5 -1t-58.5 -1 q-53 0 -87 31.5t-34 85.5z" />
<glyph unicode="i" horiz-adv-x="661" d="M29 987q0 49 15 73.5t37.5 34t46.5 9.5h40l190 2q51 0 86 -35q33 -33 33 -79v-5q-4 -129 -15 -244.5t-18 -244.5q-2 -66 -4 -128.5t-2 -127.5v-6h37q53 0 86 -33t33 -86t-33 -86t-86 -33h-313q-53 0 -85 32.5t-32 86.5q0 53 32 86t85 33h39q2 162 10 316.5t20 319.5 q-23 0 -45 -3t-45 -3q-51 0 -81.5 36t-30.5 85zM215 1323q0 31 14.5 56.5t38 46t52 31.5t57.5 11q49 0 87 -31.5t38 -84.5q0 -31 -10.5 -59.5t-30 -52t-46 -38t-59.5 -14.5q-27 0 -52 10t-44.5 28.5t-32 43t-12.5 53.5z" />
<glyph unicode="j" horiz-adv-x="677" d="M-229 -371q0 49 36.5 81t86.5 32q39 0 67.5 -21.5t38.5 -58.5q10 -2 17.5 -2h17.5q49 0 91 25.5t76 65.5t57.5 87t33.5 90q23 98 30 198.5t7 199.5q0 135 -8.5 269t-12.5 269q-33 -2 -63.5 -2h-61.5h-41q-51 4 -82.5 34t-31.5 83q0 59 36.5 89t92.5 30q45 0 109.5 4 t107.5 4q33 0 61.5 -3t50 -14.5t36 -35t18.5 -64.5q6 -74 6 -148.5t4 -148.5q4 -117 7 -233.5t3 -233.5v-45q-8 -129 -30.5 -255t-76 -228.5t-147.5 -174t-244 -93.5q-10 -2 -22 -2h-23q-86 0 -151.5 38.5t-89.5 124.5q-6 18 -6 39zM256 1323q0 31 14.5 56.5t38 46t52 31.5 t57.5 11q49 0 87 -31.5t38 -84.5q0 -31 -10.5 -59.5t-30 -52t-46 -38t-59.5 -14.5q-27 0 -52.5 10t-44.5 28.5t-31.5 43t-12.5 53.5z" />
<glyph unicode="k" horiz-adv-x="1144" d="M-12 1415q0 49 33.5 78t66.5 33q47 8 95 21.5t96 13.5q61 0 94 -24t39 -87q2 -20 2 -40.5v-41.5l4 -192q4 -125 7 -247t3 -245l481 416q36 30 75 30h3q47 0 82 -33.5t35 -80.5q0 -51 -43 -88l-354 -299l374 -482q27 -33 27 -73q0 -47 -38 -83t-85 -36q-29 0 -52.5 13.5 t-39.5 35.5l-365 473l-102 -88q0 -23 -1 -43t-1 -43v-70h10q53 0 85 -32.5t32 -85.5q0 -51 -32 -83t-83 -34q-29 0 -54.5 -1t-53.5 -1q-16 -4 -25 -4q-4 0 -7 1t-7 1q-33 -2 -65.5 -3t-65.5 -1q-51 0 -84 33.5t-33 85.5q0 51 31.5 82.5t83.5 33.5q8 0 15 1t15 1 q0 115 2 225.5t2 227.5q0 158 -4 313.5t-8 313.5q-6 -2 -32.5 -7.5t-34.5 -5.5q-47 0 -85 33t-38 88z" />
<glyph unicode="l" horiz-adv-x="657" d="M39 1415q0 47 27.5 77t74.5 38q18 4 48 7t62 5t61.5 3t49.5 1q63 0 91 -18.5t28 -97.5q-1 -66 -1 -133q0 -100 2 -199q3 -166 5 -332q0 -133 -3 -264t-5 -264l45 2q53 0 87 -33t34 -86q0 -51 -31.5 -84t-85.5 -35l-340 -6h-6q-48 0 -80 30q-34 32 -34 87q0 51 31.5 83.5 t82.5 34.5h60q0 135 4 265.5t4 263.5q0 137 -2 272t-6 273q-23 -2 -44.5 -6.5t-43.5 -4.5q-51 0 -83 36t-32 85z" />
<glyph unicode="m" horiz-adv-x="1910" d="M4 983q0 53 32 84t83 35q53 4 106.5 7t106.5 3q84 0 113.5 -26.5t35.5 -77.5q72 43 151 73.5t148 30.5q92 0 150.5 -37t93.5 -96q78 51 171 92t173 41q104 0 165.5 -46t94.5 -119t43 -160t10 -169q0 -92 -5 -181t-9 -181q12 6 16 10q20 20 40 30.5t49 10.5 q47 0 84.5 -32.5t37.5 -79.5t-37.5 -86t-91 -68t-111 -45t-95.5 -16q-68 0 -98.5 38.5t-30.5 104.5q0 117 9 229.5t9 229.5q0 25 -1 65.5t-6 82.5t-14.5 80t-25.5 58q-23 8 -49 9q-74 0 -141.5 -36t-125.5 -71q4 -39 6.5 -78t2.5 -76q0 -123 -8.5 -245.5t-8.5 -247.5 q0 -6 2 -13.5t2 -15.5q0 -49 -36.5 -79.5t-83.5 -30.5q-59 0 -89 42t-30 97q0 117 9 229.5t9 229.5q0 25 -1 65.5t-6 82.5t-14.5 80t-25.5 58q-23 8 -49 9q-76 0 -146.5 -38t-136.5 -79v-4q-4 -106 -7 -213t-9 -213l-3 -111q51 0 83.5 -33.5t32.5 -85.5q0 -53 -32 -83.5 t-83 -32.5q-70 -4 -139.5 -6.5t-139.5 -2.5q-53 0 -84.5 33t-31.5 84q0 53 31.5 84t82.5 35h19.5t19.5 2l8 127q8 133 12.5 264t4.5 266q-31 -2 -62.5 -3t-62.5 -1q-51 0 -84 33t-33 84z" />
<glyph unicode="n" horiz-adv-x="1329" d="M4 983q0 51 32 83t83 36q53 4 106.5 7t106.5 3q84 0 112.5 -25.5t36.5 -78.5q74 43 154.5 73.5t152.5 30.5q104 0 167 -46t94.5 -119t42 -160t10.5 -169q0 -92 -5 -182t-10 -182l17 12q25 16 48.5 28.5t51.5 12.5q47 0 79 -32.5t32 -79.5t-38 -86t-91 -68t-110.5 -45 t-96.5 -16q-68 0 -98.5 38.5t-30.5 104.5q0 117 9 229.5t9 229.5q0 25 -1 65.5t-6 82.5t-14 80t-26 58q-10 4 -23.5 6.5t-25.5 2.5q-41 0 -81 -13.5t-76.5 -32t-70.5 -40t-63 -35.5q-4 -106 -7 -213t-10 -213l-3 -97h6q53 0 86 -33.5t33 -84.5t-32 -84t-83 -35 q-72 -2 -140.5 -5t-137.5 -3q-53 0 -86 33.5t-33 84.5t31.5 84t82.5 35h35l6 115q6 104 9.5 209.5t5.5 210.5q2 29 2 55.5v54.5q-31 -2 -62.5 -3t-62.5 -1q-51 0 -84 33t-33 84z" />
<glyph unicode="o" horiz-adv-x="1069" d="M33 561q0 131 46 234.5t115.5 174t152.5 107.5t159 37q129 0 225 -47t159.5 -126t95.5 -179t32 -205q0 -109 -33 -213t-99.5 -186t-163.5 -132.5t-226 -50.5q-109 0 -194 46.5t-145.5 126t-92 186t-31.5 227.5zM268 561q0 -94 21.5 -160.5t54.5 -107.5t73 -60.5t79 -19.5 q70 0 124 29.5t91 79t55 111t18 124.5q0 61 -17 118.5t-51 102.5t-87.5 73t-122.5 28q-25 0 -66 -18.5t-78.5 -56.5t-65.5 -98.5t-28 -144.5z" />
<glyph unicode="p" horiz-adv-x="1200" d="M14 973q0 57 31 84.5t84 34.5q41 4 81 7t81 3t80 -5t67 -28q53 23 108.5 37t110.5 14q117 0 209 -43t158 -116.5t100.5 -172t34.5 -208.5q0 -117 -37 -223.5t-106.5 -186.5t-168.5 -127t-222 -47q-86 0 -160 27q-2 -25 -2 -49.5v-51.5q-4 -66 -6 -110.5t-4 -96.5h22 q53 0 85 -32.5t32 -83.5t-32 -84t-83 -35q-70 -2 -138.5 -5t-139.5 -3q-51 0 -84 33.5t-33 84.5t31.5 84t83.5 33q4 0 9 1t11 1q2 63 4 117.5t6 132.5q6 225 11.5 449.5t9.5 449.5q-29 0 -56.5 -1t-56.5 -1q-53 0 -87 32t-34 85zM473 293q23 -23 54.5 -43.5t93.5 -20.5 q68 0 124 29t96 77t61.5 108.5t21.5 123.5q0 57 -15.5 114.5t-46.5 102.5t-79 73t-113 28q-55 0 -101.5 -18.5t-83.5 -37.5q-2 -135 -5 -268t-7 -268z" />
<glyph unicode="q" horiz-adv-x="1265" d="M49 367q-3 36 -3 71q0 101 26 191q34 121 108 214t181.5 154.5t240.5 79.5q51 8 103.5 11.5t101.5 7.5q23 37 70 43q21 3 43 3q27 0 56 -4q52 -8 101 -22t74 -20q57 -12 77 -54q15 -30 15 -60q0 -13 -3 -26q-9 -43 -46 -72q-26 -21 -63 -21q-15 0 -31 3l-74 15 q-2 -131 -7 -299t-12.5 -337t-14.5 -320.5t-13 -250.5l145 7h6q55 0 84 -33q31 -35 33 -79v-6q0 -41 -25 -77q-28 -39 -85 -41q-16 0 -52 -6t-81 -9q-35 -2 -70 -2h-24q-48 1 -87 13t-63 39q-23 26 -23 71v7q4 66 8 143q4 66 8.5 155t8.5 193q-137 -90 -277 -94h-13 q-98 0 -172 29q-79 32 -132 88.5t-82 132.5t-37 162zM283 387q8 -84 36.5 -129t69.5 -62q26 -10 56 -10q17 0 35 4q50 9 101.5 33.5t98.5 62.5t82 79l14 12q4 131 8.5 255t6.5 228q-47 -2 -97.5 -7t-97.5 -14.5t-86 -23.5t-64 -35q-35 -31 -66.5 -69.5t-55 -88t-36.5 -107.5 q-8 -37 -8 -79q0 -24 3 -49z" />
<glyph unicode="r" horiz-adv-x="1062" d="M36 964q-1 8 -1 15q-1 37 19 69q24 40 83 48q37 4 97 20q60 17 120 19h10q53 -1 92 -21q42 -22 42 -94v-76q43 35 90 66.5t92 56.5t86 40t74 15q61 0 98 -40t58.5 -97t28.5 -118.5t11 -104.5v-12q0 -50 -30 -79q-34 -32 -76 -35h-9q-38 0 -73 24q-39 26 -47 85 q-2 16 -4 35q-2 16 -4 36t-7 42v2q-31 -18 -71.5 -47t-80.5 -60.5t-74 -62.5t-50 -55l-21 -23q-2 -16 -2 -32.5v-32.5q-4 -94 -7 -173t-7 -136h29q59 0 89 -37t30 -81t-30 -81t-89 -37q-16 0 -59.5 -1t-92.5 -3t-94 -3t-63 -3h-12q-50 0 -79 30q-32 34 -36 78v11q0 39 23 73 q26 39 85 43q10 0 25.5 1t36.5 1l16 326q4 86 5 170t3 152q-25 -4 -48.5 -8.5t-43.5 -6.5q-12 -2 -22 -2q-44 0 -71 27q-34 33 -39 77z" />
<glyph unicode="s" horiz-adv-x="948" d="M63 272q0 51 33 84t86 33t85 -32.5t32 -84.5v-6q35 -20 80 -40.5t110 -20.5q63 0 104.5 32.5t41.5 75.5q0 20 -12.5 33.5t-28.5 24.5q-47 31 -98.5 50t-104.5 36.5t-104 38t-97 55.5q-53 41 -83.5 97.5t-30.5 123.5q0 53 19.5 104.5t52 95.5t77.5 76.5t94 49.5 q61 20 138 20q39 0 83 -6t87 -18q6 41 36.5 67.5t77.5 26.5q53 0 86 -33t33 -84q0 -53 2 -105.5t2 -105.5t-32.5 -87t-86.5 -34q-53 0 -83.5 33t-34.5 82q-82 41 -170 41q-63 0 -103.5 -25.5t-40.5 -85.5q0 -23 20.5 -43t41.5 -28q39 -16 91 -32.5t106.5 -37t107.5 -48.5 t94 -65q41 -35 65.5 -83t24.5 -113q0 -74 -32.5 -137.5t-85 -109.5t-120 -71.5t-137.5 -25.5q-47 0 -94 8t-94 25q-4 -45 -36 -73t-79 -28q-53 0 -83.5 32t-34.5 85q-4 57 -4.5 115.5t-0.5 117.5z" />
<glyph unicode="t" horiz-adv-x="954" d="M-14 908q6 44 40 76q27 26 70 26q11 0 23 -2q8 0 22.5 -1t31.5 -2t33.5 -1h29.5h14q6 123 13 219t13 143q6 57 48 82q34 20 69 20h16q45 -6 77 -40q26 -28 26 -71q0 -11 -2 -22q-4 -37 -12.5 -126t-14.5 -205q68 0 135.5 3t133.5 11q9 1 17 1q46 0 74 -29q34 -34 38 -78 q1 -6 1 -12q0 -38 -23 -72q-26 -40 -83 -46q-76 -8 -152.5 -11t-154.5 -3q-4 -90 -6 -175t-2 -154.5t3 -119t9 -65.5q12 -35 43 -37t62 -2q18 0 34.5 11.5t29.5 29.5t21.5 39.5t8.5 40.5q0 57 36.5 87t81 30t81 -30t36.5 -87q0 -31 -15 -90.5t-52 -118.5t-100.5 -103 t-161.5 -44q-188 0 -274 100q-82 96 -81 272v17q2 78 6 181t9 218h-5q-33 0 -78.5 1t-68.5 5q-58 8 -82 49q-19 33 -19 67q0 9 1 18z" />
<glyph unicode="u" horiz-adv-x="1335" d="M14 877q0 45 28 72.5t69 37.5q51 10 91 22.5t83 43.5q23 16 44 26.5t48 10.5q53 0 75.5 -42t22.5 -90q0 -39 -2 -75.5t-6 -73.5q-6 -164 -6 -324q0 -31 -2 -81v-22q0 -39 5 -77q7 -49 27.5 -85t63.5 -36q39 0 79 13.5t77 32t70.5 39t64.5 36.5q2 111 6 222.5t8 222.5 q0 29 1 57.5t3 56.5h-4q-53 0 -86 34t-33 85t32 84t83 35q72 2 140.5 4t138.5 2q53 0 85.5 -33t32.5 -84t-31.5 -84t-82.5 -35q-10 0 -18.5 -1t-16.5 -1l-8 -131q-4 -111 -8.5 -219t-6.5 -219l-2 -59q51 20 99 20q49 0 88 -28.5t39 -81.5q0 -37 -21.5 -65t-54.5 -42 q-47 -18 -95.5 -36.5t-95.5 -39.5q-18 -8 -36.5 -13t-40.5 -5q-43 0 -67 26.5t-36 61.5q-76 -37 -159.5 -63.5t-159.5 -26.5q-111 0 -174.5 52t-95 131t-39 173t-7.5 178q0 72 2 144.5t4 144.5q-41 -10 -75 -10q-53 0 -96.5 27.5t-43.5 87.5z" />
<glyph unicode="v" horiz-adv-x="1196" d="M-6 989q0 51 31.5 84t83.5 35q70 2 139 4t139 2q53 0 85 -32.5t32 -84.5q0 -51 -32 -83.5t-83 -34.5h-14q41 -127 95.5 -250t107.5 -242q47 100 91 204.5t83 209.5l24 73q-51 0 -82.5 33t-31.5 84q0 53 33.5 86t86.5 33q68 0 136.5 -2t138.5 -4q51 -2 82.5 -34t31.5 -85 t-33.5 -85t-86.5 -32h-29q-41 -139 -97.5 -271t-115.5 -263q-31 -68 -61.5 -137.5t-65.5 -135.5q-16 -33 -41 -59.5t-66 -26.5t-65.5 27t-40.5 59q-14 27 -40 82.5t-57.5 127t-66.5 153.5t-67.5 163t-60 154.5t-44.5 128.5h-22q-53 0 -85 34t-32 85z" />
<glyph unicode="w" horiz-adv-x="1536" d="M0 991q0 51 31.5 83t83.5 34q70 4 139.5 6t138.5 2q53 0 85 -32.5t32 -86.5q0 -51 -32 -82.5t-83 -33.5h-27.5t-27.5 -2l16 -76q23 -94 45.5 -186.5t44.5 -184.5q33 78 62 159t57 161q12 35 24.5 71.5t26.5 71.5q14 37 40 67.5t69 30.5q41 0 67.5 -27.5t43.5 -62.5 q16 -35 30.5 -71.5t30.5 -71.5l127 -291l12 -25l105 430h-31q-51 2 -83 35t-32 84q0 53 34 86t87 33q68 0 136.5 -2t136.5 -4q53 -2 84.5 -35t31.5 -84q0 -53 -34 -86t-87 -33h-4l-194 -805q-10 -41 -37 -73.5t-74 -32.5q-41 0 -67.5 24.5t-42.5 59.5q-14 27 -26.5 54.5 t-27.5 56.5q-27 55 -52 110t-50 111l-72 162q-10 -29 -29.5 -81.5t-45 -116t-55 -130t-62.5 -119.5t-67 -88t-66 -35q-51 0 -87 60.5t-60.5 141.5t-40 161t-23.5 118q-20 84 -39 165t-37 165q-6 23 -12.5 47.5t-10.5 48.5q-47 4 -74.5 38t-27.5 81z" />
<glyph unicode="x" horiz-adv-x="1257" d="M25 104q0 53 32.5 86t85.5 33h64l88 117q43 55 87 110.5t89 108.5q-53 78 -112.5 153.5t-110.5 153.5h-98q-53 0 -86 33t-33 84q0 53 32.5 86t86.5 33q78 0 152.5 3t152.5 3q53 0 85.5 -33t32.5 -86q0 -41 -19 -68.5t-52 -39.5l112 -152q35 39 68 78t68 76 q-37 10 -58.5 40.5t-21.5 73.5q0 53 32.5 86t85.5 33q78 0 154 2t152 2q53 0 85.5 -31.5t32.5 -84.5t-32.5 -86t-85.5 -33h-60q-53 -55 -103 -109.5t-100 -111.5l-98 -113q39 -59 80 -115.5t82 -113.5q16 -23 34.5 -46.5t37.5 -48.5q23 2 46 2h48q53 0 86 -32.5t33 -85.5 t-33 -86t-86 -33q-78 0 -154 -2t-151 -2q-53 0 -86 31.5t-33 84.5q0 39 18.5 68t51.5 43l-117 166l-121 -154q45 -6 71.5 -37.5t26.5 -78.5q0 -53 -32.5 -86t-85.5 -33q-78 0 -153 -2t-153 -2q-53 0 -85.5 31.5t-32.5 84.5z" />
<glyph unicode="y" horiz-adv-x="1296" d="M8 985q0 61 36 86t95.5 32t139 8t167.5 13h19q55 0 86 -36.5t31 -83.5q0 -39 -25 -73t-78 -40l-43 -6l197 -557q27 72 54.5 147.5t53 147t49 136t41.5 118.5q-51 8 -82.5 33.5t-31.5 80.5q0 45 19.5 69.5t54 36t82 12.5t104.5 1q55 0 105.5 -4t87 -16.5t58 -37 t21.5 -67.5q0 -45 -29.5 -83t-84.5 -38q-14 0 -21 2q-8 2 -16 2h-17q-18 -45 -46.5 -123.5t-64.5 -176t-74 -202t-74 -200.5t-67.5 -174t-52.5 -121q-33 -66 -84 -148.5t-116.5 -155.5t-144 -122t-167.5 -49q-80 0 -117.5 34.5t-37.5 86.5q0 45 29.5 83t82.5 38 q10 0 21.5 -3.5t21.5 -3.5q25 0 55.5 20.5t60.5 54.5t59.5 74t55 78t44 70.5t27.5 48.5q4 12 8 19l-305 870q-16 -2 -34 -1t-34 1q-59 0 -89 37t-30 82z" />
<glyph unicode="z" horiz-adv-x="1138" d="M61 811q0 27 3.5 69t9.5 87t12 87t12 68q10 43 38 67.5t71 24.5q47 0 82 -30.5t35 -79.5v-6q158 2 299 9t301 11h8h7q43 0 78 -24q38 -26 38 -78q0 -29 -13.5 -52.5t-29.5 -45.5q-47 -59 -99.5 -119t-99.5 -119q-96 -117 -195.5 -229.5t-171.5 -212.5q98 0 184.5 1 t178.5 3q2 31 4 60.5t6 59.5q4 49 34 79t77 30q49 0 81.5 -30.5t32.5 -82.5q0 -78 -7 -153.5t-7 -153.5q0 -51 -32.5 -82.5t-82.5 -31.5q-41 0 -67.5 19t-36.5 52h-88q-87 0 -155 -1h-48q-50 0 -108 1h-209q-45 0 -86 21.5t-41 74.5q0 29 13 52.5t30 44.5q47 55 85 108 t85 107q100 117 193 230.5t194 230.5q-104 -4 -192.5 -7.5t-190.5 -3.5q-2 -16 -3 -30.5t-1 -30.5q-4 -49 -34 -81t-79 -32q-53 0 -84 33t-31 86z" />
<glyph unicode="{" horiz-adv-x="780" d="M-28.5 705q14.5 43 66.5 79.5t132 42.5q29 2 54.5 2t49.5 9q14 33 2 91t-29.5 128.5t-30.5 146.5t-3 143.5t56 121t145 79.5q39 10 75.5 6t73.5 -16t72 -29.5t70 -33.5q55 -27 66 -75t-9.5 -89t-64.5 -62.5t-99 4.5q-31 16 -61.5 31.5t-65.5 24.5q-23 -6 -17.5 -57.5 t20.5 -117t31.5 -130t18.5 -97.5q4 -84 -19.5 -135t-68.5 -80q49 -41 67.5 -92t18.5 -108.5t-12 -118t-23.5 -117.5t-16.5 -108.5t9 -90.5q51 6 94 37q49 37 96.5 26t75 -48t26.5 -86t-50 -86q-90 -70 -167 -90.5t-138.5 -4t-104.5 64.5t-64.5 117.5t-20.5 153.5t28 172 q2 10 9 43t13.5 72t7.5 74t-8 49q-14 6 -38.5 11t-51 8t-52 6.5t-40.5 3.5q-80 6 -108.5 44t-14 81z" />
<glyph unicode="|" horiz-adv-x="512" d="M131 4v1497q0 61 38 92t84 31t85 -31t39 -92v-1497q0 -61 -39 -92t-85 -31t-84 31t-38 92z" />
<glyph unicode="}" horiz-adv-x="800" d="M31 -10q0 49 35.5 88t87.5 39q18 0 37.5 -8.5t39 -19.5t40.5 -21.5t46 -14.5v2q10 37 11 74q0 72 -18.5 159t-18.5 171q0 59 16.5 113.5t61.5 97.5q-53 37 -74 88t-21 110q0 49 10.5 99.5t21.5 98.5t21.5 92t10.5 79q0 33 -10 51q-25 -4 -48.5 -15t-46 -22.5t-45 -20.5 t-45.5 -9q-47 0 -77.5 30.5t-30.5 75.5q0 20 16.5 55t52 68t91 56.5t133.5 23.5q57 0 105 -21.5t83 -59.5t54.5 -90t19.5 -114q0 -59 -19 -123q-4 -16 -13 -48t-18.5 -69.5t-16.5 -76.5t-7 -68q0 -23 11.5 -33t27.5 -14t34.5 -4h33.5q25 0 37 1t18 1t7 1t3 1q63 0 95 -41 t32 -90q0 -47 -29.5 -87t-91.5 -44h-22q-27 0 -55.5 -1t-51 -9.5t-38 -23.5t-15.5 -44q0 -33 8 -78t18.5 -97t18.5 -107.5t8 -106.5q0 -76 -21.5 -129t-55 -87t-76.5 -49.5t-86 -15.5q-41 0 -92.5 14.5t-96.5 39t-75.5 58.5t-30.5 75z" />
<glyph unicode="~" horiz-adv-x="1005" d="M23 1032q0 18 2 29q14 76 43.5 136t68.5 102t87 64.5t100 22.5q59 0 118.5 -29.5t114.5 -94.5q23 -27 46.5 -55.5t51.5 -51.5q20 2 47 32t31 75q6 55 43 81.5t78 26.5q47 0 86 -30.5t39 -90.5q0 -70 -28.5 -132t-75 -110.5t-101.5 -76t-110 -27.5q-57 0 -101.5 24.5 t-81.5 59.5t-71.5 76t-71.5 74q-14 -4 -36.5 -28t-35.5 -93q-10 -53 -44 -78t-75 -25q-47 0 -85.5 32t-38.5 87z" />
<glyph unicode="&#xa1;" horiz-adv-x="681" d="M129 -74l53 948q6 53 40 78t75 25q45 0 83 -29.5t38 -83.5q0 -4 -1 -10t-1 -10q-6 -121 -12.5 -229.5t-12.5 -214t-11 -215t-11 -230.5q-4 -82 -38 -116t-75 -34q-47 0 -87 35t-40 86zM172 1233q0 16 6 40.5t21.5 48.5t41 41t64.5 17q29 0 54.5 -12t45 -32.5t32 -44 t14.5 -46.5q0 -29 -12.5 -55.5t-33 -47t-48 -33.5t-56.5 -13q-16 0 -38.5 7t-42 23.5t-34 43t-14.5 63.5z" />
<glyph unicode="&#xa8;" horiz-adv-x="1019" d="M160 1343q0 61 47 103.5t104 42.5q49 0 92 -37t43 -90q0 -59 -39.5 -105.5t-105.5 -46.5q-27 0 -52.5 10.5t-45 29t-31.5 43t-12 50.5zM584 1335q0 59 42 103.5t107 44.5q51 0 92 -42t41 -98q0 -31 -13 -56t-34.5 -43.5t-49 -30t-56.5 -11.5q-49 0 -89 40t-40 93z" />
<glyph unicode="&#xa9;" horiz-adv-x="1562" d="M68 584q0 156 61 303t167.5 261t247 182.5t298.5 68.5q125 0 242.5 -43t207.5 -127t145.5 -208t55.5 -286q0 -166 -70.5 -306t-181.5 -243.5t-245 -161t-263 -57.5q-127 0 -246.5 42t-213 122t-149.5 194.5t-56 258.5zM242 584q0 -100 40 -182.5t107.5 -140.5t156.5 -90 t187 -32t201.5 47t188.5 128t138.5 189.5t53.5 231.5t-40 214t-106.5 151.5t-151.5 91.5t-175 31q-135 0 -246 -59.5t-189.5 -152.5t-121.5 -207t-43 -220zM379 645q0 82 28.5 162t82 142.5t130 101.5t173.5 39q43 0 95 -11.5t99 -33t79 -51t32 -64.5t-31 -58.5t-68 -23.5 q-16 0 -31.5 5t-25.5 15q-68 49 -149 50q-55 0 -97.5 -25t-72 -62.5t-45 -87t-15.5 -98.5q0 -43 10.5 -83t34 -70.5t59 -49t87.5 -18.5q59 0 111.5 34t76.5 81q14 29 34.5 39t43.5 10q35 0 65.5 -23.5t30.5 -60.5q2 -18 -14.5 -45t-26.5 -39q-25 -31 -59.5 -61.5t-75.5 -54 t-88 -39t-98 -15.5q-72 0 -139.5 24.5t-120 73.5t-84 123t-31.5 174z" />
<glyph unicode="&#xaa;" horiz-adv-x="937" d="M57 825q0 70 24.5 120t68 84t101.5 50.5t128 16.5q84 0 153 -15q-2 57 -35.5 85t-70.5 28q-55 0 -99 -12.5t-79 -34.5q-25 -16 -46.5 -27.5t-41.5 -11.5q-41 0 -63.5 30.5t-22.5 65.5q0 29 12 46.5t31 33.5h-2q74 59 150.5 77.5t168.5 18.5q66 0 120 -23.5t92 -64.5 t59.5 -97t21.5 -122q-8 -94 -12 -162.5t-8 -140.5v-2l34 27q12 8 26.5 15t37.5 7q39 0 65.5 -28.5t26.5 -65.5q0 -27 -26.5 -56.5t-65.5 -55t-82 -43t-76 -17.5q-82 0 -112 61q-41 -23 -88.5 -40t-94.5 -17q-61 0 -115.5 16.5t-94.5 50t-62.5 84t-22.5 119.5zM240 825 q0 -53 32.5 -68.5t79.5 -15.5q20 0 44 9.5t46.5 22.5t44 29.5t37.5 31.5l2 75q-39 8 -73.5 13.5t-73.5 5.5q-57 0 -98 -22.5t-41 -80.5z" />
<glyph unicode="&#xad;" horiz-adv-x="747" d="M4 567q0 45 29.5 82t89.5 37h463q59 0 89 -37t30 -82t-30 -81.5t-89 -36.5h-463q-59 0 -89 36.5t-30 81.5z" />
<glyph unicode="&#xae;" horiz-adv-x="1562" d="M57 575q0 135 58.5 279.5t164 263.5t252 196t322.5 77q123 0 237.5 -43t201.5 -127t139.5 -208t52.5 -286q0 -164 -72 -304t-184.5 -242.5t-247.5 -162t-264 -59.5q-127 0 -246 42t-211 122t-147.5 194.5t-55.5 257.5zM219 575q0 -102 40 -185t108.5 -142.5t158.5 -92 t191 -32.5q98 0 205.5 47t195.5 129t145.5 192.5t57.5 235.5q0 123 -39 216t-103.5 155.5t-148.5 93.5t-176 31q-137 0 -253 -60.5t-201 -155t-133 -209t-48 -223.5zM514 313l12 596q-2 6 -2 27q0 90 40 117.5t149 27.5q53 0 110.5 -9t105.5 -31.5t78.5 -64.5t30.5 -106 q0 -51 -37.5 -107t-103.5 -97l152 -230q10 -16 10 -39q0 -35 -31 -59.5t-65 -24.5q-45 0 -76 43l-156 234q-6 -2 -16 -2q0 -31 -1 -72t-1 -80q-4 -33 -5 -68.5t-10.5 -65.5t-30 -49.5t-61.5 -19.5q-29 0 -61.5 19.5t-30.5 60.5zM711 924q0 -49 1 -83t1 -83q23 8 47 20.5 t45.5 27.5t35 31.5t13.5 32.5q0 33 -39 43.5t-78 10.5h-26z" />
<glyph unicode="&#xaf;" horiz-adv-x="1107" d="M133 1407q0 43 30 79t91 36h575q59 0 90 -36t31 -79t-31 -79t-90 -36h-575q-61 0 -91 36t-30 79z" />
<glyph unicode="&#xb4;" horiz-adv-x="1120" d="M289 1243q0 55 45 101.5t108.5 83t130 64.5t109.5 46q16 6 33.5 11t38.5 5q53 0 82.5 -34.5t29.5 -81.5q0 -39 -17.5 -62.5t-44 -41t-58 -29t-62.5 -25.5q-35 -16 -79 -36.5t-87 -39t-79 -31t-54 -12.5q-51 0 -73.5 23.5t-22.5 58.5z" />
<glyph unicode="&#xb8;" horiz-adv-x="1013" d="M293 -397q0 29 28.5 56.5t67.5 27.5q35 0 64.5 -18.5t62.5 -18.5q29 0 47.5 12t18.5 41q0 31 -17.5 42t-34.5 11q-6 0 -21 -2t-32 -6q-31 -6 -55 -6q-20 0 -41 1t-36 9t-24.5 23.5t-9.5 46.5q-2 16 12.5 48t30.5 73v-2l29 73q12 27 43 51.5t82 24.5q12 0 26.5 -7 t23.5 -19.5t12 -28t-3 -29.5l-45 -98q16 0 32.5 1t31.5 -1q78 -8 129 -61.5t51 -143.5q0 -53 -20.5 -95t-56.5 -71t-83 -44t-100 -15q-29 0 -66 8t-69.5 23.5t-55 39t-22.5 54.5z" />
<glyph unicode="&#xba;" horiz-adv-x="790" d="M37 983q0 80 24.5 151.5t69.5 127t108.5 88t139.5 32.5q88 0 157.5 -31.5t116.5 -86t73 -128t26 -157.5t-26 -160t-74 -133t-118.5 -92t-160.5 -35q-86 0 -149.5 33t-105.5 90t-61.5 134t-19.5 167zM225 983q0 -37 8.5 -78t25.5 -75.5t45 -57t69 -22.5q45 0 80.5 19 t59.5 52t36 74t12 84q0 86 -46 150.5t-136 64.5q-35 0 -63.5 -21.5t-48 -53.5t-31 -68.5t-11.5 -67.5z" />
<glyph unicode="&#xbf;" horiz-adv-x="1009" d="M70 326q0 74 26.5 127t67.5 92t88 66.5t88 52t67.5 48t26.5 56.5v8q-16 70 18.5 106t84 36t92.5 -37t43 -113t-28 -130t-67.5 -93t-88 -66.5t-88.5 -51.5t-67.5 -47.5t-27.5 -53.5q0 -86 41 -126t146 -40q68 0 126 55t80 143q14 55 48 83t72 26t70 -30.5t42 -86.5 l31 -190q6 -45 -11.5 -76t-46.5 -46t-63.5 -15t-63.5 18q-55 -51 -126.5 -84t-157.5 -33q-90 0 -167 24.5t-134.5 75t-89 125t-31.5 177.5zM373 1171q0 37 15 67t39 49.5t52.5 29.5t52.5 10q59 0 101.5 -42.5t40.5 -108.5t-44 -111t-102 -45q-25 0 -51 9t-50 27.5t-39 47.5 t-15 67z" />
<glyph unicode="&#xc0;" horiz-adv-x="1411" d="M-10 102q0 51 31.5 85t82.5 34h15q10 -2 28 -2q14 39 28.5 77t31.5 75q33 86 65.5 169t67.5 169l156 383q20 49 41.5 103t44.5 101q16 35 39.5 64t68.5 29t69.5 -30t41.5 -65q14 -31 25.5 -64.5t21.5 -64.5l115 -301l182 -481q14 -37 27.5 -74t29.5 -73q10 2 19.5 2h19.5 h8q53 2 85 -33t32 -86t-30.5 -82t-82.5 -35q-80 -6 -172 -5t-176 1q-49 0 -83 29.5t-34 83.5q0 51 34 80.5t83 29.5h58l-33 86l-510 -6l-14 -41q-10 -25 -21 -53h66q49 0 81.5 -32t32.5 -81t-24.5 -73.5t-61.5 -34t-79 -8t-74 1.5h-114.5t-115.5 6q-47 6 -76.5 36.5 t-29.5 79.5zM260 1743q-6 47 19.5 87t74.5 46q25 4 48.5 -2t46.5 -16q33 -16 95 -49t123.5 -73t109.5 -81t52 -74q6 -45 -11 -76.5t-50 -36.5q-35 -4 -102.5 18.5t-138 55.5t-131 65.5t-83.5 49.5q-20 12 -34.5 36.5t-18.5 49.5zM516 537l324 4q-39 102 -78 202.5t-78 204.5 z" />
<glyph unicode="&#xc1;" horiz-adv-x="1411" d="M-10 102q0 51 31.5 85t82.5 34h15q10 -2 28 -2q14 39 28.5 77t31.5 75q33 86 65.5 169t67.5 169l156 383q20 49 41.5 103t44.5 101q16 35 39.5 64t68.5 29t69.5 -30t41.5 -65q14 -31 25.5 -64.5t21.5 -64.5l115 -301l182 -481q14 -37 27.5 -74t29.5 -73q10 2 19.5 2h19.5 h8q53 2 85 -33t32 -86t-30.5 -82t-82.5 -35q-80 -6 -172 -5t-176 1q-49 0 -83 29.5t-34 83.5q0 51 34 80.5t83 29.5h58l-33 86l-510 -6l-14 -41q-10 -25 -21 -53h66q49 0 81.5 -32t32.5 -81t-24.5 -73.5t-61.5 -34t-79 -8t-74 1.5h-114.5t-115.5 6q-47 6 -76.5 36.5 t-29.5 79.5zM500 1540q0 55 45 101.5t108.5 83t130 64.5t109.5 46q16 6 33.5 11t38.5 5q53 0 82.5 -34.5t29.5 -81.5q0 -39 -17.5 -62.5t-44 -41t-58 -29t-62.5 -25.5q-35 -16 -79 -36.5t-87 -39t-79 -31t-54 -12.5q-51 0 -73.5 23.5t-22.5 58.5zM516 537l324 4 q-39 102 -78 202.5t-78 204.5z" />
<glyph unicode="&#xc2;" horiz-adv-x="1411" d="M-10 102q0 51 31.5 85t82.5 34h15q10 -2 28 -2q14 39 28.5 77t31.5 75q33 86 65.5 169t67.5 169l156 383q20 49 41.5 103t44.5 101q16 35 39.5 64t68.5 29t69.5 -30t41.5 -65q14 -31 25.5 -64.5t21.5 -64.5l115 -301l182 -481q14 -37 27.5 -74t29.5 -73q10 2 19.5 2h19.5 h8q53 2 85 -33t32 -86t-30.5 -82t-82.5 -35q-80 -6 -172 -5t-176 1q-49 0 -83 29.5t-34 83.5q0 51 34 80.5t83 29.5h58l-33 86l-510 -6l-14 -41q-10 -25 -21 -53h66q49 0 81.5 -32t32.5 -81t-24.5 -73.5t-61.5 -34t-79 -8t-74 1.5h-114.5t-115.5 6q-47 6 -76.5 36.5 t-29.5 79.5zM358 1532q0 29 25 63l176 209q51 63 85 78.5t67 15.5q35 0 71.5 -23.5t89.5 -90.5l158 -178q23 -31 23 -64q0 -45 -37 -75.5t-84 -30.5q-25 0 -48.5 10t-41.5 35l-131 151l-140 -162q-18 -25 -41.5 -36t-48.5 -11q-47 0 -85 32t-38 77zM516 537l324 4 q-39 102 -78 202.5t-78 204.5z" />
<glyph unicode="&#xc3;" horiz-adv-x="1411" d="M-10 102q0 51 31.5 85t82.5 34h15q10 -2 28 -2q14 39 28.5 77t31.5 75q33 86 65.5 169t67.5 169l156 383q20 49 41.5 103t44.5 101q16 35 39.5 64t68.5 29t69.5 -30t41.5 -65q14 -31 25.5 -64.5t21.5 -64.5l115 -301l182 -481q14 -37 27.5 -74t29.5 -73q10 2 19.5 2h19.5 h8q53 2 85 -33t32 -86t-30.5 -82t-82.5 -35q-80 -6 -172 -5t-176 1q-49 0 -83 29.5t-34 83.5q0 51 34 80.5t83 29.5h58l-33 86l-510 -6l-14 -41q-10 -25 -21 -53h66q49 0 81.5 -32t32.5 -81t-24.5 -73.5t-61.5 -34t-79 -8t-74 1.5h-114.5t-115.5 6q-47 6 -76.5 36.5 t-29.5 79.5zM270 1614q0 12 2 20q23 109 92.5 175.5t155.5 66.5q49 0 98.5 -20.5t96.5 -67.5q20 -18 42.5 -51t47.5 -41q27 2 39 27.5t24.5 54t32 53t62.5 24.5q39 0 70.5 -22.5t31.5 -63.5q0 -49 -23.5 -99t-61.5 -90t-85 -64.5t-92 -24.5q-47 0 -84 17.5t-67.5 43 t-59.5 55t-60 52.5q-12 -2 -31.5 -19.5t-29.5 -66.5q-8 -39 -35.5 -56.5t-62.5 -17.5q-18 0 -37 10.5t-33 26.5t-23.5 36.5t-9.5 41.5zM516 537l324 4q-39 102 -78 202.5t-78 204.5z" />
<glyph unicode="&#xc4;" horiz-adv-x="1411" d="M-10 102q0 51 31.5 85t82.5 34h15q10 -2 28 -2q14 39 28.5 77t31.5 75q33 86 65.5 169t67.5 169l156 383q20 49 41.5 103t44.5 101q16 35 39.5 64t68.5 29t69.5 -30t41.5 -65q14 -31 25.5 -64.5t21.5 -64.5l115 -301l182 -481q14 -37 27.5 -74t29.5 -73q10 2 19.5 2h19.5 h8q53 2 85 -33t32 -86t-30.5 -82t-82.5 -35q-80 -6 -172 -5t-176 1q-49 0 -83 29.5t-34 83.5q0 51 34 80.5t83 29.5h58l-33 86l-510 -6l-14 -41q-10 -25 -21 -53h66q49 0 81.5 -32t32.5 -81t-24.5 -73.5t-61.5 -34t-79 -8t-74 1.5h-114.5t-115.5 6q-47 6 -76.5 36.5 t-29.5 79.5zM338 1597q0 61 47 103.5t104 42.5q49 0 92.5 -37t43.5 -90q0 -59 -40 -105.5t-106 -46.5q-27 0 -52.5 10.5t-45 29t-31.5 43t-12 50.5zM516 537l324 4q-39 102 -78 202.5t-78 204.5zM762 1589q0 59 42 103.5t107 44.5q51 0 92 -42t41 -98q0 -31 -13 -56 t-34.5 -43.5t-49 -30t-56.5 -11.5q-49 0 -89 40t-40 93z" />
<glyph unicode="&#xc5;" horiz-adv-x="1411" d="M-10 102q0 51 31.5 85t82.5 34h15q10 -2 28 -2q14 39 28.5 77t31.5 75q33 86 65.5 169t67.5 169l156 383q20 49 41.5 103t44.5 101q16 35 39.5 64t68.5 29t69.5 -30t41.5 -65q14 -31 25.5 -64.5t21.5 -64.5l115 -301l182 -481q14 -37 27.5 -74t29.5 -73q10 2 19.5 2h19.5 h8q53 2 85 -33t32 -86t-30.5 -82t-82.5 -35q-80 -6 -172 -5t-176 1q-49 0 -83 29.5t-34 83.5q0 51 34 80.5t83 29.5h58l-33 86l-510 -6l-14 -41q-10 -25 -21 -53h66q49 0 81.5 -32t32.5 -81t-24.5 -73.5t-61.5 -34t-79 -8t-74 1.5h-114.5t-115.5 6q-47 6 -76.5 36.5 t-29.5 79.5zM385 1686q0 55 18.5 102t56.5 82t97 55.5t139 20.5q70 0 126.5 -21.5t96 -57.5t61 -81t21.5 -90q0 -117 -88 -183.5t-229 -66.5q-63 0 -118.5 17.5t-95.5 49t-62.5 75.5t-22.5 98zM516 537l324 4q-39 102 -78 202.5t-78 204.5zM567 1686q0 -29 32 -53.5 t87 -24.5q66 0 94.5 29.5t28.5 62.5q0 35 -29.5 64.5t-81.5 29.5q-74 0 -102.5 -35t-28.5 -73z" />
<glyph unicode="&#xc7;" horiz-adv-x="1206" d="M35 670q0 106 26.5 207.5t79 186.5t130 151.5t180.5 105.5q49 18 99 28.5t101 10.5q72 0 142.5 -22.5t134.5 -59.5q10 39 38.5 62.5t73.5 23.5q51 0 86 -32t35 -83q0 -12 -2 -18q-12 -104 -20.5 -192.5t-14.5 -192.5q-4 -51 -34.5 -83t-83.5 -32q-49 0 -83 32t-34 83 q0 80 6 164q-59 47 -121.5 78.5t-142.5 31.5q-92 0 -160 -44t-112 -112.5t-65.5 -152.5t-21.5 -164q0 -90 21.5 -167t68 -133t116 -88t165.5 -32q84 0 156.5 21.5t146.5 56.5q16 6 28.5 10t29.5 4q49 0 81.5 -37.5t32.5 -84.5q0 -37 -17.5 -60.5t-47.5 -42.5 q-86 -47 -192.5 -77.5t-205.5 -34.5l-32 -74q16 0 32.5 1t30.5 -1q78 -8 129 -61.5t51 -143.5q0 -53 -20.5 -95t-56 -71t-83 -44t-100.5 -15q-29 0 -65.5 8t-69.5 23.5t-55.5 39t-22.5 54.5q0 29 29 56.5t67 27.5q35 0 65 -18.5t62 -18.5q29 0 47.5 12t18.5 41 q0 31 -17.5 42t-33.5 11q-6 0 -21.5 -2t-31.5 -6q-31 -6 -56 -6q-20 0 -40.5 1t-36 9t-24.5 23.5t-9 46.5q-2 16 12 48t31 73v-2l22 61q-106 29 -188 94.5t-138.5 155.5t-86 197.5t-29.5 220.5z" />
<glyph unicode="&#xc8;" horiz-adv-x="1064" d="M-18 97q-2 44 26.5 82t87.5 40h80l4 887h-63q-59 0 -88 37t-29 82t30 81.5t89 36.5h131h114.5t102.5 3q41 0 106.5 1t126.5 3q72 2 150 2q55 0 81.5 -34t36 -82t8.5 -100.5t-1 -84.5q0 -59 -36 -89t-80 -31t-82 27.5t-38 88.5q-2 12 -2 29.5v37.5l-321 -6l-2 -303l254 6 q59 2 88.5 -35t30.5 -81t-27.5 -82t-87.5 -38l-260 -6v-348q92 0 182 -1t156 -1q2 25 2 46.5v33.5q-4 59 29.5 91t77.5 35t83 -23.5t43 -86.5q2 -35 4 -90t-9 -109.5t-39 -93t-83 -38.5q-182 2 -338 2h-132h-122.5t-99.5 -1t-62 -1q-59 -2 -89.5 33.5t-32.5 79.5zM86 1698 q-6 47 19.5 87t74.5 46q25 4 48.5 -2t45.5 -17q33 -16 95.5 -48.5t124 -72.5t109.5 -81t52 -74q6 -45 -11 -77t-50 -36q-35 -4 -102.5 18.5t-138 55.5t-131 65.5t-83.5 49.5q-20 12 -34.5 36.5t-18.5 49.5z" />
<glyph unicode="&#xc9;" horiz-adv-x="1064" d="M-18 97q-2 44 26.5 82t87.5 40h80l4 887h-63q-59 0 -88 37t-29 82t30 81.5t89 36.5h131h114.5t102.5 3q41 0 106.5 1t126.5 3q72 2 150 2q55 0 81.5 -34t36 -82t8.5 -100.5t-1 -84.5q0 -59 -36 -89t-80 -31t-82 27.5t-38 88.5q-2 12 -2 29.5v37.5l-321 -6l-2 -303l254 6 q59 2 88.5 -35t30.5 -81t-27.5 -82t-87.5 -38l-260 -6v-348q92 0 182 -1t156 -1q2 25 2 46.5v33.5q-4 59 29.5 91t77.5 35t83 -23.5t43 -86.5q2 -35 4 -90t-9 -109.5t-39 -93t-83 -38.5q-182 2 -338 2h-132h-122.5t-99.5 -1t-62 -1q-59 -2 -89.5 33.5t-32.5 79.5zM266 1493 q0 55 45 101t108.5 83t130 64.5t109.5 46.5q16 6 34 11t38 5q53 0 83 -34.5t30 -81.5q0 -39 -17.5 -62.5t-44 -41t-58.5 -29t-62 -25.5q-35 -16 -79 -36.5t-87 -39t-79 -31t-55 -12.5q-51 0 -73.5 23.5t-22.5 58.5z" />
<glyph unicode="&#xca;" horiz-adv-x="1064" d="M-18 97q-2 44 26.5 82t87.5 40h80l4 887h-63q-59 0 -88 37t-29 82t30 81.5t89 36.5h131h114.5t102.5 3q41 0 106.5 1t126.5 3q72 2 150 2q55 0 81.5 -34t36 -82t8.5 -100.5t-1 -84.5q0 -59 -36 -89t-80 -31t-82 27.5t-38 88.5q-2 12 -2 29.5v37.5l-321 -6l-2 -303l254 6 q59 2 88.5 -35t30.5 -81t-27.5 -82t-87.5 -38l-260 -6v-348q92 0 182 -1t156 -1q2 25 2 46.5v33.5q-4 59 29.5 91t77.5 35t83 -23.5t43 -86.5q2 -35 4 -90t-9 -109.5t-39 -93t-83 -38.5q-182 2 -338 2h-132h-122.5t-99.5 -1t-62 -1q-59 -2 -89.5 33.5t-32.5 79.5zM143 1518 q0 29 25 63l176 209q51 63 85 78.5t67 15.5q35 0 71.5 -23.5t89.5 -91.5l158 -178q23 -31 23 -63q0 -45 -37 -76t-84 -31q-25 0 -48.5 10.5t-41.5 34.5l-131 152l-140 -162q-18 -25 -41.5 -36t-48.5 -11q-47 0 -85 32t-38 77z" />
<glyph unicode="&#xcb;" horiz-adv-x="1064" d="M-18 97q-2 44 26.5 82t87.5 40h80l4 887h-63q-59 0 -88 37t-29 82t30 81.5t89 36.5h131h114.5t102.5 3q41 0 106.5 1t126.5 3q72 2 150 2q55 0 81.5 -34t36 -82t8.5 -100.5t-1 -84.5q0 -59 -36 -89t-80 -31t-82 27.5t-38 88.5q-2 12 -2 29.5v37.5l-321 -6l-2 -303l254 6 q59 2 88.5 -35t30.5 -81t-27.5 -82t-87.5 -38l-260 -6v-348q92 0 182 -1t156 -1q2 25 2 46.5v33.5q-4 59 29.5 91t77.5 35t83 -23.5t43 -86.5q2 -35 4 -90t-9 -109.5t-39 -93t-83 -38.5q-182 2 -338 2h-132h-122.5t-99.5 -1t-62 -1q-59 -2 -89.5 33.5t-32.5 79.5zM143 1575 q0 61 47.5 103t104.5 42q49 0 92 -36.5t43 -90.5q0 -59 -40 -105t-105 -46q-27 0 -52.5 10t-45 28.5t-32 43t-12.5 51.5zM567 1567q0 59 42 103t108 44q51 0 92 -42t41 -97q0 -31 -13.5 -56.5t-35 -44t-49 -29.5t-56.5 -11q-49 0 -89 39.5t-40 93.5z" />
<glyph unicode="&#xcc;" horiz-adv-x="862" d="M72 1248q4 44 36.5 78t92.5 28q39 -4 101.5 -7.5t129 -3.5t128 3.5t95.5 11.5q57 12 94 -17.5t46.5 -72.5t-12 -86t-78.5 -56q-31 -8 -71 -11t-85 -5q-8 -94 -12.5 -214t-6.5 -243t-1 -237.5t6 -198.5q41 0 77.5 -1t71.5 -3q57 -4 85 -43t25 -83t-35 -79t-91 -31 q-57 4 -126 4.5t-132.5 -2t-114.5 -6.5t-76 -8q-57 -10 -93 21.5t-43 74.5t14.5 85t80.5 53q20 4 51 6t68 6q-4 86 -4 200.5t2 237.5t6 243t12 218q-41 2 -76.5 3t-58.5 5q-59 6 -84.5 46t-21.5 84zM94 1706q-6 47 19.5 87t74.5 46q25 4 48.5 -2t46.5 -16q33 -16 95 -49 t123.5 -73t110 -81t52.5 -74q6 -45 -11.5 -76.5t-50.5 -35.5q-35 -4 -102.5 18.5t-138 55t-131 65.5t-83.5 49q-20 12 -34.5 36.5t-18.5 49.5z" />
<glyph unicode="&#xcd;" horiz-adv-x="862" d="M72 1248q4 44 36.5 78t92.5 28q39 -4 101.5 -7.5t129 -3.5t128 3.5t95.5 11.5q57 12 94 -17.5t46.5 -72.5t-12 -86t-78.5 -56q-31 -8 -71 -11t-85 -5q-8 -94 -12.5 -214t-6.5 -243t-1 -237.5t6 -198.5q41 0 77.5 -1t71.5 -3q57 -4 85 -43t25 -83t-35 -79t-91 -31 q-57 4 -126 4.5t-132.5 -2t-114.5 -6.5t-76 -8q-57 -10 -93 21.5t-43 74.5t14.5 85t80.5 53q20 4 51 6t68 6q-4 86 -4 200.5t2 237.5t6 243t12 218q-41 2 -76.5 3t-58.5 5q-59 6 -84.5 46t-21.5 84zM186 1507q0 55 45 101.5t108.5 83.5t130.5 64.5t110 45.5q16 6 33.5 11.5 t37.5 5.5q53 0 83 -35t30 -82q0 -39 -17.5 -62.5t-44 -41t-58.5 -28.5t-62 -26q-35 -16 -79 -36.5t-87 -39t-79 -31t-54 -12.5q-51 0 -74 23.5t-23 58.5z" />
<glyph unicode="&#xce;" horiz-adv-x="862" d="M72 1248q4 44 36.5 78t92.5 28q39 -4 101.5 -7.5t129 -3.5t128 3.5t95.5 11.5q57 12 94 -17.5t46.5 -72.5t-12 -86t-78.5 -56q-31 -8 -71 -11t-85 -5q-8 -94 -12.5 -214t-6.5 -243t-1 -237.5t6 -198.5q41 0 77.5 -1t71.5 -3q57 -4 85 -43t25 -83t-35 -79t-91 -31 q-57 4 -126 4.5t-132.5 -2t-114.5 -6.5t-76 -8q-57 -10 -93 21.5t-43 74.5t14.5 85t80.5 53q20 4 51 6t68 6q-4 86 -4 200.5t2 237.5t6 243t12 218q-41 2 -76.5 3t-58.5 5q-59 6 -84.5 46t-21.5 84zM84 1532q0 29 25 63l176 209q51 63 84.5 78.5t66.5 15.5q35 0 72 -23.5 t90 -90.5l158 -178q23 -31 22 -64q0 -45 -36.5 -75.5t-84.5 -30.5q-25 0 -48 10t-42 35l-131 151l-139 -162q-18 -25 -42 -36t-48 -11q-47 0 -85 32t-38 77z" />
<glyph unicode="&#xcf;" horiz-adv-x="862" d="M72 1248q4 44 36.5 78t92.5 28q39 -4 101.5 -7.5t129 -3.5t128 3.5t95.5 11.5q57 12 94 -17.5t46.5 -72.5t-12 -86t-78.5 -56q-31 -8 -71 -11t-85 -5q-8 -94 -12.5 -214t-6.5 -243t-1 -237.5t6 -198.5q41 0 77.5 -1t71.5 -3q57 -4 85 -43t25 -83t-35 -79t-91 -31 q-57 4 -126 4.5t-132.5 -2t-114.5 -6.5t-76 -8q-57 -10 -93 21.5t-43 74.5t14.5 85t80.5 53q20 4 51 6t68 6q-4 86 -4 200.5t2 237.5t6 243t12 218q-41 2 -76.5 3t-58.5 5q-59 6 -84.5 46t-21.5 84zM80 1583q0 61 47 103.5t104 42.5q49 0 92.5 -37t43.5 -90 q0 -59 -40 -105.5t-106 -46.5q-27 0 -52.5 10t-45 28.5t-31.5 43t-12 51.5zM504 1575q0 59 42 103t107 44q51 0 92 -42t41 -97q0 -31 -13 -56.5t-34.5 -44t-49 -29.5t-56.5 -11q-49 0 -89 40t-40 93z" />
<glyph unicode="&#xd1;" horiz-adv-x="1341" d="M23 98q0 41 25.5 75t78.5 40l72 6q-2 86 -2 222.5v281.5v424h-31q-66 -2 -92.5 30.5t-26.5 73.5q0 47 26.5 89t63.5 42q20 0 49 1t62 1q49 2 94 -7t68 -38l589 -782q0 78 1 158t2.5 155.5t2.5 142t3 120.5h-103q-59 0 -89 36.5t-30 81.5t30 82t89 37q33 0 80 1t97.5 1 t95.5 1t71 1q57 0 87 -37t30 -82q0 -43 -27.5 -77.5t-85.5 -38.5q-4 0 -5 -1t-5 -1q-2 -66 -4 -158t-3 -195.5t-2 -209t-2 -198.5t-1 -165v-105q0 -59 -36 -87.5t-81 -28.5t-82 29.5t-37 89.5v71l-563 742v-260v-252t2 -191q100 -6 136 -30.5t36 -90.5q0 -47 -30.5 -82.5 t-92.5 -35.5q-20 0 -68 3t-108 3q-43 0 -87 -5.5t-81 -5.5q-57 0 -86.5 38t-29.5 85zM260 1530q0 12 2 20q23 109 92.5 175.5t155.5 66.5q49 0 98 -20.5t97 -67.5q20 -18 42.5 -51t47.5 -41q27 2 39 27.5t24 54t31.5 53.5t62.5 25q39 0 71 -23t32 -63q0 -49 -23.5 -99.5 t-61.5 -90.5t-85 -64.5t-92 -24.5q-47 0 -84 17.5t-68 43t-59.5 55t-59.5 52.5q-12 -2 -31.5 -19.5t-29.5 -66.5q-8 -39 -36 -56.5t-63 -17.5q-18 0 -36.5 10.5t-32.5 26.5t-23.5 36.5t-9.5 41.5z" />
<glyph unicode="&#xd2;" d="M25 580q-6 168 43 314t136 253.5t200.5 170t236.5 62.5q143 0 248.5 -72.5t175.5 -182t104.5 -239.5t34.5 -247q2 -193 -59.5 -324t-153.5 -211.5t-201.5 -114.5t-203.5 -30q-78 2 -172.5 34t-178 103.5t-143 189t-67.5 294.5zM260 590q4 -115 43 -189.5t91 -119.5 t108.5 -64.5t97.5 -21.5q49 -4 113.5 16t121 72.5t95.5 138.5t39 215q-2 106 -30 198.5t-73 161t-103 108.5t-122 40q-63 0 -133 -38t-127 -109.5t-92 -174t-29 -233.5zM272 1718q-6 47 19.5 87t75.5 46q25 4 48 -2t46 -16q33 -16 95 -49t123.5 -73t110 -81t52.5 -74 q6 -45 -11.5 -76.5t-50.5 -35.5q-35 -4 -102.5 18.5t-138 55t-131 65.5t-82.5 49q-20 12 -35 37t-19 49z" />
<glyph unicode="&#xd3;" d="M25 580q-6 168 43 314t136 253.5t200.5 170t236.5 62.5q143 0 248.5 -72.5t175.5 -182t104.5 -239.5t34.5 -247q2 -193 -59.5 -324t-153.5 -211.5t-201.5 -114.5t-203.5 -30q-78 2 -172.5 34t-178 103.5t-143 189t-67.5 294.5zM260 590q4 -115 43 -189.5t91 -119.5 t108.5 -64.5t97.5 -21.5q49 -4 113.5 16t121 72.5t95.5 138.5t39 215q-2 106 -30 198.5t-73 161t-103 108.5t-122 40q-63 0 -133 -38t-127 -109.5t-92 -174t-29 -233.5zM385 1511q0 55 45 101.5t108.5 83.5t130 64.5t109.5 45.5q16 6 33.5 11.5t38.5 5.5q53 0 83 -35t30 -82 q0 -39 -17.5 -62.5t-44.5 -41t-58.5 -28.5t-62.5 -26q-35 -16 -79 -36.5t-87 -39t-78.5 -30.5t-54.5 -12q-51 0 -73.5 23t-22.5 58z" />
<glyph unicode="&#xd4;" d="M25 580q-6 168 43 314t136 253.5t200.5 170t236.5 62.5q143 0 248.5 -72.5t175.5 -182t104.5 -239.5t34.5 -247q2 -193 -59.5 -324t-153.5 -211.5t-201.5 -114.5t-203.5 -30q-78 2 -172.5 34t-178 103.5t-143 189t-67.5 294.5zM260 590q4 -115 43 -189.5t91 -119.5 t108.5 -64.5t97.5 -21.5q49 -4 113.5 16t121 72.5t95.5 138.5t39 215q-2 106 -30 198.5t-73 161t-103 108.5t-122 40q-63 0 -133 -38t-127 -109.5t-92 -174t-29 -233.5zM270 1518q0 29 25 63l176 209q51 63 85 78.5t67 15.5q35 0 71.5 -23.5t89.5 -91.5l158 -178 q23 -31 23 -63q0 -45 -37 -76t-84 -31q-25 0 -48.5 10.5t-41.5 34.5l-131 152l-140 -162q-18 -25 -41.5 -36t-48.5 -11q-47 0 -85 32t-38 77z" />
<glyph unicode="&#xd5;" d="M25 580q-6 168 43 314t136 253.5t200.5 170t236.5 62.5q143 0 248.5 -72.5t175.5 -182t104.5 -239.5t34.5 -247q2 -193 -59.5 -324t-153.5 -211.5t-201.5 -114.5t-203.5 -30q-78 2 -172.5 34t-178 103.5t-143 189t-67.5 294.5zM199 1591q0 12 2 21q23 109 92 175t156 66 q49 0 98 -20.5t96 -67.5q20 -18 43 -51t47 -41q27 2 39 27.5t24.5 54.5t32 53.5t62.5 24.5q39 0 70.5 -22.5t31.5 -63.5q0 -49 -23.5 -99.5t-61.5 -90t-85 -64.5t-92 -25q-47 0 -84 17.5t-67.5 43t-59 55t-59.5 52.5q-12 -2 -31.5 -19.5t-30.5 -66.5q-8 -39 -35.5 -56 t-62.5 -17q-18 0 -36.5 10t-33 26.5t-23.5 37t-9 40.5zM260 590q4 -115 43 -189.5t91 -119.5t108.5 -64.5t97.5 -21.5q49 -4 113.5 16t121 72.5t95.5 138.5t39 215q-2 106 -30 198.5t-73 161t-103 108.5t-122 40q-63 0 -133 -38t-127 -109.5t-92 -174t-29 -233.5z" />
<glyph unicode="&#xd6;" d="M25 580q-6 168 43 314t136 253.5t200.5 170t236.5 62.5q143 0 248.5 -72.5t175.5 -182t104.5 -239.5t34.5 -247q2 -193 -59.5 -324t-153.5 -211.5t-201.5 -114.5t-203.5 -30q-78 2 -172.5 34t-178 103.5t-143 189t-67.5 294.5zM260 590q4 -115 43 -189.5t91 -119.5 t108.5 -64.5t97.5 -21.5q49 -4 113.5 16t121 72.5t95.5 138.5t39 215q-2 106 -30 198.5t-73 161t-103 108.5t-122 40q-63 0 -133 -38t-127 -109.5t-92 -174t-29 -233.5zM276 1583q0 61 47.5 103.5t104.5 42.5q49 0 92 -37t43 -90q0 -59 -40 -105.5t-105 -46.5 q-27 0 -52.5 10t-45 28.5t-32 43t-12.5 51.5zM700 1575q0 59 42 103t108 44q51 0 92 -42t41 -97q0 -31 -13.5 -56.5t-35 -44t-49 -29.5t-56.5 -11q-49 0 -89 40t-40 93z" />
<glyph unicode="&#xd9;" horiz-adv-x="1323" d="M27 1231q0 49 31.5 84t82.5 35h15q51 -4 101 -5.5t103 -1.5q31 0 63 1.5t64 1.5q51 0 83 -34t32 -85q0 -43 -16.5 -66.5t-43 -36t-60 -15.5t-66.5 -3q-4 -78 -7 -156t-3 -155q0 -41 1 -110t6 -143.5t14 -141t28 -99.5q29 -53 83 -77.5t111 -24.5q35 0 69 9t60 36 q33 35 52.5 109.5t28.5 158.5t11 165t2 128q0 80 -4 161t-4 160h-37q-51 0 -83.5 33t-32.5 84q0 53 32.5 86t83.5 33q86 0 172 2t172 2q53 0 85 -34t32 -85t-30.5 -81.5t-81.5 -35.5l-74 -6q6 -160 6 -319q0 -78 -4 -177.5t-19.5 -199.5t-46 -191.5t-86.5 -152.5 q-59 -61 -138 -92t-163 -31q-125 0 -237.5 60.5t-169.5 175.5q-25 51 -40.5 131t-23.5 167t-10 168.5t-2 141.5q0 72 2 140.5t6 137.5q0 6 1 12.5t1 14.5q-12 0 -23.5 1t-21.5 3q-47 6 -76.5 37t-29.5 80zM244 1702q-6 47 19.5 87t74.5 46q25 4 48.5 -2t45.5 -16 q33 -16 95.5 -49t124 -73t109.5 -81t52 -74q6 -45 -11.5 -76.5t-49.5 -36.5q-35 -4 -102.5 18.5t-138.5 55.5t-131.5 65.5t-82.5 49.5q-20 12 -34.5 36.5t-18.5 49.5z" />
<glyph unicode="&#xda;" horiz-adv-x="1323" d="M27 1231q0 49 31.5 84t82.5 35h15q51 -4 101 -5.5t103 -1.5q31 0 63 1.5t64 1.5q51 0 83 -34t32 -85q0 -43 -16.5 -66.5t-43 -36t-60 -15.5t-66.5 -3q-4 -78 -7 -156t-3 -155q0 -41 1 -110t6 -143.5t14 -141t28 -99.5q29 -53 83 -77.5t111 -24.5q35 0 69 9t60 36 q33 35 52.5 109.5t28.5 158.5t11 165t2 128q0 80 -4 161t-4 160h-37q-51 0 -83.5 33t-32.5 84q0 53 32.5 86t83.5 33q86 0 172 2t172 2q53 0 85 -34t32 -85t-30.5 -81.5t-81.5 -35.5l-74 -6q6 -160 6 -319q0 -78 -4 -177.5t-19.5 -199.5t-46 -191.5t-86.5 -152.5 q-59 -61 -138 -92t-163 -31q-125 0 -237.5 60.5t-169.5 175.5q-25 51 -40.5 131t-23.5 167t-10 168.5t-2 141.5q0 72 2 140.5t6 137.5q0 6 1 12.5t1 14.5q-12 0 -23.5 1t-21.5 3q-47 6 -76.5 37t-29.5 80zM446 1503q0 55 45.5 101.5t109 83t130 64.5t109.5 46 q16 6 33.5 11.5t37.5 5.5q53 0 83 -35t30 -82q0 -39 -17.5 -62.5t-44 -41t-58.5 -29t-62 -25.5q-35 -16 -79 -36.5t-87 -39t-79 -31t-54 -12.5q-51 0 -74 23.5t-23 58.5z" />
<glyph unicode="&#xdb;" horiz-adv-x="1323" d="M27 1231q0 49 31.5 84t82.5 35h15q51 -4 101 -5.5t103 -1.5q31 0 63 1.5t64 1.5q51 0 83 -34t32 -85q0 -43 -16.5 -66.5t-43 -36t-60 -15.5t-66.5 -3q-4 -78 -7 -156t-3 -155q0 -41 1 -110t6 -143.5t14 -141t28 -99.5q29 -53 83 -77.5t111 -24.5q35 0 69 9t60 36 q33 35 52.5 109.5t28.5 158.5t11 165t2 128q0 80 -4 161t-4 160h-37q-51 0 -83.5 33t-32.5 84q0 53 32.5 86t83.5 33q86 0 172 2t172 2q53 0 85 -34t32 -85t-30.5 -81.5t-81.5 -35.5l-74 -6q6 -160 6 -319q0 -78 -4 -177.5t-19.5 -199.5t-46 -191.5t-86.5 -152.5 q-59 -61 -138 -92t-163 -31q-125 0 -237.5 60.5t-169.5 175.5q-25 51 -40.5 131t-23.5 167t-10 168.5t-2 141.5q0 72 2 140.5t6 137.5q0 6 1 12.5t1 14.5q-12 0 -23.5 1t-21.5 3q-47 6 -76.5 37t-29.5 80zM303 1520q0 29 25 63l176 209q51 63 85 78.5t66 15.5q35 0 72 -23.5 t90 -90.5l158 -179q23 -31 22 -63q0 -45 -36.5 -76t-83.5 -31q-25 0 -48.5 10.5t-42.5 34.5l-131 152l-139 -162q-18 -25 -41.5 -36t-48.5 -11q-47 0 -85 32t-38 77z" />
<glyph unicode="&#xdc;" horiz-adv-x="1323" d="M27 1231q0 49 31.5 84t82.5 35h15q51 -4 101 -5.5t103 -1.5q31 0 63 1.5t64 1.5q51 0 83 -34t32 -85q0 -43 -16.5 -66.5t-43 -36t-60 -15.5t-66.5 -3q-4 -78 -7 -156t-3 -155q0 -41 1 -110t6 -143.5t14 -141t28 -99.5q29 -53 83 -77.5t111 -24.5q35 0 69 9t60 36 q33 35 52.5 109.5t28.5 158.5t11 165t2 128q0 80 -4 161t-4 160h-37q-51 0 -83.5 33t-32.5 84q0 53 32.5 86t83.5 33q86 0 172 2t172 2q53 0 85 -34t32 -85t-30.5 -81.5t-81.5 -35.5l-74 -6q6 -160 6 -319q0 -78 -4 -177.5t-19.5 -199.5t-46 -191.5t-86.5 -152.5 q-59 -61 -138 -92t-163 -31q-125 0 -237.5 60.5t-169.5 175.5q-25 51 -40.5 131t-23.5 167t-10 168.5t-2 141.5q0 72 2 140.5t6 137.5q0 6 1 12.5t1 14.5q-12 0 -23.5 1t-21.5 3q-47 6 -76.5 37t-29.5 80zM295 1579q0 61 47 103t104 42q49 0 92.5 -36.5t43.5 -90.5 q0 -59 -40 -105t-106 -46q-27 0 -52.5 10t-45 28.5t-31.5 43t-12 51.5zM719 1571q0 59 42 103t107 44q51 0 92 -42t41 -97q0 -31 -13 -56.5t-34.5 -44t-49 -29.5t-56.5 -11q-49 0 -89 40t-40 93z" />
<glyph unicode="&#xe0;" d="M37 350q0 102 37 176t100.5 121t147.5 68.5t180 21.5q66 0 138.5 -8t141.5 -24q0 39 -14 76.5t-41 67.5t-62.5 48t-78.5 18q-94 0 -173 -18t-159 -68q-16 -10 -35.5 -19t-42.5 -9q-41 0 -63.5 33.5t-22.5 74.5q0 33 15.5 56.5t41.5 40.5q98 63 209 97t240 34 q94 0 172 -35t133 -95.5t86 -140.5t31 -172q0 -10 -1 -21t-3 -22q-10 -104 -20.5 -204.5t-18.5 -204.5q14 0 29.5 7t33 16t36 16.5t40.5 7.5q47 0 78 -35t31 -82t-36 -82t-86 -57.5t-104.5 -33.5t-91.5 -11q-127 0 -160 88q-70 -41 -145.5 -68.5t-140.5 -27.5 q-90 0 -167 22.5t-133.5 67.5t-89 114.5t-32.5 165.5zM221 1489q-6 47 19.5 87t74.5 46q25 4 48.5 -2t46.5 -16q33 -16 95 -49t123.5 -73t110 -81t52.5 -74q6 -45 -11.5 -76.5t-50.5 -36.5q-35 -4 -102.5 18.5t-138 55.5t-131 65.5t-83.5 49.5q-20 12 -34.5 36.5t-18.5 49.5 zM274 342q0 -45 15.5 -72.5t41 -42t60.5 -19.5t74 -5q25 0 59.5 12t71.5 29.5t69.5 37t51.5 33.5l26 23q4 37 7.5 74t7.5 73q-63 16 -126.5 26.5t-129.5 10.5q-47 0 -88 -9t-72 -29.5t-49.5 -55.5t-18.5 -86z" />
<glyph unicode="&#xe1;" d="M37 350q0 102 37 176t100.5 121t147.5 68.5t180 21.5q66 0 138.5 -8t141.5 -24q0 39 -14 76.5t-41 67.5t-62.5 48t-78.5 18q-94 0 -173 -18t-159 -68q-16 -10 -35.5 -19t-42.5 -9q-41 0 -63.5 33.5t-22.5 74.5q0 33 15.5 56.5t41.5 40.5q98 63 209 97t240 34 q94 0 172 -35t133 -95.5t86 -140.5t31 -172q0 -10 -1 -21t-3 -22q-10 -104 -20.5 -204.5t-18.5 -204.5q14 0 29.5 7t33 16t36 16.5t40.5 7.5q47 0 78 -35t31 -82t-36 -82t-86 -57.5t-104.5 -33.5t-91.5 -11q-127 0 -160 88q-70 -41 -145.5 -68.5t-140.5 -27.5 q-90 0 -167 22.5t-133.5 67.5t-89 114.5t-32.5 165.5zM274 342q0 -45 15.5 -72.5t41 -42t60.5 -19.5t74 -5q25 0 59.5 12t71.5 29.5t69.5 37t51.5 33.5l26 23q4 37 7.5 74t7.5 73q-63 16 -126.5 26.5t-129.5 10.5q-47 0 -88 -9t-72 -29.5t-49.5 -55.5t-18.5 -86zM369 1303 q0 55 45 101t108.5 83t130 64.5t109.5 45.5q16 6 33.5 11.5t38.5 5.5q53 0 82.5 -35t29.5 -82q0 -39 -17.5 -62.5t-44 -41t-58 -28.5t-62.5 -26q-35 -16 -79 -36.5t-87 -39t-79 -30.5t-54 -12q-51 0 -73.5 23.5t-22.5 58.5z" />
<glyph unicode="&#xe2;" d="M37 350q0 102 37 176t100.5 121t147.5 68.5t180 21.5q66 0 138.5 -8t141.5 -24q0 39 -14 76.5t-41 67.5t-62.5 48t-78.5 18q-94 0 -173 -18t-159 -68q-16 -10 -35.5 -19t-42.5 -9q-41 0 -63.5 33.5t-22.5 74.5q0 33 15.5 56.5t41.5 40.5q98 63 209 97t240 34 q94 0 172 -35t133 -95.5t86 -140.5t31 -172q0 -10 -1 -21t-3 -22q-10 -104 -20.5 -204.5t-18.5 -204.5q14 0 29.5 7t33 16t36 16.5t40.5 7.5q47 0 78 -35t31 -82t-36 -82t-86 -57.5t-104.5 -33.5t-91.5 -11q-127 0 -160 88q-70 -41 -145.5 -68.5t-140.5 -27.5 q-90 0 -167 22.5t-133.5 67.5t-89 114.5t-32.5 165.5zM211 1313q0 29 25 63l176 209q51 63 84.5 78.5t66.5 15.5q35 0 72 -23.5t90 -90.5l158 -179q23 -31 22 -63q0 -45 -37 -75.5t-84 -30.5q-25 0 -48 10t-42 35l-131 151l-139 -162q-18 -25 -42 -36t-48 -11q-47 0 -85 32 t-38 77zM274 342q0 -45 15.5 -72.5t41 -42t60.5 -19.5t74 -5q25 0 59.5 12t71.5 29.5t69.5 37t51.5 33.5l26 23q4 37 7.5 74t7.5 73q-63 16 -126.5 26.5t-129.5 10.5q-47 0 -88 -9t-72 -29.5t-49.5 -55.5t-18.5 -86z" />
<glyph unicode="&#xe3;" d="M37 350q0 102 37 176t100.5 121t147.5 68.5t180 21.5q66 0 138.5 -8t141.5 -24q0 39 -14 76.5t-41 67.5t-62.5 48t-78.5 18q-94 0 -173 -18t-159 -68q-16 -10 -35.5 -19t-42.5 -9q-41 0 -63.5 33.5t-22.5 74.5q0 33 15.5 56.5t41.5 40.5q98 63 209 97t240 34 q94 0 172 -35t133 -95.5t86 -140.5t31 -172q0 -10 -1 -21t-3 -22q-10 -104 -20.5 -204.5t-18.5 -204.5q14 0 29.5 7t33 16t36 16.5t40.5 7.5q47 0 78 -35t31 -82t-36 -82t-86 -57.5t-104.5 -33.5t-91.5 -11q-127 0 -160 88q-70 -41 -145.5 -68.5t-140.5 -27.5 q-90 0 -167 22.5t-133.5 67.5t-89 114.5t-32.5 165.5zM186 1354q0 12 2 20q23 109 92.5 175.5t155.5 66.5q49 0 98.5 -20.5t96.5 -67.5q20 -18 42.5 -51t47.5 -41q27 2 39 27.5t24.5 54t32 53t62.5 24.5q39 0 70.5 -22.5t31.5 -63.5q0 -49 -23.5 -99t-61.5 -90t-85 -64.5 t-92 -24.5q-47 0 -84 17.5t-67.5 43t-59 55t-59.5 52.5q-12 -2 -32 -19.5t-30 -66.5q-8 -39 -35.5 -56.5t-62.5 -17.5q-18 0 -37 10.5t-33 26.5t-23.5 36.5t-9.5 41.5zM274 342q0 -45 15.5 -72.5t41 -42t60.5 -19.5t74 -5q25 0 59.5 12t71.5 29.5t69.5 37t51.5 33.5l26 23 q4 37 7.5 74t7.5 73q-63 16 -126.5 26.5t-129.5 10.5q-47 0 -88 -9t-72 -29.5t-49.5 -55.5t-18.5 -86z" />
<glyph unicode="&#xe4;" d="M37 350q0 102 37 176t100.5 121t147.5 68.5t180 21.5q66 0 138.5 -8t141.5 -24q0 39 -14 76.5t-41 67.5t-62.5 48t-78.5 18q-94 0 -173 -18t-159 -68q-16 -10 -35.5 -19t-42.5 -9q-41 0 -63.5 33.5t-22.5 74.5q0 33 15.5 56.5t41.5 40.5q98 63 209 97t240 34 q94 0 172 -35t133 -95.5t86 -140.5t31 -172q0 -10 -1 -21t-3 -22q-10 -104 -20.5 -204.5t-18.5 -204.5q14 0 29.5 7t33 16t36 16.5t40.5 7.5q47 0 78 -35t31 -82t-36 -82t-86 -57.5t-104.5 -33.5t-91.5 -11q-127 0 -160 88q-70 -41 -145.5 -68.5t-140.5 -27.5 q-90 0 -167 22.5t-133.5 67.5t-89 114.5t-32.5 165.5zM240 1376q0 61 47 103.5t104 42.5q49 0 92 -37t43 -90q0 -59 -40 -105.5t-105 -46.5q-27 0 -52.5 10.5t-45 28.5t-31.5 43t-12 51zM274 342q0 -45 15.5 -72.5t41 -42t60.5 -19.5t74 -5q25 0 59.5 12t71.5 29.5t69.5 37 t51.5 33.5l26 23q4 37 7.5 74t7.5 73q-63 16 -126.5 26.5t-129.5 10.5q-47 0 -88 -9t-72 -29.5t-49.5 -55.5t-18.5 -86zM664 1368q0 59 42 103.5t107 44.5q51 0 92 -42t41 -98q0 -31 -13 -56.5t-34.5 -44t-49 -29.5t-56.5 -11q-49 0 -89 40t-40 93z" />
<glyph unicode="&#xe5;" d="M37 350q0 102 37 176t100.5 121t147.5 68.5t180 21.5q66 0 138.5 -8t141.5 -24q0 39 -14 76.5t-41 67.5t-62.5 48t-78.5 18q-94 0 -173 -18t-159 -68q-16 -10 -35.5 -19t-42.5 -9q-41 0 -63.5 33.5t-22.5 74.5q0 33 15.5 56.5t41.5 40.5q98 63 209 97t240 34 q94 0 172 -35t133 -95.5t86 -140.5t31 -172q0 -10 -1 -21t-3 -22q-10 -104 -20.5 -204.5t-18.5 -204.5q14 0 29.5 7t33 16t36 16.5t40.5 7.5q47 0 78 -35t31 -82t-36 -82t-86 -57.5t-104.5 -33.5t-91.5 -11q-127 0 -160 88q-70 -41 -145.5 -68.5t-140.5 -27.5 q-90 0 -167 22.5t-133.5 67.5t-89 114.5t-32.5 165.5zM268 1450q0 55 18.5 102t56.5 82t97.5 55.5t139.5 20.5q70 0 126 -21.5t96 -57.5t61.5 -81t21.5 -90q0 -117 -88.5 -183.5t-229.5 -66.5q-63 0 -118.5 17.5t-95.5 49.5t-62.5 76t-22.5 97zM274 342q0 -45 15.5 -72.5 t41 -42t60.5 -19.5t74 -5q25 0 59.5 12t71.5 29.5t69.5 37t51.5 33.5l26 23q4 37 7.5 74t7.5 73q-63 16 -126.5 26.5t-129.5 10.5q-47 0 -88 -9t-72 -29.5t-49.5 -55.5t-18.5 -86zM451 1450q0 -29 31.5 -53.5t86.5 -24.5q66 0 94.5 29.5t28.5 62.5q0 35 -29.5 65t-80.5 30 q-74 0 -102.5 -35t-28.5 -74z" />
<glyph unicode="&#xe7;" horiz-adv-x="1077" d="M33 528q0 111 38 215.5t107.5 186.5t165.5 132t213 50q53 0 104.5 -11t100.5 -30q12 35 40.5 54.5t69.5 19.5q53 0 86 -33t33 -86q0 -84 2 -165t2 -165q0 -53 -32.5 -85.5t-85.5 -32.5t-83 31.5t-34 84.5q-4 27 -3 54.5t1 54.5q-41 20 -90.5 44.5t-104.5 24.5 q-66 0 -119 -26.5t-93 -71.5t-61.5 -102.5t-21.5 -118.5t23.5 -119.5t64.5 -103.5t96.5 -73t118.5 -28q16 0 41 4.5t49.5 10.5t44 14t25.5 14q23 23 39 39.5t49 16.5q51 0 90 -37t39 -88q0 -53 -37 -91t-90 -62.5t-112.5 -38t-106.5 -15.5l-37 -82q16 0 32.5 1t31.5 -1 q78 -8 129 -61.5t51 -143.5q0 -53 -20.5 -95t-56.5 -70.5t-83 -44t-100 -15.5q-29 0 -66 8t-69.5 23.5t-55 39t-22.5 54.5q0 29 28.5 56.5t67.5 27.5q35 0 64.5 -18.5t62.5 -18.5q29 0 47.5 12.5t18.5 40.5q0 31 -17.5 42t-34.5 11q-6 0 -21 -2t-32 -6q-31 -6 -55 -6 q-20 0 -41 1t-36 9.5t-24.5 23.5t-9.5 46q-2 16 12.5 48t30.5 73v-2l25 65q-84 25 -154.5 73t-123 115.5t-82 151.5t-29.5 176z" />
<glyph unicode="&#xe8;" horiz-adv-x="1083" d="M47 532q0 113 36 218.5t102.5 187.5t162.5 131t217 49q102 0 187.5 -39t147 -108.5t96 -164.5t34.5 -208q0 -31 -4 -63.5t-16.5 -59t-34 -44t-53.5 -19.5l-613 -29q31 -86 94.5 -125t153.5 -39q53 0 112.5 8.5t110.5 18.5q8 2 14.5 3t14.5 1q51 0 82 -37t31 -84 t-26 -75.5t-69 -39.5q-59 -14 -134 -23t-138 -9q-119 0 -213 43t-159.5 118.5t-100.5 175t-35 213.5zM141 1462q-6 47 19.5 87t75.5 46q25 4 48 -2t46 -16q33 -16 95 -49t123.5 -73t110 -81t52.5 -74q6 -45 -11.5 -76.5t-50.5 -35.5q-35 -4 -102.5 18.5t-138 55t-131 65.5 t-82.5 49q-20 12 -35 37t-19 49zM287 618h2l497 15q-2 45 -15 89t-39.5 80t-65.5 58.5t-91 22.5q-55 0 -102 -22.5t-85 -59.5t-63.5 -84t-37.5 -99z" />
<glyph unicode="&#xe9;" horiz-adv-x="1083" d="M47 532q0 113 36 218.5t102.5 187.5t162.5 131t217 49q102 0 187.5 -39t147 -108.5t96 -164.5t34.5 -208q0 -31 -4 -63.5t-16.5 -59t-34 -44t-53.5 -19.5l-613 -29q31 -86 94.5 -125t153.5 -39q53 0 112.5 8.5t110.5 18.5q8 2 14.5 3t14.5 1q51 0 82 -37t31 -84 t-26 -75.5t-69 -39.5q-59 -14 -134 -23t-138 -9q-119 0 -213 43t-159.5 118.5t-100.5 175t-35 213.5zM287 618h2l497 15q-2 45 -15 89t-39.5 80t-65.5 58.5t-91 22.5q-55 0 -102 -22.5t-85 -59.5t-63.5 -84t-37.5 -99zM301 1257q0 55 45 101.5t108.5 83.5t130 64.5 t109.5 45.5q16 6 33.5 11.5t38.5 5.5q53 0 83 -35t30 -82q0 -39 -17.5 -62.5t-44 -41t-58.5 -28.5t-63 -26q-35 -16 -79 -36.5t-87 -39t-78.5 -30.5t-54.5 -12q-51 0 -73.5 23t-22.5 58z" />
<glyph unicode="&#xea;" horiz-adv-x="1083" d="M47 532q0 113 36 218.5t102.5 187.5t162.5 131t217 49q102 0 187.5 -39t147 -108.5t96 -164.5t34.5 -208q0 -31 -4 -63.5t-16.5 -59t-34 -44t-53.5 -19.5l-613 -29q31 -86 94.5 -125t153.5 -39q53 0 112.5 8.5t110.5 18.5q8 2 14.5 3t14.5 1q51 0 82 -37t31 -84 t-26 -75.5t-69 -39.5q-59 -14 -134 -23t-138 -9q-119 0 -213 43t-159.5 118.5t-100.5 175t-35 213.5zM172 1298q0 29 25 64l176 209q51 63 85 78.5t66 15.5q35 0 72 -23.5t90 -91.5l158 -178q23 -31 22 -63q0 -45 -36.5 -76t-84.5 -31q-25 0 -48 10.5t-42 34.5l-131 152 l-139 -162q-18 -25 -42 -36t-48 -11q-47 0 -85 31.5t-38 76.5zM287 618h2l497 15q-2 45 -15 89t-39.5 80t-65.5 58.5t-91 22.5q-55 0 -102 -22.5t-85 -59.5t-63.5 -84t-37.5 -99z" />
<glyph unicode="&#xeb;" horiz-adv-x="1083" d="M47 532q0 113 36 218.5t102.5 187.5t162.5 131t217 49q102 0 187.5 -39t147 -108.5t96 -164.5t34.5 -208q0 -31 -4 -63.5t-16.5 -59t-34 -44t-53.5 -19.5l-613 -29q31 -86 94.5 -125t153.5 -39q53 0 112.5 8.5t110.5 18.5q8 2 14.5 3t14.5 1q51 0 82 -37t31 -84 t-26 -75.5t-69 -39.5q-59 -14 -134 -23t-138 -9q-119 0 -213 43t-159.5 118.5t-100.5 175t-35 213.5zM186 1368q0 61 47.5 103t104.5 42q49 0 92 -36.5t43 -90.5q0 -59 -40 -105t-105 -46q-27 0 -52.5 10t-45 28.5t-32 43t-12.5 51.5zM287 618h2l497 15q-2 45 -15 89 t-39.5 80t-65.5 58.5t-91 22.5q-55 0 -102 -22.5t-85 -59.5t-63.5 -84t-37.5 -99zM610 1360q0 59 42 103t108 44q51 0 92 -42t41 -97q0 -31 -13.5 -56.5t-35 -44t-49 -29.5t-56.5 -11q-49 0 -89 40t-40 93z" />
<glyph unicode="&#xec;" horiz-adv-x="661" d="M-139 1491q-6 47 19.5 87t74.5 46q25 4 48.5 -2t45.5 -16q33 -16 95.5 -49t124 -73t109.5 -81t52 -74q6 -45 -11.5 -76.5t-49.5 -35.5q-35 -4 -102.5 18t-138.5 55t-131 66t-83 49q-20 12 -34.5 36.5t-18.5 49.5zM29 987q0 49 15 73.5t37.5 34t46.5 9.5h40l192 2 q49 0 84 -35t33 -84q-4 -129 -15 -244.5t-16 -244.5q-4 -66 -6 -128.5t-2 -127.5v-6h37q53 0 86 -33t33 -86t-33 -86t-86 -33h-313q-53 0 -85 32.5t-32 86.5q0 53 32 86t85 33h39q2 162 10 316.5t20 319.5q-23 0 -44 -3t-44 -3q-53 0 -83.5 36t-30.5 85z" />
<glyph unicode="&#xed;" horiz-adv-x="661" d="M29 987q0 49 15 73.5t37.5 34t46.5 9.5h40l192 2q49 0 84 -35t33 -84q-4 -129 -15 -244.5t-16 -244.5q-4 -66 -6 -128.5t-2 -127.5v-6h37q53 0 86 -33t33 -86t-33 -86t-86 -33h-313q-53 0 -85 32.5t-32 86.5q0 53 32 86t85 33h39q2 162 10 316.5t20 319.5q-23 0 -44 -3 t-44 -3q-53 0 -83.5 36t-30.5 85zM125 1294q0 55 45 101.5t108.5 83.5t130 64.5t109.5 45.5q16 6 33.5 11.5t38.5 5.5q53 0 82.5 -35t29.5 -82q0 -39 -17 -62.5t-44 -41t-58.5 -28.5t-62.5 -26q-35 -16 -79 -36.5t-87 -39t-78.5 -31t-54.5 -12.5q-51 0 -73.5 23.5 t-22.5 58.5z" />
<glyph unicode="&#xee;" horiz-adv-x="661" d="M-31 1313q0 29 25 63l176 209q51 63 85 78.5t67 15.5q35 0 71.5 -23.5t89.5 -90.5l158 -179q23 -31 23 -63q0 -45 -37 -75.5t-84 -30.5q-25 0 -48.5 10t-41.5 35l-131 151l-140 -162q-18 -25 -41.5 -36t-48.5 -11q-47 0 -85 32t-38 77zM29 987q0 49 15 73.5t37.5 34 t46.5 9.5h40l192 2q49 0 84 -35t33 -84q-4 -129 -15 -244.5t-16 -244.5q-4 -66 -6 -128.5t-2 -127.5v-6h37q53 0 86 -33t33 -86t-33 -86t-86 -33h-313q-53 0 -85 32.5t-32 86.5q0 53 32 86t85 33h39q2 162 10 316.5t20 319.5q-23 0 -44 -3t-44 -3q-53 0 -83.5 36t-30.5 85z " />
<glyph unicode="&#xef;" horiz-adv-x="661" d="M-55 1380q0 61 47 103.5t104 42.5q49 0 92 -37t43 -90q0 -59 -39.5 -105.5t-105.5 -46.5q-27 0 -52.5 10.5t-45 29t-31.5 43t-12 50.5zM29 987q0 49 15 73.5t37.5 34t46.5 9.5h40l192 2q49 0 84 -35t33 -84q-4 -129 -15 -244.5t-16 -244.5q-4 -66 -6 -128.5t-2 -127.5v-6 h37q53 0 86 -33t33 -86t-33 -86t-86 -33h-313q-53 0 -85 32.5t-32 86.5q0 53 32 86t85 33h39q2 162 10 316.5t20 319.5q-23 0 -44 -3t-44 -3q-53 0 -83.5 36t-30.5 85zM369 1372q0 59 42 103.5t107 44.5q51 0 92 -42t41 -98q0 -31 -13 -56.5t-34.5 -43.5t-49 -29.5 t-56.5 -11.5q-49 0 -89 40t-40 93z" />
<glyph unicode="&#xf1;" horiz-adv-x="1329" d="M4 983q0 51 32 83t83 36q53 4 106.5 7t106.5 3q84 0 112.5 -25.5t36.5 -78.5q74 43 154.5 73.5t152.5 30.5q104 0 167 -46t94.5 -119t42 -160t10.5 -169q0 -92 -5 -182t-10 -182l17 12q25 16 48.5 28.5t51.5 12.5q47 0 79 -32.5t32 -79.5t-38 -86t-91 -68t-110.5 -45 t-96.5 -16q-68 0 -98.5 38.5t-30.5 104.5q0 117 9 229.5t9 229.5q0 25 -1 65.5t-6 82.5t-14 80t-26 58q-10 4 -23.5 6.5t-25.5 2.5q-41 0 -81 -13.5t-76.5 -32t-70.5 -40t-63 -35.5q-4 -106 -7 -213t-9 -213l-4 -97h6q53 0 86 -33.5t33 -84.5t-32 -84t-83 -35 q-72 -2 -140.5 -5t-137.5 -3q-53 0 -86 33.5t-33 84.5t31.5 84t82.5 35h35l6 115q6 104 9.5 209.5t5.5 210.5q2 29 2 55.5v54.5q-31 -2 -62.5 -3t-62.5 -1q-51 0 -84 33t-33 84zM266 1352q0 12 2 20q23 109 92.5 175.5t155.5 66.5q49 0 98.5 -20.5t96.5 -67.5 q20 -18 42.5 -51t47.5 -41q27 2 39 27.5t24.5 54t31.5 53t62 24.5q39 0 71 -22.5t32 -63.5q0 -49 -23.5 -99t-61.5 -90t-85 -64.5t-92 -24.5q-47 0 -84 17.5t-68 43t-59.5 55t-59.5 52.5q-12 -2 -31.5 -19.5t-29.5 -66.5q-8 -39 -36 -56.5t-62 -17.5q-18 0 -37 10t-33 26.5 t-23.5 37t-9.5 41.5z" />
<glyph unicode="&#xf2;" horiz-adv-x="1069" d="M33 561q0 131 46 234.5t115.5 174t152.5 107.5t159 37q129 0 225 -47t159.5 -126t95.5 -179t32 -205q0 -109 -33 -213t-99.5 -186t-163.5 -132.5t-226 -50.5q-109 0 -194 46.5t-145.5 126t-92 186t-31.5 227.5zM197 1475q-6 47 19.5 87t74.5 46q25 4 48 -2.5t46 -16.5 q33 -16 95.5 -49t124 -73t109.5 -80.5t52 -73.5q6 -45 -11.5 -77t-49.5 -36q-35 -4 -102.5 18.5t-138.5 55.5t-131.5 65.5t-82.5 49.5q-20 12 -34.5 36.5t-18.5 49.5zM268 561q0 -94 21.5 -160.5t54.5 -107.5t73 -60.5t79 -19.5q70 0 124 29.5t91 79t55 111t18 124.5 q0 61 -17 118.5t-51 102.5t-87.5 73t-122.5 28q-25 0 -66 -18.5t-78.5 -56.5t-65.5 -98.5t-28 -144.5z" />
<glyph unicode="&#xf3;" horiz-adv-x="1069" d="M33 561q0 131 46 234.5t115.5 174t152.5 107.5t159 37q129 0 225 -47t159.5 -126t95.5 -179t32 -205q0 -109 -33 -213t-99.5 -186t-163.5 -132.5t-226 -50.5q-109 0 -194 46.5t-145.5 126t-92 186t-31.5 227.5zM268 561q0 -94 21.5 -160.5t54.5 -107.5t73 -60.5t79 -19.5 q70 0 124 29.5t91 79t55 111t18 124.5q0 61 -17 118.5t-51 102.5t-87.5 73t-122.5 28q-25 0 -66 -18.5t-78.5 -56.5t-65.5 -98.5t-28 -144.5zM315 1266q0 55 45.5 101t108.5 83t130 64.5t110 46.5q16 6 33.5 11t37.5 5q53 0 83 -35t30 -82q0 -39 -17.5 -62.5t-44 -41 t-58.5 -28.5t-62 -25q-35 -16 -79 -37t-87 -39.5t-79 -30.5t-54 -12q-51 0 -74 23.5t-23 58.5z" />
<glyph unicode="&#xf4;" horiz-adv-x="1069" d="M33 561q0 131 46 234.5t115.5 174t152.5 107.5t159 37q129 0 225 -47t159.5 -126t95.5 -179t32 -205q0 -109 -33 -213t-99.5 -186t-163.5 -132.5t-226 -50.5q-109 0 -194 46.5t-145.5 126t-92 186t-31.5 227.5zM180 1298q0 29 25 64l176 209q51 63 85 78.5t66 15.5 q35 0 72 -23.5t90 -91.5l158 -178q23 -31 22 -63q0 -45 -36.5 -76t-83.5 -31q-25 0 -48.5 10.5t-41.5 34.5l-132 152l-139 -162q-18 -25 -41.5 -36t-48.5 -11q-47 0 -85 31.5t-38 76.5zM268 561q0 -94 21.5 -160.5t54.5 -107.5t73 -60.5t79 -19.5q70 0 124 29.5t91 79 t55 111t18 124.5q0 61 -17 118.5t-51 102.5t-87.5 73t-122.5 28q-25 0 -66 -18.5t-78.5 -56.5t-65.5 -98.5t-28 -144.5z" />
<glyph unicode="&#xf5;" horiz-adv-x="1069" d="M33 561q0 131 46 234.5t115.5 174t152.5 107.5t159 37q129 0 225 -47t159.5 -126t95.5 -179t32 -205q0 -109 -33 -213t-99.5 -186t-163.5 -132.5t-226 -50.5q-109 0 -194 46.5t-145.5 126t-92 186t-31.5 227.5zM133 1298q0 12 2 21q23 109 92.5 175.5t155.5 66.5 q49 0 98 -20.5t97 -67.5q20 -18 42.5 -51t47.5 -42q27 2 39 28t24 54.5t31.5 53t62.5 24.5q39 0 71 -22.5t32 -63.5q0 -49 -23.5 -99t-61.5 -90t-85 -64.5t-92 -24.5q-47 0 -84 17t-68 43t-59.5 55t-59.5 52q-12 -2 -31.5 -19t-29.5 -67q-8 -39 -36 -56t-62 -17 q-18 0 -37 10t-33 26.5t-23.5 37t-9.5 40.5zM268 561q0 -94 21.5 -160.5t54.5 -107.5t73 -60.5t79 -19.5q70 0 124 29.5t91 79t55 111t18 124.5q0 61 -17 118.5t-51 102.5t-87.5 73t-122.5 28q-25 0 -66 -18.5t-78.5 -56.5t-65.5 -98.5t-28 -144.5z" />
<glyph unicode="&#xf6;" horiz-adv-x="1069" d="M33 561q0 131 46 234.5t115.5 174t152.5 107.5t159 37q129 0 225 -47t159.5 -126t95.5 -179t32 -205q0 -109 -33 -213t-99.5 -186t-163.5 -132.5t-226 -50.5q-109 0 -194 46.5t-145.5 126t-92 186t-31.5 227.5zM174 1370q0 61 47.5 103.5t104.5 42.5q49 0 92 -37t43 -90 q0 -59 -40 -105.5t-106 -46.5q-27 0 -52 10t-44.5 28.5t-32 43t-12.5 51.5zM268 561q0 -94 21.5 -160.5t54.5 -107.5t73 -60.5t79 -19.5q70 0 124 29.5t91 79t55 111t18 124.5q0 61 -17 118.5t-51 102.5t-87.5 73t-122.5 28q-25 0 -66 -18.5t-78.5 -56.5t-65.5 -98.5 t-28 -144.5zM598 1362q0 59 42 103t108 44q51 0 92 -42t41 -97q0 -31 -13.5 -56.5t-35 -44t-49 -29.5t-56.5 -11q-49 0 -89 40t-40 93z" />
<glyph unicode="&#xf9;" horiz-adv-x="1335" d="M14 877q0 45 28 72.5t69 37.5q51 10 91 22.5t83 43.5q23 16 44 26.5t48 10.5q53 0 75.5 -42t22.5 -90q0 -39 -2 -75.5t-6 -73.5q-6 -164 -6 -324q0 -31 -2 -81t5 -99t27.5 -85t63.5 -36q39 0 79 13.5t77 32t70.5 39t64.5 36.5q2 111 6 222.5t8 222.5q0 29 1 57.5t3 56.5 h-4q-53 0 -86 34t-33 85t32 84t83 35q72 2 140.5 4t138.5 2q53 0 85.5 -33t32.5 -84t-31.5 -84t-82.5 -35q-10 0 -18.5 -1t-16.5 -1l-8 -131q-4 -111 -8.5 -219t-6.5 -219l-2 -59q51 20 99 20q49 0 88 -28.5t39 -81.5q0 -37 -21.5 -65t-54.5 -42q-47 -18 -95.5 -36.5 t-95.5 -39.5q-18 -8 -36.5 -13t-40.5 -5q-43 0 -67 26.5t-36 61.5q-76 -37 -159.5 -63.5t-159.5 -26.5q-111 0 -174.5 52t-95 131t-39 173t-7.5 178q0 72 2 144.5t4 144.5q-41 -10 -75 -10q-53 0 -96.5 27.5t-43.5 87.5zM272 1446q-6 47 19.5 87t75.5 46q25 4 48 -2t46 -16 q33 -16 95 -49t123.5 -73t110 -81t52.5 -74q6 -45 -11.5 -76.5t-50.5 -36.5q-35 -4 -102.5 18.5t-138 55.5t-131 65.5t-82.5 49.5q-20 12 -35 36.5t-19 49.5z" />
<glyph unicode="&#xfa;" horiz-adv-x="1335" d="M14 877q0 45 28 72.5t69 37.5q51 10 91 22.5t83 43.5q23 16 44 26.5t48 10.5q53 0 75.5 -42t22.5 -90q0 -39 -2 -75.5t-6 -73.5q-6 -164 -6 -324q0 -31 -2 -81t5 -99t27.5 -85t63.5 -36q39 0 79 13.5t77 32t70.5 39t64.5 36.5q2 111 6 222.5t8 222.5q0 29 1 57.5t3 56.5 h-4q-53 0 -86 34t-33 85t32 84t83 35q72 2 140.5 4t138.5 2q53 0 85.5 -33t32.5 -84t-31.5 -84t-82.5 -35q-10 0 -18.5 -1t-16.5 -1l-8 -131q-4 -111 -8.5 -219t-6.5 -219l-2 -59q51 20 99 20q49 0 88 -28.5t39 -81.5q0 -37 -21.5 -65t-54.5 -42q-47 -18 -95.5 -36.5 t-95.5 -39.5q-18 -8 -36.5 -13t-40.5 -5q-43 0 -67 26.5t-36 61.5q-76 -37 -159.5 -63.5t-159.5 -26.5q-111 0 -174.5 52t-95 131t-39 173t-7.5 178q0 72 2 144.5t4 144.5q-41 -10 -75 -10q-53 0 -96.5 27.5t-43.5 87.5zM461 1262q0 55 45 101t108.5 83t130 64.5t109.5 45.5 q16 6 33.5 11.5t38.5 5.5q53 0 82.5 -35t29.5 -82q0 -39 -17 -62.5t-44 -41t-58.5 -28.5t-62.5 -26q-35 -16 -79 -36.5t-87 -39t-79 -30.5t-54 -12q-51 0 -73.5 23.5t-22.5 58.5z" />
<glyph unicode="&#xfb;" horiz-adv-x="1335" d="M14 877q0 45 28 72.5t69 37.5q51 10 91 22.5t83 43.5q23 16 44 26.5t48 10.5q53 0 75.5 -42t22.5 -90q0 -39 -2 -75.5t-6 -73.5q-6 -164 -6 -324q0 -31 -2 -81t5 -99t27.5 -85t63.5 -36q39 0 79 13.5t77 32t70.5 39t64.5 36.5q2 111 6 222.5t8 222.5q0 29 1 57.5t3 56.5 h-4q-53 0 -86 34t-33 85t32 84t83 35q72 2 140.5 4t138.5 2q53 0 85.5 -33t32.5 -84t-31.5 -84t-82.5 -35q-10 0 -18.5 -1t-16.5 -1l-8 -131q-4 -111 -8.5 -219t-6.5 -219l-2 -59q51 20 99 20q49 0 88 -28.5t39 -81.5q0 -37 -21.5 -65t-54.5 -42q-47 -18 -95.5 -36.5 t-95.5 -39.5q-18 -8 -36.5 -13t-40.5 -5q-43 0 -67 26.5t-36 61.5q-76 -37 -159.5 -63.5t-159.5 -26.5q-111 0 -174.5 52t-95 131t-39 173t-7.5 178q0 72 2 144.5t4 144.5q-41 -10 -75 -10q-53 0 -96.5 27.5t-43.5 87.5zM319 1278q0 29 25 63l176 209q51 63 85 79t67 16 q35 0 71.5 -24t90.5 -91l157 -178q23 -31 23 -64q0 -45 -37 -75.5t-84 -30.5q-25 0 -48.5 10t-41.5 35l-131 151l-140 -161q-18 -25 -41.5 -36.5t-48.5 -11.5q-47 0 -85 32t-38 77z" />
<glyph unicode="&#xfc;" horiz-adv-x="1335" d="M14 877q0 45 28 72.5t69 37.5q51 10 91 22.5t83 43.5q23 16 44 26.5t48 10.5q53 0 75.5 -42t22.5 -90q0 -39 -2 -75.5t-6 -73.5q-6 -164 -6 -324q0 -31 -2 -81t5 -99t27.5 -85t63.5 -36q39 0 79 13.5t77 32t70.5 39t64.5 36.5q2 111 6 222.5t8 222.5q0 29 1 57.5t3 56.5 h-4q-53 0 -86 34t-33 85t32 84t83 35q72 2 140.5 4t138.5 2q53 0 85.5 -33t32.5 -84t-31.5 -84t-82.5 -35q-10 0 -18.5 -1t-16.5 -1l-8 -131q-4 -111 -8.5 -219t-6.5 -219l-2 -59q51 20 99 20q49 0 88 -28.5t39 -81.5q0 -37 -21.5 -65t-54.5 -42q-47 -18 -95.5 -36.5 t-95.5 -39.5q-18 -8 -36.5 -13t-40.5 -5q-43 0 -67 26.5t-36 61.5q-76 -37 -159.5 -63.5t-159.5 -26.5q-111 0 -174.5 52t-95 131t-39 173t-7.5 178q0 72 2 144.5t4 144.5q-41 -10 -75 -10q-53 0 -96.5 27.5t-43.5 87.5zM303 1366q0 61 47.5 103t104.5 42q49 0 92 -36.5 t43 -90.5q0 -59 -40 -105t-106 -46q-27 0 -52 10t-44.5 28.5t-32 43t-12.5 51.5zM727 1358q0 59 42 103t108 44q51 0 92 -42t41 -97q0 -31 -13.5 -56.5t-35 -44t-49 -29.5t-56.5 -11q-49 0 -89 40t-40 93z" />
<glyph unicode="&#xff;" horiz-adv-x="1296" d="M8 985q0 61 36 86t95.5 32t139 8t167.5 13h19q55 0 86 -36.5t31 -83.5q0 -39 -25 -73t-78 -40l-43 -6l197 -557q27 72 54.5 147.5t53 147t49 136t41.5 118.5q-51 8 -82.5 33.5t-31.5 80.5q0 45 19.5 69.5t54 36t82 12.5t104.5 1q55 0 105.5 -4t87 -16.5t58 -37 t21.5 -67.5q0 -45 -29.5 -83t-84.5 -38q-14 0 -21 2q-8 2 -16 2h-17q-18 -45 -46.5 -123.5t-64.5 -176t-74 -202t-74 -200.5t-67.5 -174t-52.5 -121q-33 -66 -84 -148.5t-116.5 -155.5t-144 -122t-167.5 -49q-80 0 -117.5 34.5t-37.5 86.5q0 45 29.5 83t82.5 38 q10 0 21.5 -3.5t21.5 -3.5q25 0 55.5 20.5t60.5 54.5t59.5 74t55 78t44 70.5t27.5 48.5q4 12 8 19l-305 870q-16 -2 -34 -1t-34 1q-59 0 -89 37t-30 82zM295 1380q0 61 47 103.5t104 42.5q49 0 92.5 -37t43.5 -90q0 -59 -40 -105.5t-106 -46.5q-27 0 -52.5 10.5t-45 29 t-31.5 43t-12 50.5zM719 1372q0 59 42 103.5t107 44.5q51 0 92 -42t41 -98q0 -31 -13 -56.5t-34.5 -43.5t-49 -29.5t-56.5 -11.5q-49 0 -89 40t-40 93z" />
<glyph unicode="&#x178;" horiz-adv-x="1296" d="M18.5 1242q4.5 44 37 79t91.5 29q31 -4 76 -5.5t91 -1.5h85t58 3q59 4 91 -30t35 -79t-24 -84t-86 -43q-4 0 -9 -1t-9 -1q14 -61 30.5 -110.5t37 -94.5t46 -91t60.5 -97q20 49 44.5 103t49.5 108.5t48.5 106.5t43.5 95h-4q-59 0 -89 37t-30 81t30 81t89 37h75h90t88 1 t71 3q59 2 90.5 -33t34 -79t-25.5 -82.5t-87 -40.5l-74 -5q-16 -35 -40.5 -90t-54.5 -119.5t-60.5 -134t-60.5 -134t-53.5 -120t-37.5 -88.5q6 -25 2 -55q-2 -14 -2 -37v-53t4 -80q41 0 79 -1t73 -3q59 -4 85.5 -43t23.5 -83t-34.5 -79t-91.5 -31q-57 4 -124.5 4.5t-131 -2 t-116 -5.5t-76.5 -7q-57 -10 -93 20.5t-43.5 73.5t14 85t81.5 53q20 4 51 6t68 6q-4 92 -4.5 149.5t1.5 81.5q-37 45 -71.5 101.5t-62 107.5t-47 91t-25.5 55q-35 72 -64 151.5t-49 159.5l-88 6q-59 6 -85 45t-21.5 83zM281 1595q0 61 47 103.5t104 42.5q49 0 92 -37t43 -90 q0 -59 -40 -105.5t-105 -46.5q-27 0 -52.5 10.5t-45 29t-31.5 43t-12 50.5zM705 1587q0 59 41.5 103.5t107.5 44.5q51 0 92 -42t41 -98q0 -31 -13 -56.5t-34.5 -43.5t-49 -29.5t-56.5 -11.5q-49 0 -89 40t-40 93z" />
<glyph unicode="&#x2c6;" horiz-adv-x="1044" d="M180 1278q0 29 25 63l176 209q51 63 85 79t66 16q35 0 72 -24t90 -91l158 -178q23 -31 22 -64q0 -45 -36.5 -75.5t-83.5 -30.5q-25 0 -48.5 10t-41.5 35l-132 151l-139 -161q-18 -25 -41.5 -36.5t-48.5 -11.5q-47 0 -85 32t-38 77z" />
<glyph unicode="&#x2dc;" horiz-adv-x="1173" d="M223 1352q0 12 2 20q23 109 92.5 175.5t155.5 66.5q49 0 98.5 -20.5t96.5 -67.5q20 -18 42.5 -51t47.5 -41q27 2 39 27.5t24.5 54t31.5 53t62 24.5q39 0 71 -22.5t32 -63.5q0 -49 -23.5 -99t-61.5 -90t-85 -64.5t-92 -24.5q-47 0 -84 17.5t-68 43t-59.5 55t-59.5 52.5 q-12 -2 -31.5 -19.5t-29.5 -66.5q-8 -39 -36 -56.5t-62 -17.5q-18 0 -37 10t-33 26.5t-23.5 37t-9.5 41.5z" />
<glyph unicode="&#x2000;" horiz-adv-x="973" />
<glyph unicode="&#x2001;" horiz-adv-x="1946" />
<glyph unicode="&#x2002;" horiz-adv-x="973" />
<glyph unicode="&#x2003;" horiz-adv-x="1946" />
<glyph unicode="&#x2004;" horiz-adv-x="648" />
<glyph unicode="&#x2005;" horiz-adv-x="486" />
<glyph unicode="&#x2006;" horiz-adv-x="324" />
<glyph unicode="&#x2007;" horiz-adv-x="324" />
<glyph unicode="&#x2008;" horiz-adv-x="243" />
<glyph unicode="&#x2009;" horiz-adv-x="389" />
<glyph unicode="&#x200a;" horiz-adv-x="108" />
<glyph unicode="&#x2010;" horiz-adv-x="747" d="M4 567q0 45 29.5 82t89.5 37h463q59 0 89 -37t30 -82t-30 -81.5t-89 -36.5h-463q-59 0 -89 36.5t-30 81.5z" />
<glyph unicode="&#x2011;" horiz-adv-x="747" d="M4 567q0 45 29.5 82t89.5 37h463q59 0 89 -37t30 -82t-30 -81.5t-89 -36.5h-463q-59 0 -89 36.5t-30 81.5z" />
<glyph unicode="&#x2012;" horiz-adv-x="747" d="M4 567q0 45 29.5 82t89.5 37h463q59 0 89 -37t30 -82t-30 -81.5t-89 -36.5h-463q-59 0 -89 36.5t-30 81.5z" />
<glyph unicode="&#x2013;" horiz-adv-x="874" d="M25 567q0 53 32.5 86t85.5 33h586q53 0 86 -32.5t33 -86.5q0 -53 -33 -85.5t-86 -32.5h-586q-53 0 -85.5 32.5t-32.5 85.5z" />
<glyph unicode="&#x2014;" horiz-adv-x="1392" d="M25 567q0 53 32.5 86t85.5 33h1106q53 0 86 -32.5t33 -86.5q0 -53 -33 -85.5t-86 -32.5h-1106q-53 0 -85.5 32.5t-32.5 85.5z" />
<glyph unicode="&#x2018;" horiz-adv-x="458" d="M72 979q0 92 24.5 190.5t65.5 180.5q33 70 102 69q47 0 86 -32.5t39 -81.5q0 -16 -4 -28.5t-10 -27.5q-29 -63 -48.5 -127.5t-19.5 -136.5q0 -51 11.5 -76.5t23.5 -42t23.5 -33t11.5 -47.5q0 -47 -36 -84.5t-85 -37.5q-23 0 -42 9t-36 23q-59 53 -82.5 129t-23.5 154z " />
<glyph unicode="&#x2019;" horiz-adv-x="458" d="M72 780q0 29 12 54q29 63 48.5 128.5t19.5 135.5q0 51 -11.5 76.5t-24 43t-23.5 33t-11 45.5q0 47 37 85t84 38q41 0 78 -33q59 -51 83.5 -127.5t24.5 -152.5q0 -92 -25.5 -191.5t-66.5 -181.5q-16 -31 -42 -50t-60 -19q-47 0 -85 33.5t-38 82.5z" />
<glyph unicode="&#x201c;" horiz-adv-x="925" d="M72 979q0 92 24.5 190.5t65.5 180.5q33 70 102 69q47 0 86 -32.5t39 -81.5q0 -16 -4 -28.5t-10 -27.5q-29 -63 -48.5 -127.5t-19.5 -136.5q0 -51 11.5 -76.5t23.5 -42t23.5 -33t11.5 -47.5q0 -47 -36 -84.5t-85 -37.5q-23 0 -42 9t-36 23q-59 53 -82.5 129t-23.5 154z M512 979q0 92 24.5 190.5t65.5 180.5q33 70 103 69q47 0 85.5 -32.5t38.5 -81.5q0 -16 -4 -28.5t-8 -27.5q-29 -63 -49 -127.5t-20 -136.5q0 -51 11 -76.5t23.5 -42t23.5 -33t11 -47.5q0 -47 -36 -84.5t-83 -37.5q-23 0 -43 9t-37 23q-59 53 -82.5 129t-23.5 154z" />
<glyph unicode="&#x201d;" horiz-adv-x="925" d="M72 780q0 29 12 54q29 63 48.5 128.5t19.5 135.5q0 51 -11.5 76.5t-24 43t-23.5 33t-11 45.5q0 47 37 85t84 38q41 0 78 -33q59 -51 83.5 -127.5t24.5 -152.5q0 -92 -25.5 -191.5t-66.5 -181.5q-16 -31 -42 -50t-60 -19q-47 0 -85 33.5t-38 82.5zM512 780q0 29 12 54 q29 63 49.5 128.5t20.5 135.5q0 51 -11.5 76.5t-24.5 43t-24.5 33t-11.5 45.5q0 47 37 85t84 38q41 0 78 -33q59 -51 83.5 -127.5t24.5 -152.5q0 -92 -25.5 -191.5t-66.5 -181.5q-16 -31 -40.5 -50t-61.5 -19q-47 0 -85 33.5t-38 82.5z" />
<glyph unicode="&#x2026;" horiz-adv-x="1241" d="M49 115q0 76 38 124t116 48q37 0 65.5 -14.5t48 -36t28.5 -48t9 -51.5q0 -27 -10 -53.5t-30.5 -49t-50.5 -36.5t-66 -14q-55 0 -101.5 37.5t-46.5 93.5zM463 115q0 76 37.5 124t115.5 48q37 0 66 -14.5t48.5 -36t28.5 -48t9 -51.5q0 -27 -10 -53.5t-30.5 -49t-50.5 -36.5 t-67 -14q-55 0 -101 37.5t-46 93.5zM877 115q0 76 37.5 124t115.5 48q37 0 65.5 -14.5t48 -36t29 -48t9.5 -51.5q0 -27 -10.5 -53.5t-31 -49t-50 -36.5t-66.5 -14q-55 0 -101 37.5t-46 93.5z" />
<glyph unicode="&#x202f;" horiz-adv-x="389" />
<glyph unicode="&#x205f;" horiz-adv-x="486" />
<glyph unicode="&#x2122;" horiz-adv-x="1581" d="M18 1257q0 29 26 60t67 33l505 2q47 0 71 -28t24 -60q0 -37 -22.5 -67t-70.5 -30l-145 -2q-6 -92 -8 -181t-4 -179q0 -47 1 -102.5t-5 -104.5t-27.5 -82t-69.5 -33q-33 0 -62.5 27t-31.5 68q10 145 11.5 289.5t11.5 295.5q-23 0 -61 -3t-72 -3q-57 0 -97.5 21.5 t-40.5 78.5zM670 561l82 737q4 37 31.5 61.5t58.5 24.5q53 0 80 -43l176 -350l102 332q12 31 39 48.5t53 17.5q33 0 57.5 -18.5t32.5 -57.5l125 -711q2 -8 2 -24q0 -39 -28.5 -62.5t-59.5 -23.5q-29 0 -58.5 18t-37.5 55l-22 125q-6 31 -10.5 55.5t-8.5 46t-8 45t-10 54.5 q-10 -23 -14.5 -38t-14.5 -56q-12 -59 -37.5 -108.5t-83.5 -49.5q-23 0 -46 14.5t-36 38.5l-82 170l-51 92l-18 -161q-6 -63 -12.5 -126t-14.5 -126q-4 -41 -33.5 -62.5t-58.5 -21.5q-35 0 -64.5 31.5t-29.5 72.5z" />
<glyph unicode="&#xe000;" horiz-adv-x="1116" d="M0 0v1116h1116v-1116h-1116z" />
</font>
</defs>
</svg>
